<?xml version="1.0" encoding="utf-8" standalone="no"?>
<!DOCTYPE svg PUBLIC "-//W3C//DTD SVG 1.1//EN"
  "http://www.w3.org/Graphics/SVG/1.1/DTD/svg11.dtd">
<!-- Created with matplotlib (https://matplotlib.org/) -->
<svg height="288pt" version="1.1" viewBox="0 0 288 288" width="288pt" xmlns="http://www.w3.org/2000/svg" xmlns:xlink="http://www.w3.org/1999/xlink">
 <metadata>
  <rdf:RDF xmlns:cc="http://creativecommons.org/ns#" xmlns:dc="http://purl.org/dc/elements/1.1/" xmlns:rdf="http://www.w3.org/1999/02/22-rdf-syntax-ns#">
   <cc:Work>
    <dc:type rdf:resource="http://purl.org/dc/dcmitype/StillImage"/>
    <dc:date>2020-12-11T18:08:13.682924</dc:date>
    <dc:format>image/svg+xml</dc:format>
    <dc:creator>
     <cc:Agent>
      <dc:title>Matplotlib v3.3.2, https://matplotlib.org/</dc:title>
     </cc:Agent>
    </dc:creator>
   </cc:Work>
  </rdf:RDF>
 </metadata>
 <defs>
  <style type="text/css">*{stroke-linecap:butt;stroke-linejoin:round;}</style>
 </defs>
 <g id="figure_1">
  <g id="patch_1">
   <path d="M 0 288 
L 288 288 
L 288 0 
L 0 0 
z
" style="fill:none;"/>
  </g>
  <g id="axes_1">
   <g id="patch_2">
    <path d="M 14.4 137.828571 
L 137.828571 137.828571 
L 137.828571 14.4 
L 14.4 14.4 
z
" style="fill:none;"/>
   </g>
   <g id="matplotlib.axis_1">
    <g id="xtick_1">
     <g id="line2d_1">
      <defs>
       <path d="M 0 0 
L 0 -3.5 
" id="m05a2933520" style="stroke:#000000;stroke-width:0.8;"/>
      </defs>
      <g>
       <use style="stroke:#000000;stroke-width:0.8;" x="33.888722" xlink:href="#m05a2933520" y="14.4"/>
      </g>
     </g>
     <g id="text_1">
      <!-- 40 -->
      <g transform="translate(27.526222 5.320313)scale(0.1 -0.1)">
       <defs>
        <path d="M 37.796875 64.3125 
L 12.890625 25.390625 
L 37.796875 25.390625 
z
M 35.203125 72.90625 
L 47.609375 72.90625 
L 47.609375 25.390625 
L 58.015625 25.390625 
L 58.015625 17.1875 
L 47.609375 17.1875 
L 47.609375 0 
L 37.796875 0 
L 37.796875 17.1875 
L 4.890625 17.1875 
L 4.890625 26.703125 
z
" id="DejaVuSans-52"/>
        <path d="M 31.78125 66.40625 
Q 24.171875 66.40625 20.328125 58.90625 
Q 16.5 51.421875 16.5 36.375 
Q 16.5 21.390625 20.328125 13.890625 
Q 24.171875 6.390625 31.78125 6.390625 
Q 39.453125 6.390625 43.28125 13.890625 
Q 47.125 21.390625 47.125 36.375 
Q 47.125 51.421875 43.28125 58.90625 
Q 39.453125 66.40625 31.78125 66.40625 
z
M 31.78125 74.21875 
Q 44.046875 74.21875 50.515625 64.515625 
Q 56.984375 54.828125 56.984375 36.375 
Q 56.984375 17.96875 50.515625 8.265625 
Q 44.046875 -1.421875 31.78125 -1.421875 
Q 19.53125 -1.421875 13.0625 8.265625 
Q 6.59375 17.96875 6.59375 36.375 
Q 6.59375 54.828125 13.0625 64.515625 
Q 19.53125 74.21875 31.78125 74.21875 
z
" id="DejaVuSans-48"/>
       </defs>
       <use xlink:href="#DejaVuSans-52"/>
       <use x="63.623047" xlink:href="#DejaVuSans-48"/>
      </g>
     </g>
    </g>
    <g id="xtick_2">
     <g id="line2d_2">
      <g>
       <use style="stroke:#000000;stroke-width:0.8;" x="59.873684" xlink:href="#m05a2933520" y="14.4"/>
      </g>
     </g>
     <g id="text_2">
      <!-- 80 -->
      <g transform="translate(53.511184 5.320313)scale(0.1 -0.1)">
       <defs>
        <path d="M 31.78125 34.625 
Q 24.75 34.625 20.71875 30.859375 
Q 16.703125 27.09375 16.703125 20.515625 
Q 16.703125 13.921875 20.71875 10.15625 
Q 24.75 6.390625 31.78125 6.390625 
Q 38.8125 6.390625 42.859375 10.171875 
Q 46.921875 13.96875 46.921875 20.515625 
Q 46.921875 27.09375 42.890625 30.859375 
Q 38.875 34.625 31.78125 34.625 
z
M 21.921875 38.8125 
Q 15.578125 40.375 12.03125 44.71875 
Q 8.5 49.078125 8.5 55.328125 
Q 8.5 64.0625 14.71875 69.140625 
Q 20.953125 74.21875 31.78125 74.21875 
Q 42.671875 74.21875 48.875 69.140625 
Q 55.078125 64.0625 55.078125 55.328125 
Q 55.078125 49.078125 51.53125 44.71875 
Q 48 40.375 41.703125 38.8125 
Q 48.828125 37.15625 52.796875 32.3125 
Q 56.78125 27.484375 56.78125 20.515625 
Q 56.78125 9.90625 50.3125 4.234375 
Q 43.84375 -1.421875 31.78125 -1.421875 
Q 19.734375 -1.421875 13.25 4.234375 
Q 6.78125 9.90625 6.78125 20.515625 
Q 6.78125 27.484375 10.78125 32.3125 
Q 14.796875 37.15625 21.921875 38.8125 
z
M 18.3125 54.390625 
Q 18.3125 48.734375 21.84375 45.5625 
Q 25.390625 42.390625 31.78125 42.390625 
Q 38.140625 42.390625 41.71875 45.5625 
Q 45.3125 48.734375 45.3125 54.390625 
Q 45.3125 60.0625 41.71875 63.234375 
Q 38.140625 66.40625 31.78125 66.40625 
Q 25.390625 66.40625 21.84375 63.234375 
Q 18.3125 60.0625 18.3125 54.390625 
z
" id="DejaVuSans-56"/>
       </defs>
       <use xlink:href="#DejaVuSans-56"/>
       <use x="63.623047" xlink:href="#DejaVuSans-48"/>
      </g>
     </g>
    </g>
    <g id="xtick_3">
     <g id="line2d_3">
      <g>
       <use style="stroke:#000000;stroke-width:0.8;" x="85.858647" xlink:href="#m05a2933520" y="14.4"/>
      </g>
     </g>
     <g id="text_3">
      <!-- 120 -->
      <g transform="translate(76.314897 5.320313)scale(0.1 -0.1)">
       <defs>
        <path d="M 12.40625 8.296875 
L 28.515625 8.296875 
L 28.515625 63.921875 
L 10.984375 60.40625 
L 10.984375 69.390625 
L 28.421875 72.90625 
L 38.28125 72.90625 
L 38.28125 8.296875 
L 54.390625 8.296875 
L 54.390625 0 
L 12.40625 0 
z
" id="DejaVuSans-49"/>
        <path d="M 19.1875 8.296875 
L 53.609375 8.296875 
L 53.609375 0 
L 7.328125 0 
L 7.328125 8.296875 
Q 12.9375 14.109375 22.625 23.890625 
Q 32.328125 33.6875 34.8125 36.53125 
Q 39.546875 41.84375 41.421875 45.53125 
Q 43.3125 49.21875 43.3125 52.78125 
Q 43.3125 58.59375 39.234375 62.25 
Q 35.15625 65.921875 28.609375 65.921875 
Q 23.96875 65.921875 18.8125 64.3125 
Q 13.671875 62.703125 7.8125 59.421875 
L 7.8125 69.390625 
Q 13.765625 71.78125 18.9375 73 
Q 24.125 74.21875 28.421875 74.21875 
Q 39.75 74.21875 46.484375 68.546875 
Q 53.21875 62.890625 53.21875 53.421875 
Q 53.21875 48.921875 51.53125 44.890625 
Q 49.859375 40.875 45.40625 35.40625 
Q 44.1875 33.984375 37.640625 27.21875 
Q 31.109375 20.453125 19.1875 8.296875 
z
" id="DejaVuSans-50"/>
       </defs>
       <use xlink:href="#DejaVuSans-49"/>
       <use x="63.623047" xlink:href="#DejaVuSans-50"/>
       <use x="127.246094" xlink:href="#DejaVuSans-48"/>
      </g>
     </g>
    </g>
    <g id="xtick_4">
     <g id="line2d_4">
      <g>
       <use style="stroke:#000000;stroke-width:0.8;" x="111.843609" xlink:href="#m05a2933520" y="14.4"/>
      </g>
     </g>
     <g id="text_4">
      <!-- 160 -->
      <g transform="translate(102.299859 5.320313)scale(0.1 -0.1)">
       <defs>
        <path d="M 33.015625 40.375 
Q 26.375 40.375 22.484375 35.828125 
Q 18.609375 31.296875 18.609375 23.390625 
Q 18.609375 15.53125 22.484375 10.953125 
Q 26.375 6.390625 33.015625 6.390625 
Q 39.65625 6.390625 43.53125 10.953125 
Q 47.40625 15.53125 47.40625 23.390625 
Q 47.40625 31.296875 43.53125 35.828125 
Q 39.65625 40.375 33.015625 40.375 
z
M 52.59375 71.296875 
L 52.59375 62.3125 
Q 48.875 64.0625 45.09375 64.984375 
Q 41.3125 65.921875 37.59375 65.921875 
Q 27.828125 65.921875 22.671875 59.328125 
Q 17.53125 52.734375 16.796875 39.40625 
Q 19.671875 43.65625 24.015625 45.921875 
Q 28.375 48.1875 33.59375 48.1875 
Q 44.578125 48.1875 50.953125 41.515625 
Q 57.328125 34.859375 57.328125 23.390625 
Q 57.328125 12.15625 50.6875 5.359375 
Q 44.046875 -1.421875 33.015625 -1.421875 
Q 20.359375 -1.421875 13.671875 8.265625 
Q 6.984375 17.96875 6.984375 36.375 
Q 6.984375 53.65625 15.1875 63.9375 
Q 23.390625 74.21875 37.203125 74.21875 
Q 40.921875 74.21875 44.703125 73.484375 
Q 48.484375 72.75 52.59375 71.296875 
z
" id="DejaVuSans-54"/>
       </defs>
       <use xlink:href="#DejaVuSans-49"/>
       <use x="63.623047" xlink:href="#DejaVuSans-54"/>
       <use x="127.246094" xlink:href="#DejaVuSans-48"/>
      </g>
     </g>
    </g>
    <g id="text_5">
     <!-- max_depth -->
     <g transform="translate(48.166629 -6.278125)scale(0.1 -0.1)">
      <defs>
       <path d="M 52 44.1875 
Q 55.375 50.25 60.0625 53.125 
Q 64.75 56 71.09375 56 
Q 79.640625 56 84.28125 50.015625 
Q 88.921875 44.046875 88.921875 33.015625 
L 88.921875 0 
L 79.890625 0 
L 79.890625 32.71875 
Q 79.890625 40.578125 77.09375 44.375 
Q 74.3125 48.1875 68.609375 48.1875 
Q 61.625 48.1875 57.5625 43.546875 
Q 53.515625 38.921875 53.515625 30.90625 
L 53.515625 0 
L 44.484375 0 
L 44.484375 32.71875 
Q 44.484375 40.625 41.703125 44.40625 
Q 38.921875 48.1875 33.109375 48.1875 
Q 26.21875 48.1875 22.15625 43.53125 
Q 18.109375 38.875 18.109375 30.90625 
L 18.109375 0 
L 9.078125 0 
L 9.078125 54.6875 
L 18.109375 54.6875 
L 18.109375 46.1875 
Q 21.1875 51.21875 25.484375 53.609375 
Q 29.78125 56 35.6875 56 
Q 41.65625 56 45.828125 52.96875 
Q 50 49.953125 52 44.1875 
z
" id="DejaVuSans-109"/>
       <path d="M 34.28125 27.484375 
Q 23.390625 27.484375 19.1875 25 
Q 14.984375 22.515625 14.984375 16.5 
Q 14.984375 11.71875 18.140625 8.90625 
Q 21.296875 6.109375 26.703125 6.109375 
Q 34.1875 6.109375 38.703125 11.40625 
Q 43.21875 16.703125 43.21875 25.484375 
L 43.21875 27.484375 
z
M 52.203125 31.203125 
L 52.203125 0 
L 43.21875 0 
L 43.21875 8.296875 
Q 40.140625 3.328125 35.546875 0.953125 
Q 30.953125 -1.421875 24.3125 -1.421875 
Q 15.921875 -1.421875 10.953125 3.296875 
Q 6 8.015625 6 15.921875 
Q 6 25.140625 12.171875 29.828125 
Q 18.359375 34.515625 30.609375 34.515625 
L 43.21875 34.515625 
L 43.21875 35.40625 
Q 43.21875 41.609375 39.140625 45 
Q 35.0625 48.390625 27.6875 48.390625 
Q 23 48.390625 18.546875 47.265625 
Q 14.109375 46.140625 10.015625 43.890625 
L 10.015625 52.203125 
Q 14.9375 54.109375 19.578125 55.046875 
Q 24.21875 56 28.609375 56 
Q 40.484375 56 46.34375 49.84375 
Q 52.203125 43.703125 52.203125 31.203125 
z
" id="DejaVuSans-97"/>
       <path d="M 54.890625 54.6875 
L 35.109375 28.078125 
L 55.90625 0 
L 45.3125 0 
L 29.390625 21.484375 
L 13.484375 0 
L 2.875 0 
L 24.125 28.609375 
L 4.6875 54.6875 
L 15.28125 54.6875 
L 29.78125 35.203125 
L 44.28125 54.6875 
z
" id="DejaVuSans-120"/>
       <path d="M 50.984375 -16.609375 
L 50.984375 -23.578125 
L -0.984375 -23.578125 
L -0.984375 -16.609375 
z
" id="DejaVuSans-95"/>
       <path d="M 45.40625 46.390625 
L 45.40625 75.984375 
L 54.390625 75.984375 
L 54.390625 0 
L 45.40625 0 
L 45.40625 8.203125 
Q 42.578125 3.328125 38.25 0.953125 
Q 33.9375 -1.421875 27.875 -1.421875 
Q 17.96875 -1.421875 11.734375 6.484375 
Q 5.515625 14.40625 5.515625 27.296875 
Q 5.515625 40.1875 11.734375 48.09375 
Q 17.96875 56 27.875 56 
Q 33.9375 56 38.25 53.625 
Q 42.578125 51.265625 45.40625 46.390625 
z
M 14.796875 27.296875 
Q 14.796875 17.390625 18.875 11.75 
Q 22.953125 6.109375 30.078125 6.109375 
Q 37.203125 6.109375 41.296875 11.75 
Q 45.40625 17.390625 45.40625 27.296875 
Q 45.40625 37.203125 41.296875 42.84375 
Q 37.203125 48.484375 30.078125 48.484375 
Q 22.953125 48.484375 18.875 42.84375 
Q 14.796875 37.203125 14.796875 27.296875 
z
" id="DejaVuSans-100"/>
       <path d="M 56.203125 29.59375 
L 56.203125 25.203125 
L 14.890625 25.203125 
Q 15.484375 15.921875 20.484375 11.0625 
Q 25.484375 6.203125 34.421875 6.203125 
Q 39.59375 6.203125 44.453125 7.46875 
Q 49.3125 8.734375 54.109375 11.28125 
L 54.109375 2.78125 
Q 49.265625 0.734375 44.1875 -0.34375 
Q 39.109375 -1.421875 33.890625 -1.421875 
Q 20.796875 -1.421875 13.15625 6.1875 
Q 5.515625 13.8125 5.515625 26.8125 
Q 5.515625 40.234375 12.765625 48.109375 
Q 20.015625 56 32.328125 56 
Q 43.359375 56 49.78125 48.890625 
Q 56.203125 41.796875 56.203125 29.59375 
z
M 47.21875 32.234375 
Q 47.125 39.59375 43.09375 43.984375 
Q 39.0625 48.390625 32.421875 48.390625 
Q 24.90625 48.390625 20.390625 44.140625 
Q 15.875 39.890625 15.1875 32.171875 
z
" id="DejaVuSans-101"/>
       <path d="M 18.109375 8.203125 
L 18.109375 -20.796875 
L 9.078125 -20.796875 
L 9.078125 54.6875 
L 18.109375 54.6875 
L 18.109375 46.390625 
Q 20.953125 51.265625 25.265625 53.625 
Q 29.59375 56 35.59375 56 
Q 45.5625 56 51.78125 48.09375 
Q 58.015625 40.1875 58.015625 27.296875 
Q 58.015625 14.40625 51.78125 6.484375 
Q 45.5625 -1.421875 35.59375 -1.421875 
Q 29.59375 -1.421875 25.265625 0.953125 
Q 20.953125 3.328125 18.109375 8.203125 
z
M 48.6875 27.296875 
Q 48.6875 37.203125 44.609375 42.84375 
Q 40.53125 48.484375 33.40625 48.484375 
Q 26.265625 48.484375 22.1875 42.84375 
Q 18.109375 37.203125 18.109375 27.296875 
Q 18.109375 17.390625 22.1875 11.75 
Q 26.265625 6.109375 33.40625 6.109375 
Q 40.53125 6.109375 44.609375 11.75 
Q 48.6875 17.390625 48.6875 27.296875 
z
" id="DejaVuSans-112"/>
       <path d="M 18.3125 70.21875 
L 18.3125 54.6875 
L 36.8125 54.6875 
L 36.8125 47.703125 
L 18.3125 47.703125 
L 18.3125 18.015625 
Q 18.3125 11.328125 20.140625 9.421875 
Q 21.96875 7.515625 27.59375 7.515625 
L 36.8125 7.515625 
L 36.8125 0 
L 27.59375 0 
Q 17.1875 0 13.234375 3.875 
Q 9.28125 7.765625 9.28125 18.015625 
L 9.28125 47.703125 
L 2.6875 47.703125 
L 2.6875 54.6875 
L 9.28125 54.6875 
L 9.28125 70.21875 
z
" id="DejaVuSans-116"/>
       <path d="M 54.890625 33.015625 
L 54.890625 0 
L 45.90625 0 
L 45.90625 32.71875 
Q 45.90625 40.484375 42.875 44.328125 
Q 39.84375 48.1875 33.796875 48.1875 
Q 26.515625 48.1875 22.3125 43.546875 
Q 18.109375 38.921875 18.109375 30.90625 
L 18.109375 0 
L 9.078125 0 
L 9.078125 75.984375 
L 18.109375 75.984375 
L 18.109375 46.1875 
Q 21.34375 51.125 25.703125 53.5625 
Q 30.078125 56 35.796875 56 
Q 45.21875 56 50.046875 50.171875 
Q 54.890625 44.34375 54.890625 33.015625 
z
" id="DejaVuSans-104"/>
      </defs>
      <use xlink:href="#DejaVuSans-109"/>
      <use x="97.412109" xlink:href="#DejaVuSans-97"/>
      <use x="158.691406" xlink:href="#DejaVuSans-120"/>
      <use x="217.871094" xlink:href="#DejaVuSans-95"/>
      <use x="267.871094" xlink:href="#DejaVuSans-100"/>
      <use x="331.347656" xlink:href="#DejaVuSans-101"/>
      <use x="392.871094" xlink:href="#DejaVuSans-112"/>
      <use x="456.347656" xlink:href="#DejaVuSans-116"/>
      <use x="495.556641" xlink:href="#DejaVuSans-104"/>
     </g>
    </g>
   </g>
   <g id="matplotlib.axis_2">
    <g id="ytick_1">
     <g id="line2d_5">
      <defs>
       <path d="M 0 0 
L -3.5 0 
" id="m7f4efd2984" style="stroke:#000000;stroke-width:0.8;"/>
      </defs>
      <g>
       <use style="stroke:#000000;stroke-width:0.8;" x="14.4" xlink:href="#m7f4efd2984" y="111.67788"/>
      </g>
     </g>
     <g id="line2d_6">
      <defs>
       <path d="M 0 0 
L 3.5 0 
" id="m5d986fa717" style="stroke:#000000;stroke-width:0.8;"/>
      </defs>
      <g>
       <use style="stroke:#000000;stroke-width:0.8;" x="137.828571" xlink:href="#m5d986fa717" y="111.67788"/>
      </g>
     </g>
     <g id="text_6">
      <!-- 0.0172 -->
      <g transform="translate(144.828571 115.477099)scale(0.1 -0.1)">
       <defs>
        <path d="M 10.6875 12.40625 
L 21 12.40625 
L 21 0 
L 10.6875 0 
z
" id="DejaVuSans-46"/>
        <path d="M 8.203125 72.90625 
L 55.078125 72.90625 
L 55.078125 68.703125 
L 28.609375 0 
L 18.3125 0 
L 43.21875 64.59375 
L 8.203125 64.59375 
z
" id="DejaVuSans-55"/>
       </defs>
       <use xlink:href="#DejaVuSans-48"/>
       <use x="63.623047" xlink:href="#DejaVuSans-46"/>
       <use x="95.410156" xlink:href="#DejaVuSans-48"/>
       <use x="159.033203" xlink:href="#DejaVuSans-49"/>
       <use x="222.65625" xlink:href="#DejaVuSans-55"/>
       <use x="286.279297" xlink:href="#DejaVuSans-50"/>
      </g>
     </g>
    </g>
    <g id="ytick_2">
     <g id="line2d_7">
      <g>
       <use style="stroke:#000000;stroke-width:0.8;" x="14.4" xlink:href="#m7f4efd2984" y="74.938013"/>
      </g>
     </g>
     <g id="line2d_8">
      <g>
       <use style="stroke:#000000;stroke-width:0.8;" x="137.828571" xlink:href="#m5d986fa717" y="74.938013"/>
      </g>
     </g>
     <g id="text_7">
      <!-- 0.0174 -->
      <g transform="translate(144.828571 78.737232)scale(0.1 -0.1)">
       <use xlink:href="#DejaVuSans-48"/>
       <use x="63.623047" xlink:href="#DejaVuSans-46"/>
       <use x="95.410156" xlink:href="#DejaVuSans-48"/>
       <use x="159.033203" xlink:href="#DejaVuSans-49"/>
       <use x="222.65625" xlink:href="#DejaVuSans-55"/>
       <use x="286.279297" xlink:href="#DejaVuSans-52"/>
      </g>
     </g>
    </g>
    <g id="ytick_3">
     <g id="line2d_9">
      <g>
       <use style="stroke:#000000;stroke-width:0.8;" x="14.4" xlink:href="#m7f4efd2984" y="38.198147"/>
      </g>
     </g>
     <g id="line2d_10">
      <g>
       <use style="stroke:#000000;stroke-width:0.8;" x="137.828571" xlink:href="#m5d986fa717" y="38.198147"/>
      </g>
     </g>
     <g id="text_8">
      <!-- 0.0176 -->
      <g transform="translate(144.828571 41.997365)scale(0.1 -0.1)">
       <use xlink:href="#DejaVuSans-48"/>
       <use x="63.623047" xlink:href="#DejaVuSans-46"/>
       <use x="95.410156" xlink:href="#DejaVuSans-48"/>
       <use x="159.033203" xlink:href="#DejaVuSans-49"/>
       <use x="222.65625" xlink:href="#DejaVuSans-55"/>
       <use x="286.279297" xlink:href="#DejaVuSans-54"/>
      </g>
     </g>
    </g>
    <g id="text_9">
     <!-- Partial dependence -->
     <g transform="translate(191.417634 124.330692)rotate(-90)scale(0.1 -0.1)">
      <defs>
       <path d="M 19.671875 64.796875 
L 19.671875 37.40625 
L 32.078125 37.40625 
Q 38.96875 37.40625 42.71875 40.96875 
Q 46.484375 44.53125 46.484375 51.125 
Q 46.484375 57.671875 42.71875 61.234375 
Q 38.96875 64.796875 32.078125 64.796875 
z
M 9.8125 72.90625 
L 32.078125 72.90625 
Q 44.34375 72.90625 50.609375 67.359375 
Q 56.890625 61.8125 56.890625 51.125 
Q 56.890625 40.328125 50.609375 34.8125 
Q 44.34375 29.296875 32.078125 29.296875 
L 19.671875 29.296875 
L 19.671875 0 
L 9.8125 0 
z
" id="DejaVuSans-80"/>
       <path d="M 41.109375 46.296875 
Q 39.59375 47.171875 37.8125 47.578125 
Q 36.03125 48 33.890625 48 
Q 26.265625 48 22.1875 43.046875 
Q 18.109375 38.09375 18.109375 28.8125 
L 18.109375 0 
L 9.078125 0 
L 9.078125 54.6875 
L 18.109375 54.6875 
L 18.109375 46.1875 
Q 20.953125 51.171875 25.484375 53.578125 
Q 30.03125 56 36.53125 56 
Q 37.453125 56 38.578125 55.875 
Q 39.703125 55.765625 41.0625 55.515625 
z
" id="DejaVuSans-114"/>
       <path d="M 9.421875 54.6875 
L 18.40625 54.6875 
L 18.40625 0 
L 9.421875 0 
z
M 9.421875 75.984375 
L 18.40625 75.984375 
L 18.40625 64.59375 
L 9.421875 64.59375 
z
" id="DejaVuSans-105"/>
       <path d="M 9.421875 75.984375 
L 18.40625 75.984375 
L 18.40625 0 
L 9.421875 0 
z
" id="DejaVuSans-108"/>
       <path id="DejaVuSans-32"/>
       <path d="M 54.890625 33.015625 
L 54.890625 0 
L 45.90625 0 
L 45.90625 32.71875 
Q 45.90625 40.484375 42.875 44.328125 
Q 39.84375 48.1875 33.796875 48.1875 
Q 26.515625 48.1875 22.3125 43.546875 
Q 18.109375 38.921875 18.109375 30.90625 
L 18.109375 0 
L 9.078125 0 
L 9.078125 54.6875 
L 18.109375 54.6875 
L 18.109375 46.1875 
Q 21.34375 51.125 25.703125 53.5625 
Q 30.078125 56 35.796875 56 
Q 45.21875 56 50.046875 50.171875 
Q 54.890625 44.34375 54.890625 33.015625 
z
" id="DejaVuSans-110"/>
       <path d="M 48.78125 52.59375 
L 48.78125 44.1875 
Q 44.96875 46.296875 41.140625 47.34375 
Q 37.3125 48.390625 33.40625 48.390625 
Q 24.65625 48.390625 19.8125 42.84375 
Q 14.984375 37.3125 14.984375 27.296875 
Q 14.984375 17.28125 19.8125 11.734375 
Q 24.65625 6.203125 33.40625 6.203125 
Q 37.3125 6.203125 41.140625 7.25 
Q 44.96875 8.296875 48.78125 10.40625 
L 48.78125 2.09375 
Q 45.015625 0.34375 40.984375 -0.53125 
Q 36.96875 -1.421875 32.421875 -1.421875 
Q 20.0625 -1.421875 12.78125 6.34375 
Q 5.515625 14.109375 5.515625 27.296875 
Q 5.515625 40.671875 12.859375 48.328125 
Q 20.21875 56 33.015625 56 
Q 37.15625 56 41.109375 55.140625 
Q 45.0625 54.296875 48.78125 52.59375 
z
" id="DejaVuSans-99"/>
      </defs>
      <use xlink:href="#DejaVuSans-80"/>
      <use x="55.802734" xlink:href="#DejaVuSans-97"/>
      <use x="117.082031" xlink:href="#DejaVuSans-114"/>
      <use x="158.195312" xlink:href="#DejaVuSans-116"/>
      <use x="197.404297" xlink:href="#DejaVuSans-105"/>
      <use x="225.1875" xlink:href="#DejaVuSans-97"/>
      <use x="286.466797" xlink:href="#DejaVuSans-108"/>
      <use x="314.25" xlink:href="#DejaVuSans-32"/>
      <use x="346.037109" xlink:href="#DejaVuSans-100"/>
      <use x="409.513672" xlink:href="#DejaVuSans-101"/>
      <use x="471.037109" xlink:href="#DejaVuSans-112"/>
      <use x="534.513672" xlink:href="#DejaVuSans-101"/>
      <use x="596.037109" xlink:href="#DejaVuSans-110"/>
      <use x="659.416016" xlink:href="#DejaVuSans-100"/>
      <use x="722.892578" xlink:href="#DejaVuSans-101"/>
      <use x="784.416016" xlink:href="#DejaVuSans-110"/>
      <use x="847.794922" xlink:href="#DejaVuSans-99"/>
      <use x="902.775391" xlink:href="#DejaVuSans-101"/>
     </g>
    </g>
   </g>
   <g id="line2d_11">
    <path clip-path="url(#p08d4edd92c)" d="M 14.4 113.151188 
L 17.564835 113.920798 
L 20.72967 114.66155 
L 23.894505 115.369257 
L 27.059341 115.908898 
L 30.224176 116.547044 
L 33.389011 117.141363 
L 36.553846 117.688548 
L 39.718681 118.185665 
L 42.883516 118.630188 
L 46.048352 119.020029 
L 49.213187 119.353556 
L 52.378022 119.579027 
L 55.542857 119.808553 
L 58.707692 119.979676 
L 61.872527 120.09255 
L 65.037363 120.147793 
L 68.202198 120.146476 
L 71.367033 120.090109 
L 74.531868 119.980614 
L 77.696703 119.856311 
L 80.861538 119.657262 
L 84.026374 119.412443 
L 87.191209 119.125065 
L 90.356044 118.798571 
L 93.520879 118.43659 
L 96.685714 118.04288 
L 99.850549 117.621281 
L 103.015385 117.266521 
L 106.18022 116.804444 
L 109.345055 116.325173 
L 112.50989 115.832322 
L 115.674725 115.329309 
L 118.83956 114.81931 
L 122.004396 114.305235 
L 125.169231 113.789711 
L 128.334066 113.377836 
L 131.498901 112.865452 
L 134.663736 112.357557 
L 137.828571 111.855829 
" style="fill:none;stroke:#0072b2;stroke-linecap:square;stroke-width:1.5;"/>
   </g>
   <g id="line2d_12">
    <path clip-path="url(#p08d4edd92c)" d="M 78.712782 137.828571 
L 78.712782 14.4 
" style="fill:none;stroke:#ff0000;stroke-dasharray:3.7,1.6;stroke-dashoffset:0;"/>
   </g>
   <g id="patch_3">
    <path d="M 14.4 137.828571 
L 14.4 14.4 
" style="fill:none;stroke:#000000;stroke-linecap:square;stroke-linejoin:miter;stroke-width:0.8;"/>
   </g>
   <g id="patch_4">
    <path d="M 137.828571 137.828571 
L 137.828571 14.4 
" style="fill:none;stroke:#000000;stroke-linecap:square;stroke-linejoin:miter;stroke-width:0.8;"/>
   </g>
   <g id="patch_5">
    <path d="M 14.4 137.828571 
L 137.828571 137.828571 
" style="fill:none;stroke:#000000;stroke-linecap:square;stroke-linejoin:miter;stroke-width:0.8;"/>
   </g>
   <g id="patch_6">
    <path d="M 14.4 14.4 
L 137.828571 14.4 
" style="fill:none;stroke:#000000;stroke-linecap:square;stroke-linejoin:miter;stroke-width:0.8;"/>
   </g>
  </g>
  <g id="axes_2"/>
  <g id="axes_3">
   <g id="patch_7">
    <path d="M 14.4 273.6 
L 137.828571 273.6 
L 137.828571 150.171429 
L 14.4 150.171429 
z
" style="fill:none;"/>
   </g>
   <g id="PathCollection_1">
    <path clip-path="url(#p780fe36024)" d="M 55.542857 242.04249 
L 58.707692 242.524474 
L 61.872527 242.976752 
L 65.037363 243.399846 
L 68.202198 243.793585 
L 71.367033 244.156446 
L 74.531868 244.484395 
L 77.696703 244.715798 
L 80.861538 244.950262 
L 84.026374 245.078823 
L 87.191209 244.94447 
L 90.356044 243.566224 
L 91.211294 241.951648 
L 90.356044 241.879523 
L 87.191209 241.63134 
L 84.026374 241.404475 
L 80.861538 241.205557 
L 77.696703 241.042265 
L 74.531868 240.943171 
L 71.367033 240.867288 
L 68.202198 240.856186 
L 65.037363 240.925136 
L 61.872527 241.093907 
L 58.707692 241.388957 
L 55.542857 241.84707 
L 55.016514 241.951648 
z
" style="fill:#e2e418;"/>
    <path clip-path="url(#p780fe36024)" d="M 61.872527 175.775581 
L 65.037363 176.074811 
L 68.202198 176.360942 
L 71.367033 176.631635 
L 74.531868 176.883841 
L 77.696703 177.069675 
L 80.861538 177.277876 
L 84.026374 177.453377 
L 87.191209 177.588081 
L 90.356044 177.671612 
L 93.520879 177.690845 
L 96.685714 177.62951 
L 99.850549 177.468035 
L 103.015385 177.251669 
L 106.18022 176.851715 
L 109.345055 176.284947 
L 112.50989 175.529565 
L 112.650947 175.49011 
L 112.50989 175.459629 
L 109.345055 174.794168 
L 106.18022 174.117572 
L 103.015385 173.414389 
L 99.850549 172.819707 
L 97.845256 172.325275 
L 96.685714 172.223657 
L 93.520879 171.969866 
L 90.356044 171.743137 
L 87.191209 171.544936 
L 84.026374 171.376955 
L 80.861538 171.241118 
L 77.696703 171.139621 
L 74.531868 171.084847 
L 71.367033 171.05189 
L 68.202198 171.061662 
L 65.037363 171.118384 
L 61.872527 171.227249 
L 58.707692 171.394722 
L 55.542857 171.628941 
L 52.378022 171.940273 
L 49.213187 172.253711 
L 48.730937 172.325275 
L 49.213187 172.448746 
L 52.378022 173.107148 
L 55.542857 174.092576 
L 58.707692 175.370008 
L 58.97873 175.49011 
z
" style="fill:#e2e418;"/>
    <path clip-path="url(#p780fe36024)" d="M 71.367033 153.509053 
L 74.531868 153.665111 
L 77.696703 153.773181 
L 80.861538 153.888547 
L 84.026374 153.983387 
L 87.191209 154.059183 
L 90.356044 154.117393 
L 93.520879 154.159445 
L 96.685714 154.186727 
L 99.850549 154.200569 
L 103.015385 154.202821 
L 106.18022 154.195617 
L 109.345055 154.178326 
L 112.50989 154.151985 
L 115.674725 154.117529 
L 118.83956 154.07579 
L 122.004396 154.027491 
L 125.169231 153.97324 
L 128.334066 153.925888 
L 131.498901 153.862086 
L 134.663736 153.79343 
L 137.828571 153.72012 
L 137.828571 153.336264 
L 137.828571 150.171429 
L 134.663736 150.171429 
L 131.498901 150.171429 
L 128.334066 150.171429 
L 125.169231 150.171429 
L 122.004396 150.171429 
L 118.83956 150.171429 
L 115.674725 150.171429 
L 112.50989 150.171429 
L 109.345055 150.171429 
L 106.18022 150.171429 
L 103.015385 150.171429 
L 99.850549 150.171429 
L 96.685714 150.171429 
L 93.520879 150.171429 
L 90.356044 150.171429 
L 87.191209 150.171429 
L 84.026374 150.171429 
L 80.861538 150.171429 
L 77.696703 150.171429 
L 74.531868 150.171429 
L 71.367033 150.171429 
L 68.202198 150.171429 
L 65.037363 150.171429 
L 61.872527 150.171429 
L 58.707692 150.171429 
L 55.542857 150.171429 
L 52.378022 150.171429 
L 49.213187 150.171429 
L 46.048352 150.171429 
L 42.883516 150.171429 
L 40.438394 150.171429 
L 42.883516 150.560953 
L 46.048352 151.032897 
L 49.213187 151.471175 
L 52.378022 151.796852 
L 55.542857 152.172288 
L 58.707692 152.512462 
L 61.872527 152.817738 
L 65.037363 153.088911 
L 68.202198 153.32714 
L 68.341438 153.336264 
z
" style="fill:#e2e418;"/>
   </g>
   <g id="PathCollection_2">
    <path clip-path="url(#p780fe36024)" d="M 58.707692 261.22626 
L 61.872527 261.584182 
L 65.037363 261.804729 
L 68.202198 261.927381 
L 71.367033 261.978551 
L 74.531868 261.976593 
L 77.696703 261.945734 
L 80.861538 261.87888 
L 84.026374 261.787632 
L 87.191209 261.677801 
L 90.356044 261.553857 
L 93.520879 261.419277 
L 96.685714 261.276788 
L 99.850549 261.12854 
L 103.015385 261.006948 
L 104.333921 260.940659 
L 106.18022 260.705515 
L 109.345055 260.299527 
L 112.50989 259.903822 
L 115.674725 259.519344 
L 118.83956 259.146548 
L 122.004396 258.7855 
L 125.169231 258.435965 
L 128.334066 258.164325 
L 131.498901 257.834265 
L 132.05858 257.775824 
L 134.663736 257.476411 
L 137.828571 257.128656 
L 137.828571 254.610989 
L 137.828571 251.446154 
L 137.828571 248.281319 
L 137.828571 245.116484 
L 137.828571 241.951648 
L 137.828571 238.786813 
L 137.828571 235.621978 
L 137.828571 232.457143 
L 137.828571 229.292308 
L 137.828571 226.127473 
L 137.828571 222.962637 
L 137.828571 219.797802 
L 137.828571 216.632967 
L 137.828571 213.468132 
L 137.828571 210.303297 
L 137.828571 207.138462 
L 137.828571 203.973626 
L 137.828571 200.808791 
L 137.828571 197.643956 
L 137.828571 194.479121 
L 137.828571 191.314286 
L 137.828571 188.149451 
L 137.828571 184.984615 
L 137.828571 181.81978 
L 137.828571 178.654945 
L 137.828571 175.49011 
L 137.828571 172.325275 
L 137.828571 169.16044 
L 137.828571 165.995604 
L 137.828571 162.830769 
L 137.828571 159.665934 
L 137.828571 156.501099 
L 137.828571 153.72012 
L 134.663736 153.79343 
L 131.498901 153.862086 
L 128.334066 153.925888 
L 125.169231 153.97324 
L 122.004396 154.027491 
L 118.83956 154.07579 
L 115.674725 154.117529 
L 112.50989 154.151985 
L 109.345055 154.178326 
L 106.18022 154.195617 
L 103.015385 154.202821 
L 99.850549 154.200569 
L 96.685714 154.186727 
L 93.520879 154.159445 
L 90.356044 154.117393 
L 87.191209 154.059183 
L 84.026374 153.983387 
L 80.861538 153.888547 
L 77.696703 153.773181 
L 74.531868 153.665111 
L 71.367033 153.509053 
L 68.341438 153.336264 
L 68.202198 153.32714 
L 65.037363 153.088911 
L 61.872527 152.817738 
L 58.707692 152.512462 
L 55.542857 152.172288 
L 52.378022 151.796852 
L 49.213187 151.471175 
L 46.048352 151.032897 
L 42.883516 150.560953 
L 40.438394 150.171429 
L 39.718681 150.171429 
L 36.553846 150.171429 
L 33.389011 150.171429 
L 30.224176 150.171429 
L 27.059341 150.171429 
L 23.894505 150.171429 
L 20.72967 150.171429 
L 17.564835 150.171429 
L 14.4 150.171429 
L 14.4 153.336264 
L 14.4 156.501099 
L 14.4 159.665934 
L 14.4 162.830769 
L 14.4 165.995604 
L 14.4 169.16044 
L 14.4 172.325275 
L 14.4 175.49011 
L 14.4 178.654945 
L 14.4 178.749007 
L 17.564835 179.728717 
L 20.72967 180.641068 
L 23.894505 181.494774 
L 25.466509 181.81978 
L 23.894505 182.543087 
L 20.72967 184.073344 
L 18.449206 184.984615 
L 17.564835 185.096566 
L 14.4 185.489875 
L 14.4 188.149451 
L 14.4 191.314286 
L 14.4 194.479121 
L 14.4 197.643956 
L 14.4 200.808791 
L 14.4 203.973626 
L 14.4 207.138462 
L 14.4 210.303297 
L 14.4 213.468132 
L 14.4 216.632967 
L 14.4 219.797802 
L 14.4 222.962637 
L 14.4 226.127473 
L 14.4 229.292308 
L 14.4 232.457143 
L 14.4 235.621978 
L 14.4 238.786813 
L 14.4 241.951648 
L 14.4 245.116484 
L 14.4 246.151812 
L 17.564835 246.778814 
L 20.72967 247.409545 
L 23.894505 248.044954 
L 25.365772 248.281319 
L 27.059341 248.554922 
L 30.224176 249.201457 
L 33.389011 249.865854 
L 36.553846 250.552163 
L 39.718681 251.265051 
L 40.511918 251.446154 
L 42.883516 252.280608 
L 46.048352 253.445613 
L 49.047089 254.610989 
L 49.213187 254.758912 
L 52.378022 256.873843 
L 53.5618 257.775824 
L 55.542857 259.866434 
L 56.963702 260.940659 
z
M 55.016514 241.951648 
L 55.542857 241.84707 
L 58.707692 241.388957 
L 61.872527 241.093907 
L 65.037363 240.925136 
L 68.202198 240.856186 
L 71.367033 240.867288 
L 74.531868 240.943171 
L 77.696703 241.042265 
L 80.861538 241.205557 
L 84.026374 241.404475 
L 87.191209 241.63134 
L 90.356044 241.879523 
L 91.211294 241.951648 
L 90.356044 243.566224 
L 87.191209 244.94447 
L 84.026374 245.078823 
L 80.861538 244.950262 
L 77.696703 244.715798 
L 74.531868 244.484395 
L 71.367033 244.156446 
L 68.202198 243.793585 
L 65.037363 243.399846 
L 61.872527 242.976752 
L 58.707692 242.524474 
L 55.542857 242.04249 
z
M 58.97873 175.49011 
L 58.707692 175.370008 
L 55.542857 174.092576 
L 52.378022 173.107148 
L 49.213187 172.448746 
L 48.730937 172.325275 
L 49.213187 172.253711 
L 52.378022 171.940273 
L 55.542857 171.628941 
L 58.707692 171.394722 
L 61.872527 171.227249 
L 65.037363 171.118384 
L 68.202198 171.061662 
L 71.367033 171.05189 
L 74.531868 171.084847 
L 77.696703 171.139621 
L 80.861538 171.241118 
L 84.026374 171.376955 
L 87.191209 171.544936 
L 90.356044 171.743137 
L 93.520879 171.969866 
L 96.685714 172.223657 
L 97.845256 172.325275 
L 99.850549 172.819707 
L 103.015385 173.414389 
L 106.18022 174.117572 
L 109.345055 174.794168 
L 112.50989 175.459629 
L 112.650947 175.49011 
L 112.50989 175.529565 
L 109.345055 176.284947 
L 106.18022 176.851715 
L 103.015385 177.251669 
L 99.850549 177.468035 
L 96.685714 177.62951 
L 93.520879 177.690845 
L 90.356044 177.671612 
L 87.191209 177.588081 
L 84.026374 177.453377 
L 80.861538 177.277876 
L 77.696703 177.069675 
L 74.531868 176.883841 
L 71.367033 176.631635 
L 68.202198 176.360942 
L 65.037363 176.074811 
L 61.872527 175.775581 
z
" style="fill:#a5db36;"/>
   </g>
   <g id="PathCollection_3">
    <path clip-path="url(#p780fe36024)" d="M 17.564835 268.415945 
L 20.72967 268.435 
L 23.894505 268.417126 
L 27.059341 268.382028 
L 30.224176 268.317319 
L 33.389011 268.233678 
L 36.553846 268.134522 
L 39.718681 268.022455 
L 42.883516 267.899511 
L 46.048352 267.767312 
L 49.213187 267.627182 
L 52.378022 267.510116 
L 55.542857 267.358384 
L 57.271969 267.27033 
L 58.707692 267.155531 
L 61.872527 266.897903 
L 65.037363 266.647896 
L 68.202198 266.404616 
L 71.367033 266.167406 
L 74.531868 265.935776 
L 77.696703 265.754233 
L 80.861538 265.531751 
L 84.026374 265.313974 
L 87.191209 265.100687 
L 90.356044 264.891694 
L 93.520879 264.686812 
L 96.685714 264.485861 
L 99.850549 264.288667 
L 103.015385 264.133505 
L 103.466876 264.105495 
L 106.18022 263.843395 
L 109.345055 263.550559 
L 112.50989 263.271574 
L 115.674725 263.005303 
L 118.83956 262.750702 
L 122.004396 262.50681 
L 125.169231 262.272733 
L 128.334066 262.091975 
L 131.498901 261.873499 
L 134.663736 261.662644 
L 137.828571 261.458733 
L 137.828571 260.940659 
L 137.828571 257.775824 
L 137.828571 257.128656 
L 134.663736 257.476411 
L 132.05858 257.775824 
L 131.498901 257.834265 
L 128.334066 258.164325 
L 125.169231 258.435965 
L 122.004396 258.7855 
L 118.83956 259.146548 
L 115.674725 259.519344 
L 112.50989 259.903822 
L 109.345055 260.299527 
L 106.18022 260.705515 
L 104.333921 260.940659 
L 103.015385 261.006948 
L 99.850549 261.12854 
L 96.685714 261.276788 
L 93.520879 261.419277 
L 90.356044 261.553857 
L 87.191209 261.677801 
L 84.026374 261.787632 
L 80.861538 261.87888 
L 77.696703 261.945734 
L 74.531868 261.976593 
L 71.367033 261.978551 
L 68.202198 261.927381 
L 65.037363 261.804729 
L 61.872527 261.584182 
L 58.707692 261.22626 
L 56.963702 260.940659 
L 55.542857 259.866434 
L 53.5618 257.775824 
L 52.378022 256.873843 
L 49.213187 254.758912 
L 49.047089 254.610989 
L 46.048352 253.445613 
L 42.883516 252.280608 
L 40.511918 251.446154 
L 39.718681 251.265051 
L 36.553846 250.552163 
L 33.389011 249.865854 
L 30.224176 249.201457 
L 27.059341 248.554922 
L 25.365772 248.281319 
L 23.894505 248.044954 
L 20.72967 247.409545 
L 17.564835 246.778814 
L 14.4 246.151812 
L 14.4 248.281319 
L 14.4 251.446154 
L 14.4 254.610989 
L 14.4 255.490185 
L 16.669254 257.775824 
L 15.111917 260.940659 
L 14.4 261.379409 
L 14.4 264.105495 
L 14.4 267.27033 
L 14.4 268.347443 
z
" style="fill:#69cd5b;"/>
    <path clip-path="url(#p780fe36024)" d="M 17.564835 185.096566 
L 18.449206 184.984615 
L 20.72967 184.073344 
L 23.894505 182.543087 
L 25.466509 181.81978 
L 23.894505 181.494774 
L 20.72967 180.641068 
L 17.564835 179.728717 
L 14.4 178.749007 
L 14.4 181.81978 
L 14.4 184.984615 
L 14.4 185.489875 
z
" style="fill:#69cd5b;"/>
   </g>
   <g id="PathCollection_4">
    <path clip-path="url(#p780fe36024)" d="M 17.564835 273.37563 
L 20.72967 273.050828 
L 23.894505 272.74142 
L 27.059341 272.502985 
L 30.224176 272.214235 
L 33.389011 271.933889 
L 36.553846 271.660215 
L 39.718681 271.391764 
L 42.883516 271.127319 
L 46.048352 270.86586 
L 49.213187 270.606526 
L 51.824945 270.435165 
L 52.378022 270.38948 
L 55.542857 270.062577 
L 58.707692 269.749645 
L 61.872527 269.448849 
L 65.037363 269.158728 
L 68.202198 268.878119 
L 71.367033 268.606099 
L 74.531868 268.341926 
L 77.696703 268.135826 
L 80.861538 267.884315 
L 84.026374 267.639179 
L 87.191209 267.400016 
L 88.923072 267.27033 
L 90.356044 267.129855 
L 93.520879 266.827528 
L 96.685714 266.539831 
L 99.850549 266.265373 
L 103.015385 266.054521 
L 106.18022 265.800943 
L 109.345055 265.557567 
L 112.50989 265.323534 
L 115.674725 265.098075 
L 118.83956 264.880493 
L 122.004396 264.670157 
L 125.169231 264.46649 
L 128.334066 264.308005 
L 131.498901 264.115051 
L 131.658126 264.105495 
L 134.663736 263.852455 
L 137.828571 263.598896 
L 137.828571 261.458733 
L 134.663736 261.662644 
L 131.498901 261.873499 
L 128.334066 262.091975 
L 125.169231 262.272733 
L 122.004396 262.50681 
L 118.83956 262.750702 
L 115.674725 263.005303 
L 112.50989 263.271574 
L 109.345055 263.550559 
L 106.18022 263.843395 
L 103.466876 264.105495 
L 103.015385 264.133505 
L 99.850549 264.288667 
L 96.685714 264.485861 
L 93.520879 264.686812 
L 90.356044 264.891694 
L 87.191209 265.100687 
L 84.026374 265.313974 
L 80.861538 265.531751 
L 77.696703 265.754233 
L 74.531868 265.935776 
L 71.367033 266.167406 
L 68.202198 266.404616 
L 65.037363 266.647896 
L 61.872527 266.897903 
L 58.707692 267.155531 
L 57.271969 267.27033 
L 55.542857 267.358384 
L 52.378022 267.510116 
L 49.213187 267.627182 
L 46.048352 267.767312 
L 42.883516 267.899511 
L 39.718681 268.022455 
L 36.553846 268.134522 
L 33.389011 268.233678 
L 30.224176 268.317319 
L 27.059341 268.382028 
L 23.894505 268.417126 
L 20.72967 268.435 
L 17.564835 268.415945 
L 14.4 268.347443 
L 14.4 270.435165 
L 14.4 273.6 
L 15.446294 273.6 
z
" style="fill:#3bbb75;"/>
    <path clip-path="url(#p780fe36024)" d="M 15.111917 260.940659 
L 16.669254 257.775824 
L 14.4 255.490185 
L 14.4 257.775824 
L 14.4 260.940659 
L 14.4 261.379409 
z
" style="fill:#3bbb75;"/>
   </g>
   <g id="PathCollection_5">
    <path clip-path="url(#p780fe36024)" d="M 17.564835 273.6 
L 20.72967 273.6 
L 23.894505 273.6 
L 27.059341 273.6 
L 30.224176 273.6 
L 33.389011 273.6 
L 36.553846 273.6 
L 39.718681 273.6 
L 42.883516 273.6 
L 43.175286 273.6 
L 46.048352 273.258436 
L 49.213187 272.893652 
L 52.378022 272.61002 
L 55.542857 272.264357 
L 58.707692 271.927264 
L 61.872527 271.597562 
L 65.037363 271.274273 
L 68.202198 270.9566 
L 71.367033 270.64392 
L 73.491594 270.435165 
L 74.531868 270.32195 
L 77.696703 270.049672 
L 80.861538 269.722837 
L 84.026374 269.409872 
L 87.191209 269.109693 
L 90.356044 268.821334 
L 93.520879 268.543931 
L 96.685714 268.276693 
L 99.850549 268.018898 
L 103.015385 267.819009 
L 106.18022 267.576553 
L 109.345055 267.341779 
L 110.326956 267.27033 
L 112.50989 267.076393 
L 115.674725 266.806937 
L 118.83956 266.550447 
L 122.004396 266.305833 
L 125.169231 266.072118 
L 128.334066 265.892401 
L 131.498901 265.676154 
L 134.663736 265.468566 
L 137.828571 265.268985 
L 137.828571 264.105495 
L 137.828571 263.598896 
L 134.663736 263.852455 
L 131.658126 264.105495 
L 131.498901 264.115051 
L 128.334066 264.308005 
L 125.169231 264.46649 
L 122.004396 264.670157 
L 118.83956 264.880493 
L 115.674725 265.098075 
L 112.50989 265.323534 
L 109.345055 265.557567 
L 106.18022 265.800943 
L 103.015385 266.054521 
L 99.850549 266.265373 
L 96.685714 266.539831 
L 93.520879 266.827528 
L 90.356044 267.129855 
L 88.923072 267.27033 
L 87.191209 267.400016 
L 84.026374 267.639179 
L 80.861538 267.884315 
L 77.696703 268.135826 
L 74.531868 268.341926 
L 71.367033 268.606099 
L 68.202198 268.878119 
L 65.037363 269.158728 
L 61.872527 269.448849 
L 58.707692 269.749645 
L 55.542857 270.062577 
L 52.378022 270.38948 
L 51.824945 270.435165 
L 49.213187 270.606526 
L 46.048352 270.86586 
L 42.883516 271.127319 
L 39.718681 271.391764 
L 36.553846 271.660215 
L 33.389011 271.933889 
L 30.224176 272.214235 
L 27.059341 272.502985 
L 23.894505 272.74142 
L 20.72967 273.050828 
L 17.564835 273.37563 
L 15.446294 273.6 
z
" style="fill:#21a685;"/>
   </g>
   <g id="PathCollection_6">
    <path clip-path="url(#p780fe36024)" d="M 46.048352 273.6 
L 49.213187 273.6 
L 52.378022 273.6 
L 55.542857 273.6 
L 58.707692 273.6 
L 61.595497 273.6 
L 61.872527 273.565912 
L 65.037363 273.17645 
L 68.202198 272.798718 
L 71.367033 272.431568 
L 74.531868 272.074069 
L 77.696703 271.794518 
L 80.861538 271.452655 
L 84.026374 271.118798 
L 87.191209 270.792618 
L 90.356044 270.473871 
L 90.743447 270.435165 
L 93.520879 270.149675 
L 96.685714 269.838526 
L 99.850549 269.541615 
L 103.015385 269.313635 
L 106.18022 269.039784 
L 109.345055 268.777463 
L 112.50989 268.525843 
L 115.674725 268.284162 
L 118.83956 268.05172 
L 122.004396 267.827876 
L 125.169231 267.612049 
L 128.334066 267.444806 
L 131.056332 267.27033 
L 131.498901 267.237257 
L 134.663736 267.009723 
L 137.828571 266.793295 
L 137.828571 265.268985 
L 134.663736 265.468566 
L 131.498901 265.676154 
L 128.334066 265.892401 
L 125.169231 266.072118 
L 122.004396 266.305833 
L 118.83956 266.550447 
L 115.674725 266.806937 
L 112.50989 267.076393 
L 110.326956 267.27033 
L 109.345055 267.341779 
L 106.18022 267.576553 
L 103.015385 267.819009 
L 99.850549 268.018898 
L 96.685714 268.276693 
L 93.520879 268.543931 
L 90.356044 268.821334 
L 87.191209 269.109693 
L 84.026374 269.409872 
L 80.861538 269.722837 
L 77.696703 270.049672 
L 74.531868 270.32195 
L 73.491594 270.435165 
L 71.367033 270.64392 
L 68.202198 270.9566 
L 65.037363 271.274273 
L 61.872527 271.597562 
L 58.707692 271.927264 
L 55.542857 272.264357 
L 52.378022 272.61002 
L 49.213187 272.893652 
L 46.048352 273.258436 
L 43.175286 273.6 
z
" style="fill:#21908d;"/>
   </g>
   <g id="PathCollection_7">
    <path clip-path="url(#p780fe36024)" d="M 61.872527 273.6 
L 65.037363 273.6 
L 68.202198 273.6 
L 71.367033 273.6 
L 74.531868 273.6 
L 76.646617 273.6 
L 77.696703 273.496738 
L 80.861538 273.113716 
L 84.026374 272.742763 
L 87.191209 272.383254 
L 90.356044 272.034688 
L 93.520879 271.696662 
L 96.685714 271.368842 
L 99.850549 271.050941 
L 103.015385 270.803584 
L 106.18022 270.502878 
L 106.910296 270.435165 
L 109.345055 270.213147 
L 112.50989 269.937548 
L 115.674725 269.675204 
L 118.83956 269.425182 
L 122.004396 269.186629 
L 125.169231 268.958769 
L 128.334066 268.783707 
L 131.498901 268.573377 
L 134.663736 268.371955 
L 137.828571 268.178933 
L 137.828571 267.27033 
L 137.828571 266.793295 
L 134.663736 267.009723 
L 131.498901 267.237257 
L 131.056332 267.27033 
L 128.334066 267.444806 
L 125.169231 267.612049 
L 122.004396 267.827876 
L 118.83956 268.05172 
L 115.674725 268.284162 
L 112.50989 268.525843 
L 109.345055 268.777463 
L 106.18022 269.039784 
L 103.015385 269.313635 
L 99.850549 269.541615 
L 96.685714 269.838526 
L 93.520879 270.149675 
L 90.743447 270.435165 
L 90.356044 270.473871 
L 87.191209 270.792618 
L 84.026374 271.118798 
L 80.861538 271.452655 
L 77.696703 271.794518 
L 74.531868 272.074069 
L 71.367033 272.431568 
L 68.202198 272.798718 
L 65.037363 273.17645 
L 61.872527 273.565912 
L 61.595497 273.6 
z
" style="fill:#297a8e;"/>
   </g>
   <g id="PathCollection_8">
    <path clip-path="url(#p780fe36024)" d="M 77.696703 273.6 
L 80.861538 273.6 
L 84.026374 273.6 
L 87.191209 273.6 
L 90.317728 273.6 
L 90.356044 273.595504 
L 93.520879 273.230942 
L 96.685714 272.879676 
L 99.850549 272.541249 
L 103.015385 272.279475 
L 106.18022 271.963145 
L 109.345055 271.658564 
L 112.50989 271.365357 
L 115.674725 271.083147 
L 118.83956 270.811554 
L 122.004396 270.550213 
L 123.45147 270.435165 
L 125.169231 270.30549 
L 128.334066 270.122609 
L 131.498901 269.904627 
L 134.663736 269.697774 
L 137.828571 269.501405 
L 137.828571 268.178933 
L 134.663736 268.371955 
L 131.498901 268.573377 
L 128.334066 268.783707 
L 125.169231 268.958769 
L 122.004396 269.186629 
L 118.83956 269.425182 
L 115.674725 269.675204 
L 112.50989 269.937548 
L 109.345055 270.213147 
L 106.910296 270.435165 
L 106.18022 270.502878 
L 103.015385 270.803584 
L 99.850549 271.050941 
L 96.685714 271.368842 
L 93.520879 271.696662 
L 90.356044 272.034688 
L 87.191209 272.383254 
L 84.026374 272.742763 
L 80.861538 273.113716 
L 77.696703 273.496738 
L 76.646617 273.6 
z
" style="fill:#32648e;"/>
   </g>
   <g id="PathCollection_9">
    <path clip-path="url(#p780fe36024)" d="M 90.356044 273.6 
L 93.520879 273.6 
L 96.685714 273.6 
L 99.850549 273.6 
L 103.015385 273.6 
L 104.488248 273.6 
L 106.18022 273.423411 
L 109.345055 273.105761 
L 112.50989 272.801934 
L 115.674725 272.511445 
L 118.83956 272.233802 
L 122.004396 271.968524 
L 125.169231 271.715159 
L 128.334066 271.520764 
L 131.498901 271.287821 
L 134.663736 271.065726 
L 137.828571 270.854175 
L 137.828571 270.435165 
L 137.828571 269.501405 
L 134.663736 269.697774 
L 131.498901 269.904627 
L 128.334066 270.122609 
L 125.169231 270.30549 
L 123.45147 270.435165 
L 122.004396 270.550213 
L 118.83956 270.811554 
L 115.674725 271.083147 
L 112.50989 271.365357 
L 109.345055 271.658564 
L 106.18022 271.963145 
L 103.015385 272.279475 
L 99.850549 272.541249 
L 96.685714 272.879676 
L 93.520879 273.230942 
L 90.356044 273.595504 
L 90.317728 273.6 
z
" style="fill:#3e4c8a;"/>
   </g>
   <g id="PathCollection_10">
    <path clip-path="url(#p780fe36024)" d="M 106.18022 273.6 
L 109.345055 273.6 
L 112.50989 273.6 
L 115.674725 273.6 
L 118.83956 273.6 
L 119.497016 273.6 
L 122.004396 273.386835 
L 125.169231 273.131535 
L 128.334066 272.936963 
L 131.498901 272.70543 
L 134.663736 272.486478 
L 137.828571 272.279724 
L 137.828571 270.854175 
L 134.663736 271.065726 
L 131.498901 271.287821 
L 128.334066 271.520764 
L 125.169231 271.715159 
L 122.004396 271.968524 
L 118.83956 272.233802 
L 115.674725 272.511445 
L 112.50989 272.801934 
L 109.345055 273.105761 
L 106.18022 273.423411 
L 104.488248 273.6 
z
" style="fill:#472f7d;"/>
   </g>
   <g id="PathCollection_11">
    <path clip-path="url(#p780fe36024)" d="M 122.004396 273.6 
L 125.169231 273.6 
L 128.334066 273.6 
L 131.498901 273.6 
L 134.663736 273.6 
L 137.828571 273.6 
L 137.828571 272.279724 
L 134.663736 272.486478 
L 131.498901 272.70543 
L 128.334066 272.936963 
L 125.169231 273.131535 
L 122.004396 273.386835 
L 119.497016 273.6 
z
" style="fill:#471164;"/>
   </g>
   <g id="PathCollection_12">
    <defs>
     <path d="M 0 1.581139 
C 0.419323 1.581139 0.821528 1.41454 1.118034 1.118034 
C 1.41454 0.821528 1.581139 0.419323 1.581139 0 
C 1.581139 -0.419323 1.41454 -0.821528 1.118034 -1.118034 
C 0.821528 -1.41454 0.419323 -1.581139 0 -1.581139 
C -0.419323 -1.581139 -0.821528 -1.41454 -1.118034 -1.118034 
C -1.41454 -0.821528 -1.581139 -0.419323 -1.581139 0 
C -1.581139 0.419323 -1.41454 0.821528 -1.118034 1.118034 
C -0.821528 1.41454 -0.419323 1.581139 0 1.581139 
z
" id="m1f6f93ad5f"/>
    </defs>
    <g clip-path="url(#p780fe36024)">
     <use x="78.712782" xlink:href="#m1f6f93ad5f" y="241.923641"/>
     <use x="56.625564" xlink:href="#m1f6f93ad5f" y="157.817446"/>
     <use x="18.297744" xlink:href="#m1f6f93ad5f" y="209.154994"/>
     <use x="63.121805" xlink:href="#m1f6f93ad5f" y="244.108217"/>
     <use x="48.830075" xlink:href="#m1f6f93ad5f" y="206.970417"/>
     <use x="39.735338" xlink:href="#m1f6f93ad5f" y="222.262453"/>
     <use x="15.049624" xlink:href="#m1f6f93ad5f" y="261.584829"/>
     <use x="98.201504" xlink:href="#m1f6f93ad5f" y="194.955247"/>
     <use x="118.989474" xlink:href="#m1f6f93ad5f" y="257.215676"/>
     <use x="115.741353" xlink:href="#m1f6f93ad5f" y="185.124652"/>
     <use x="57.924812" xlink:href="#m1f6f93ad5f" y="158.909735"/>
     <use x="113.142857" xlink:href="#m1f6f93ad5f" y="168.740329"/>
     <use x="86.508271" xlink:href="#m1f6f93ad5f" y="243.015929"/>
     <use x="37.786466" xlink:href="#m1f6f93ad5f" y="182.940076"/>
     <use x="78.712782" xlink:href="#m1f6f93ad5f" y="194.955247"/>
     <use x="78.063158" xlink:href="#m1f6f93ad5f" y="264.861694"/>
     <use x="89.106767" xlink:href="#m1f6f93ad5f" y="210.247282"/>
     <use x="18.947368" xlink:href="#m1f6f93ad5f" y="173.109482"/>
     <use x="75.464662" xlink:href="#m1f6f93ad5f" y="197.139823"/>
     <use x="22.195489" xlink:href="#m1f6f93ad5f" y="262.677118"/>
     <use x="104.697744" xlink:href="#m1f6f93ad5f" y="231.000759"/>
     <use x="127.434586" xlink:href="#m1f6f93ad5f" y="205.878129"/>
     <use x="52.72782" xlink:href="#m1f6f93ad5f" y="162.186599"/>
     <use x="89.756391" xlink:href="#m1f6f93ad5f" y="217.8933"/>
     <use x="78.712782" xlink:href="#m1f6f93ad5f" y="220.077876"/>
     <use x="71.566917" xlink:href="#m1f6f93ad5f" y="240.831353"/>
     <use x="104.697744" xlink:href="#m1f6f93ad5f" y="209.154994"/>
     <use x="78.712782" xlink:href="#m1f6f93ad5f" y="240.831353"/>
     <use x="68.318797" xlink:href="#m1f6f93ad5f" y="152.356005"/>
     <use x="50.778947" xlink:href="#m1f6f93ad5f" y="244.108217"/>
     <use x="82.610526" xlink:href="#m1f6f93ad5f" y="208.062705"/>
     <use x="84.559398" xlink:href="#m1f6f93ad5f" y="245.200506"/>
     <use x="137.178947" xlink:href="#m1f6f93ad5f" y="150.171429"/>
     <use x="19.596992" xlink:href="#m1f6f93ad5f" y="150.171429"/>
     <use x="34.538346" xlink:href="#m1f6f93ad5f" y="196.047535"/>
     <use x="116.390977" xlink:href="#m1f6f93ad5f" y="206.970417"/>
     <use x="29.341353" xlink:href="#m1f6f93ad5f" y="269.230847"/>
     <use x="113.142857" xlink:href="#m1f6f93ad5f" y="273.6"/>
     <use x="136.529323" xlink:href="#m1f6f93ad5f" y="202.601264"/>
     <use x="17.64812" xlink:href="#m1f6f93ad5f" y="213.524147"/>
     <use x="48.830075" xlink:href="#m1f6f93ad5f" y="185.124652"/>
     <use x="91.055639" xlink:href="#m1f6f93ad5f" y="226.631606"/>
     <use x="74.815038" xlink:href="#m1f6f93ad5f" y="260.492541"/>
     <use x="15.699248" xlink:href="#m1f6f93ad5f" y="221.170164"/>
     <use x="137.178947" xlink:href="#m1f6f93ad5f" y="250.661947"/>
     <use x="30.640602" xlink:href="#m1f6f93ad5f" y="169.832617"/>
     <use x="75.464662" xlink:href="#m1f6f93ad5f" y="258.307965"/>
     <use x="137.828571" xlink:href="#m1f6f93ad5f" y="160.002023"/>
     <use x="126.135338" xlink:href="#m1f6f93ad5f" y="247.385082"/>
     <use x="87.807519" xlink:href="#m1f6f93ad5f" y="217.8933"/>
     <use x="86.508271" xlink:href="#m1f6f93ad5f" y="228.816182"/>
     <use x="30.640602" xlink:href="#m1f6f93ad5f" y="212.431858"/>
     <use x="126.784962" xlink:href="#m1f6f93ad5f" y="200.416688"/>
     <use x="14.4" xlink:href="#m1f6f93ad5f" y="215.708723"/>
     <use x="128.084211" xlink:href="#m1f6f93ad5f" y="228.816182"/>
     <use x="15.699248" xlink:href="#m1f6f93ad5f" y="190.586094"/>
     <use x="105.996992" xlink:href="#m1f6f93ad5f" y="216.801011"/>
     <use x="14.4" xlink:href="#m1f6f93ad5f" y="235.369912"/>
     <use x="14.4" xlink:href="#m1f6f93ad5f" y="160.002023"/>
     <use x="137.828571" xlink:href="#m1f6f93ad5f" y="175.294058"/>
     <use x="137.828571" xlink:href="#m1f6f93ad5f" y="191.678382"/>
     <use x="93.004511" xlink:href="#m1f6f93ad5f" y="150.171429"/>
     <use x="14.4" xlink:href="#m1f6f93ad5f" y="199.324399"/>
     <use x="115.091729" xlink:href="#m1f6f93ad5f" y="184.032364"/>
     <use x="136.529323" xlink:href="#m1f6f93ad5f" y="259.400253"/>
     <use x="31.290226" xlink:href="#m1f6f93ad5f" y="215.708723"/>
     <use x="14.4" xlink:href="#m1f6f93ad5f" y="178.570923"/>
     <use x="130.033083" xlink:href="#m1f6f93ad5f" y="209.154994"/>
     <use x="70.267669" xlink:href="#m1f6f93ad5f" y="271.415424"/>
     <use x="100.8" xlink:href="#m1f6f93ad5f" y="251.754235"/>
     <use x="137.828571" xlink:href="#m1f6f93ad5f" y="150.171429"/>
     <use x="24.793985" xlink:href="#m1f6f93ad5f" y="176.386346"/>
     <use x="70.267669" xlink:href="#m1f6f93ad5f" y="150.171429"/>
     <use x="14.4" xlink:href="#m1f6f93ad5f" y="150.171429"/>
     <use x="22.845113" xlink:href="#m1f6f93ad5f" y="227.723894"/>
     <use x="15.699248" xlink:href="#m1f6f93ad5f" y="212.431858"/>
     <use x="104.04812" xlink:href="#m1f6f93ad5f" y="150.171429"/>
     <use x="125.485714" xlink:href="#m1f6f93ad5f" y="152.356005"/>
     <use x="137.828571" xlink:href="#m1f6f93ad5f" y="150.171429"/>
     <use x="84.559398" xlink:href="#m1f6f93ad5f" y="173.109482"/>
     <use x="17.64812" xlink:href="#m1f6f93ad5f" y="241.923641"/>
     <use x="17.64812" xlink:href="#m1f6f93ad5f" y="225.539317"/>
     <use x="137.828571" xlink:href="#m1f6f93ad5f" y="215.708723"/>
     <use x="96.252632" xlink:href="#m1f6f93ad5f" y="262.677118"/>
     <use x="39.085714" xlink:href="#m1f6f93ad5f" y="177.478635"/>
     <use x="111.843609" xlink:href="#m1f6f93ad5f" y="231.000759"/>
     <use x="82.610526" xlink:href="#m1f6f93ad5f" y="231.000759"/>
     <use x="81.960902" xlink:href="#m1f6f93ad5f" y="262.677118"/>
     <use x="37.786466" xlink:href="#m1f6f93ad5f" y="156.725158"/>
     <use x="137.828571" xlink:href="#m1f6f93ad5f" y="240.831353"/>
     <use x="51.428571" xlink:href="#m1f6f93ad5f" y="241.923641"/>
     <use x="91.055639" xlink:href="#m1f6f93ad5f" y="175.294058"/>
     <use x="105.996992" xlink:href="#m1f6f93ad5f" y="175.294058"/>
     <use x="42.333835" xlink:href="#m1f6f93ad5f" y="265.953982"/>
     <use x="137.828571" xlink:href="#m1f6f93ad5f" y="213.524147"/>
     <use x="87.807519" xlink:href="#m1f6f93ad5f" y="150.171429"/>
     <use x="81.311278" xlink:href="#m1f6f93ad5f" y="203.693552"/>
     <use x="137.828571" xlink:href="#m1f6f93ad5f" y="150.171429"/>
     <use x="89.106767" xlink:href="#m1f6f93ad5f" y="150.171429"/>
     <use x="55.97594" xlink:href="#m1f6f93ad5f" y="180.755499"/>
    </g>
   </g>
   <g id="PathCollection_13">
    <defs>
     <path d="M 0 -5 
L -1.12257 -1.545085 
L -4.755283 -1.545085 
L -1.816356 0.59017 
L -2.938926 4.045085 
L -0 1.90983 
L 2.938926 4.045085 
L 1.816356 0.59017 
L 4.755283 -1.545085 
L 1.12257 -1.545085 
z
" id="meebb185078"/>
    </defs>
    <g clip-path="url(#p780fe36024)">
     <use style="fill:#ff0000;" x="78.712782" xlink:href="#meebb185078" y="241.923641"/>
    </g>
   </g>
   <g id="matplotlib.axis_3">
    <g id="xtick_5">
     <g id="line2d_13">
      <defs>
       <path d="M 0 0 
L 0 3.5 
" id="m8aadd22371" style="stroke:#000000;stroke-width:0.8;"/>
      </defs>
      <g>
       <use style="stroke:#000000;stroke-width:0.8;" x="33.888722" xlink:href="#m8aadd22371" y="273.6"/>
      </g>
     </g>
     <g id="text_10">
      <!-- 40 -->
      <g transform="translate(31.340928 294.97084)rotate(-45)scale(0.1 -0.1)">
       <use xlink:href="#DejaVuSans-52"/>
       <use x="63.623047" xlink:href="#DejaVuSans-48"/>
      </g>
     </g>
    </g>
    <g id="xtick_6">
     <g id="line2d_14">
      <g>
       <use style="stroke:#000000;stroke-width:0.8;" x="59.873684" xlink:href="#m8aadd22371" y="273.6"/>
      </g>
     </g>
     <g id="text_11">
      <!-- 80 -->
      <g transform="translate(57.32589 294.97084)rotate(-45)scale(0.1 -0.1)">
       <use xlink:href="#DejaVuSans-56"/>
       <use x="63.623047" xlink:href="#DejaVuSans-48"/>
      </g>
     </g>
    </g>
    <g id="xtick_7">
     <g id="line2d_15">
      <g>
       <use style="stroke:#000000;stroke-width:0.8;" x="85.858647" xlink:href="#m8aadd22371" y="273.6"/>
      </g>
     </g>
     <g id="text_12">
      <!-- 120 -->
      <g transform="translate(81.061369 299.469807)rotate(-45)scale(0.1 -0.1)">
       <use xlink:href="#DejaVuSans-49"/>
       <use x="63.623047" xlink:href="#DejaVuSans-50"/>
       <use x="127.246094" xlink:href="#DejaVuSans-48"/>
      </g>
     </g>
    </g>
    <g id="xtick_8">
     <g id="line2d_16">
      <g>
       <use style="stroke:#000000;stroke-width:0.8;" x="111.843609" xlink:href="#m8aadd22371" y="273.6"/>
      </g>
     </g>
     <g id="text_13">
      <!-- 160 -->
      <g transform="translate(107.046331 299.469807)rotate(-45)scale(0.1 -0.1)">
       <use xlink:href="#DejaVuSans-49"/>
       <use x="63.623047" xlink:href="#DejaVuSans-54"/>
       <use x="127.246094" xlink:href="#DejaVuSans-48"/>
      </g>
     </g>
    </g>
    <g id="text_14">
     <!-- max_depth -->
     <g transform="translate(48.166629 312.538806)scale(0.1 -0.1)">
      <use xlink:href="#DejaVuSans-109"/>
      <use x="97.412109" xlink:href="#DejaVuSans-97"/>
      <use x="158.691406" xlink:href="#DejaVuSans-120"/>
      <use x="217.871094" xlink:href="#DejaVuSans-95"/>
      <use x="267.871094" xlink:href="#DejaVuSans-100"/>
      <use x="331.347656" xlink:href="#DejaVuSans-101"/>
      <use x="392.871094" xlink:href="#DejaVuSans-112"/>
      <use x="456.347656" xlink:href="#DejaVuSans-116"/>
      <use x="495.556641" xlink:href="#DejaVuSans-104"/>
     </g>
    </g>
   </g>
   <g id="matplotlib.axis_4">
    <g id="ytick_4">
     <g id="line2d_17">
      <g>
       <use style="stroke:#000000;stroke-width:0.8;" x="14.4" xlink:href="#m7f4efd2984" y="252.846523"/>
      </g>
     </g>
     <g id="text_15">
      <!-- 20 -->
      <g transform="translate(-5.325 256.645742)scale(0.1 -0.1)">
       <use xlink:href="#DejaVuSans-50"/>
       <use x="63.623047" xlink:href="#DejaVuSans-48"/>
      </g>
     </g>
    </g>
    <g id="ytick_5">
     <g id="line2d_18">
      <g>
       <use style="stroke:#000000;stroke-width:0.8;" x="14.4" xlink:href="#m7f4efd2984" y="231.000759"/>
      </g>
     </g>
     <g id="text_16">
      <!-- 40 -->
      <g transform="translate(-5.325 234.799977)scale(0.1 -0.1)">
       <use xlink:href="#DejaVuSans-52"/>
       <use x="63.623047" xlink:href="#DejaVuSans-48"/>
      </g>
     </g>
    </g>
    <g id="ytick_6">
     <g id="line2d_19">
      <g>
       <use style="stroke:#000000;stroke-width:0.8;" x="14.4" xlink:href="#m7f4efd2984" y="209.154994"/>
      </g>
     </g>
     <g id="text_17">
      <!-- 60 -->
      <g transform="translate(-5.325 212.954212)scale(0.1 -0.1)">
       <use xlink:href="#DejaVuSans-54"/>
       <use x="63.623047" xlink:href="#DejaVuSans-48"/>
      </g>
     </g>
    </g>
    <g id="ytick_7">
     <g id="line2d_20">
      <g>
       <use style="stroke:#000000;stroke-width:0.8;" x="14.4" xlink:href="#m7f4efd2984" y="187.309229"/>
      </g>
     </g>
     <g id="text_18">
      <!-- 80 -->
      <g transform="translate(-5.325 191.108448)scale(0.1 -0.1)">
       <use xlink:href="#DejaVuSans-56"/>
       <use x="63.623047" xlink:href="#DejaVuSans-48"/>
      </g>
     </g>
    </g>
    <g id="ytick_8">
     <g id="line2d_21">
      <g>
       <use style="stroke:#000000;stroke-width:0.8;" x="14.4" xlink:href="#m7f4efd2984" y="165.463464"/>
      </g>
     </g>
     <g id="text_19">
      <!-- 100 -->
      <g transform="translate(-11.6875 169.262683)scale(0.1 -0.1)">
       <use xlink:href="#DejaVuSans-49"/>
       <use x="63.623047" xlink:href="#DejaVuSans-48"/>
       <use x="127.246094" xlink:href="#DejaVuSans-48"/>
      </g>
     </g>
    </g>
    <g id="text_20">
     <!-- max_features -->
     <g transform="translate(-18.045313 245.933371)rotate(-90)scale(0.1 -0.1)">
      <defs>
       <path d="M 37.109375 75.984375 
L 37.109375 68.5 
L 28.515625 68.5 
Q 23.6875 68.5 21.796875 66.546875 
Q 19.921875 64.59375 19.921875 59.515625 
L 19.921875 54.6875 
L 34.71875 54.6875 
L 34.71875 47.703125 
L 19.921875 47.703125 
L 19.921875 0 
L 10.890625 0 
L 10.890625 47.703125 
L 2.296875 47.703125 
L 2.296875 54.6875 
L 10.890625 54.6875 
L 10.890625 58.5 
Q 10.890625 67.625 15.140625 71.796875 
Q 19.390625 75.984375 28.609375 75.984375 
z
" id="DejaVuSans-102"/>
       <path d="M 8.5 21.578125 
L 8.5 54.6875 
L 17.484375 54.6875 
L 17.484375 21.921875 
Q 17.484375 14.15625 20.5 10.265625 
Q 23.53125 6.390625 29.59375 6.390625 
Q 36.859375 6.390625 41.078125 11.03125 
Q 45.3125 15.671875 45.3125 23.6875 
L 45.3125 54.6875 
L 54.296875 54.6875 
L 54.296875 0 
L 45.3125 0 
L 45.3125 8.40625 
Q 42.046875 3.421875 37.71875 1 
Q 33.40625 -1.421875 27.6875 -1.421875 
Q 18.265625 -1.421875 13.375 4.4375 
Q 8.5 10.296875 8.5 21.578125 
z
M 31.109375 56 
z
" id="DejaVuSans-117"/>
       <path d="M 44.28125 53.078125 
L 44.28125 44.578125 
Q 40.484375 46.53125 36.375 47.5 
Q 32.28125 48.484375 27.875 48.484375 
Q 21.1875 48.484375 17.84375 46.4375 
Q 14.5 44.390625 14.5 40.28125 
Q 14.5 37.15625 16.890625 35.375 
Q 19.28125 33.59375 26.515625 31.984375 
L 29.59375 31.296875 
Q 39.15625 29.25 43.1875 25.515625 
Q 47.21875 21.78125 47.21875 15.09375 
Q 47.21875 7.46875 41.1875 3.015625 
Q 35.15625 -1.421875 24.609375 -1.421875 
Q 20.21875 -1.421875 15.453125 -0.5625 
Q 10.6875 0.296875 5.421875 2 
L 5.421875 11.28125 
Q 10.40625 8.6875 15.234375 7.390625 
Q 20.0625 6.109375 24.8125 6.109375 
Q 31.15625 6.109375 34.5625 8.28125 
Q 37.984375 10.453125 37.984375 14.40625 
Q 37.984375 18.0625 35.515625 20.015625 
Q 33.0625 21.96875 24.703125 23.78125 
L 21.578125 24.515625 
Q 13.234375 26.265625 9.515625 29.90625 
Q 5.8125 33.546875 5.8125 39.890625 
Q 5.8125 47.609375 11.28125 51.796875 
Q 16.75 56 26.8125 56 
Q 31.78125 56 36.171875 55.265625 
Q 40.578125 54.546875 44.28125 53.078125 
z
" id="DejaVuSans-115"/>
      </defs>
      <use xlink:href="#DejaVuSans-109"/>
      <use x="97.412109" xlink:href="#DejaVuSans-97"/>
      <use x="158.691406" xlink:href="#DejaVuSans-120"/>
      <use x="217.871094" xlink:href="#DejaVuSans-95"/>
      <use x="267.871094" xlink:href="#DejaVuSans-102"/>
      <use x="303.076172" xlink:href="#DejaVuSans-101"/>
      <use x="364.599609" xlink:href="#DejaVuSans-97"/>
      <use x="425.878906" xlink:href="#DejaVuSans-116"/>
      <use x="465.087891" xlink:href="#DejaVuSans-117"/>
      <use x="528.466797" xlink:href="#DejaVuSans-114"/>
      <use x="567.330078" xlink:href="#DejaVuSans-101"/>
      <use x="628.853516" xlink:href="#DejaVuSans-115"/>
     </g>
    </g>
   </g>
   <g id="patch_8">
    <path d="M 14.4 273.6 
L 14.4 150.171429 
" style="fill:none;stroke:#000000;stroke-linecap:square;stroke-linejoin:miter;stroke-width:0.8;"/>
   </g>
   <g id="patch_9">
    <path d="M 137.828571 273.6 
L 137.828571 150.171429 
" style="fill:none;stroke:#000000;stroke-linecap:square;stroke-linejoin:miter;stroke-width:0.8;"/>
   </g>
   <g id="patch_10">
    <path d="M 14.4 273.6 
L 137.828571 273.6 
" style="fill:none;stroke:#000000;stroke-linecap:square;stroke-linejoin:miter;stroke-width:0.8;"/>
   </g>
   <g id="patch_11">
    <path d="M 14.4 150.171429 
L 137.828571 150.171429 
" style="fill:none;stroke:#000000;stroke-linecap:square;stroke-linejoin:miter;stroke-width:0.8;"/>
   </g>
  </g>
  <g id="axes_4">
   <g id="patch_12">
    <path d="M 150.171429 273.6 
L 273.6 273.6 
L 273.6 150.171429 
L 150.171429 150.171429 
z
" style="fill:none;"/>
   </g>
   <g id="matplotlib.axis_5">
    <g id="xtick_9">
     <g id="line2d_22">
      <g>
       <use style="stroke:#000000;stroke-width:0.8;" x="170.924905" xlink:href="#m05a2933520" y="150.171429"/>
      </g>
     </g>
     <g id="text_21">
      <!-- 20 -->
      <g transform="translate(164.562405 141.091741)scale(0.1 -0.1)">
       <use xlink:href="#DejaVuSans-50"/>
       <use x="63.623047" xlink:href="#DejaVuSans-48"/>
      </g>
     </g>
    </g>
    <g id="xtick_10">
     <g id="line2d_23">
      <g>
       <use style="stroke:#000000;stroke-width:0.8;" x="192.77067" xlink:href="#m05a2933520" y="150.171429"/>
      </g>
     </g>
     <g id="text_22">
      <!-- 40 -->
      <g transform="translate(186.40817 141.091741)scale(0.1 -0.1)">
       <use xlink:href="#DejaVuSans-52"/>
       <use x="63.623047" xlink:href="#DejaVuSans-48"/>
      </g>
     </g>
    </g>
    <g id="xtick_11">
     <g id="line2d_24">
      <g>
       <use style="stroke:#000000;stroke-width:0.8;" x="214.616435" xlink:href="#m05a2933520" y="150.171429"/>
      </g>
     </g>
     <g id="text_23">
      <!-- 60 -->
      <g transform="translate(208.253935 141.091741)scale(0.1 -0.1)">
       <use xlink:href="#DejaVuSans-54"/>
       <use x="63.623047" xlink:href="#DejaVuSans-48"/>
      </g>
     </g>
    </g>
    <g id="xtick_12">
     <g id="line2d_25">
      <g>
       <use style="stroke:#000000;stroke-width:0.8;" x="236.4622" xlink:href="#m05a2933520" y="150.171429"/>
      </g>
     </g>
     <g id="text_24">
      <!-- 80 -->
      <g transform="translate(230.0997 141.091741)scale(0.1 -0.1)">
       <use xlink:href="#DejaVuSans-56"/>
       <use x="63.623047" xlink:href="#DejaVuSans-48"/>
      </g>
     </g>
    </g>
    <g id="xtick_13">
     <g id="line2d_26">
      <g>
       <use style="stroke:#000000;stroke-width:0.8;" x="258.307965" xlink:href="#m05a2933520" y="150.171429"/>
      </g>
     </g>
     <g id="text_25">
      <!-- 100 -->
      <g transform="translate(248.764215 141.091741)scale(0.1 -0.1)">
       <use xlink:href="#DejaVuSans-49"/>
       <use x="63.623047" xlink:href="#DejaVuSans-48"/>
       <use x="127.246094" xlink:href="#DejaVuSans-48"/>
      </g>
     </g>
    </g>
    <g id="text_26">
     <!-- max_features -->
     <g transform="translate(177.838058 129.493304)scale(0.1 -0.1)">
      <use xlink:href="#DejaVuSans-109"/>
      <use x="97.412109" xlink:href="#DejaVuSans-97"/>
      <use x="158.691406" xlink:href="#DejaVuSans-120"/>
      <use x="217.871094" xlink:href="#DejaVuSans-95"/>
      <use x="267.871094" xlink:href="#DejaVuSans-102"/>
      <use x="303.076172" xlink:href="#DejaVuSans-101"/>
      <use x="364.599609" xlink:href="#DejaVuSans-97"/>
      <use x="425.878906" xlink:href="#DejaVuSans-116"/>
      <use x="465.087891" xlink:href="#DejaVuSans-117"/>
      <use x="528.466797" xlink:href="#DejaVuSans-114"/>
      <use x="567.330078" xlink:href="#DejaVuSans-101"/>
      <use x="628.853516" xlink:href="#DejaVuSans-115"/>
     </g>
    </g>
   </g>
   <g id="matplotlib.axis_6">
    <g id="ytick_9">
     <g id="line2d_27">
      <g>
       <use style="stroke:#000000;stroke-width:0.8;" x="150.171429" xlink:href="#m7f4efd2984" y="247.449309"/>
      </g>
     </g>
     <g id="line2d_28">
      <g>
       <use style="stroke:#000000;stroke-width:0.8;" x="273.6" xlink:href="#m5d986fa717" y="247.449309"/>
      </g>
     </g>
     <g id="text_27">
      <!-- 0.0172 -->
      <g transform="translate(280.6 251.248527)scale(0.1 -0.1)">
       <use xlink:href="#DejaVuSans-48"/>
       <use x="63.623047" xlink:href="#DejaVuSans-46"/>
       <use x="95.410156" xlink:href="#DejaVuSans-48"/>
       <use x="159.033203" xlink:href="#DejaVuSans-49"/>
       <use x="222.65625" xlink:href="#DejaVuSans-55"/>
       <use x="286.279297" xlink:href="#DejaVuSans-50"/>
      </g>
     </g>
    </g>
    <g id="ytick_10">
     <g id="line2d_29">
      <g>
       <use style="stroke:#000000;stroke-width:0.8;" x="150.171429" xlink:href="#m7f4efd2984" y="210.709442"/>
      </g>
     </g>
     <g id="line2d_30">
      <g>
       <use style="stroke:#000000;stroke-width:0.8;" x="273.6" xlink:href="#m5d986fa717" y="210.709442"/>
      </g>
     </g>
     <g id="text_28">
      <!-- 0.0174 -->
      <g transform="translate(280.6 214.508661)scale(0.1 -0.1)">
       <use xlink:href="#DejaVuSans-48"/>
       <use x="63.623047" xlink:href="#DejaVuSans-46"/>
       <use x="95.410156" xlink:href="#DejaVuSans-48"/>
       <use x="159.033203" xlink:href="#DejaVuSans-49"/>
       <use x="222.65625" xlink:href="#DejaVuSans-55"/>
       <use x="286.279297" xlink:href="#DejaVuSans-52"/>
      </g>
     </g>
    </g>
    <g id="ytick_11">
     <g id="line2d_31">
      <g>
       <use style="stroke:#000000;stroke-width:0.8;" x="150.171429" xlink:href="#m7f4efd2984" y="173.969575"/>
      </g>
     </g>
     <g id="line2d_32">
      <g>
       <use style="stroke:#000000;stroke-width:0.8;" x="273.6" xlink:href="#m5d986fa717" y="173.969575"/>
      </g>
     </g>
     <g id="text_29">
      <!-- 0.0176 -->
      <g transform="translate(280.6 177.768794)scale(0.1 -0.1)">
       <use xlink:href="#DejaVuSans-48"/>
       <use x="63.623047" xlink:href="#DejaVuSans-46"/>
       <use x="95.410156" xlink:href="#DejaVuSans-48"/>
       <use x="159.033203" xlink:href="#DejaVuSans-49"/>
       <use x="222.65625" xlink:href="#DejaVuSans-55"/>
       <use x="286.279297" xlink:href="#DejaVuSans-54"/>
      </g>
     </g>
    </g>
    <g id="text_30">
     <!-- Partial dependence -->
     <g transform="translate(327.189062 260.102121)rotate(-90)scale(0.1 -0.1)">
      <use xlink:href="#DejaVuSans-80"/>
      <use x="55.802734" xlink:href="#DejaVuSans-97"/>
      <use x="117.082031" xlink:href="#DejaVuSans-114"/>
      <use x="158.195312" xlink:href="#DejaVuSans-116"/>
      <use x="197.404297" xlink:href="#DejaVuSans-105"/>
      <use x="225.1875" xlink:href="#DejaVuSans-97"/>
      <use x="286.466797" xlink:href="#DejaVuSans-108"/>
      <use x="314.25" xlink:href="#DejaVuSans-32"/>
      <use x="346.037109" xlink:href="#DejaVuSans-100"/>
      <use x="409.513672" xlink:href="#DejaVuSans-101"/>
      <use x="471.037109" xlink:href="#DejaVuSans-112"/>
      <use x="534.513672" xlink:href="#DejaVuSans-101"/>
      <use x="596.037109" xlink:href="#DejaVuSans-110"/>
      <use x="659.416016" xlink:href="#DejaVuSans-100"/>
      <use x="722.892578" xlink:href="#DejaVuSans-101"/>
      <use x="784.416016" xlink:href="#DejaVuSans-110"/>
      <use x="847.794922" xlink:href="#DejaVuSans-99"/>
      <use x="902.775391" xlink:href="#DejaVuSans-101"/>
     </g>
    </g>
   </g>
   <g id="line2d_33">
    <path clip-path="url(#p61a8d9a11b)" d="M 150.171429 155.781818 
L 153.336264 186.659097 
L 156.501099 214.146379 
L 159.665934 233.323725 
L 162.830769 243.802194 
L 165.995604 247.590274 
L 169.16044 251.338906 
L 172.325275 254.814726 
L 175.49011 258.66909 
L 178.654945 262.24518 
L 181.81978 263.660563 
L 184.984615 261.276228 
L 188.149451 256.901161 
L 191.314286 254.157306 
L 194.479121 254.64233 
L 197.643956 255.998073 
L 200.808791 257.525039 
L 203.973626 258.100363 
L 207.138462 258.979327 
L 210.303297 260.093188 
L 213.468132 260.003284 
L 216.632967 258.271793 
L 219.797802 256.806055 
L 222.962637 257.499098 
L 226.127473 260.170386 
L 229.292308 261.674708 
L 232.457143 261.372276 
L 235.621978 258.428292 
L 238.786813 256.109705 
L 241.951648 257.110324 
L 245.116484 260.750294 
L 248.281319 264.201158 
L 251.446154 264.741149 
L 254.610989 262.128074 
L 257.775824 258.768429 
L 260.940659 257.457039 
L 264.105495 257.917894 
L 267.27033 260.817626 
L 270.435165 264.594886 
L 273.6 267.98961 
" style="fill:none;stroke:#0072b2;stroke-linecap:square;stroke-width:1.5;"/>
   </g>
   <g id="line2d_34">
    <path clip-path="url(#p61a8d9a11b)" d="M 181.847788 273.6 
L 181.847788 150.171429 
" style="fill:none;stroke:#ff0000;stroke-dasharray:3.7,1.6;stroke-dashoffset:0;"/>
   </g>
   <g id="patch_13">
    <path d="M 150.171429 273.6 
L 150.171429 150.171429 
" style="fill:none;stroke:#000000;stroke-linecap:square;stroke-linejoin:miter;stroke-width:0.8;"/>
   </g>
   <g id="patch_14">
    <path d="M 273.6 273.6 
L 273.6 150.171429 
" style="fill:none;stroke:#000000;stroke-linecap:square;stroke-linejoin:miter;stroke-width:0.8;"/>
   </g>
   <g id="patch_15">
    <path d="M 150.171429 273.6 
L 273.6 273.6 
" style="fill:none;stroke:#000000;stroke-linecap:square;stroke-linejoin:miter;stroke-width:0.8;"/>
   </g>
   <g id="patch_16">
    <path d="M 150.171429 150.171429 
L 273.6 150.171429 
" style="fill:none;stroke:#000000;stroke-linecap:square;stroke-linejoin:miter;stroke-width:0.8;"/>
   </g>
  </g>
 </g>
 <defs>
  <clipPath id="p08d4edd92c">
   <rect height="123.428571" width="123.428571" x="14.4" y="14.4"/>
  </clipPath>
  <clipPath id="p780fe36024">
   <rect height="123.428571" width="123.428571" x="14.4" y="150.171429"/>
  </clipPath>
  <clipPath id="p61a8d9a11b">
   <rect height="123.428571" width="123.428571" x="150.171429" y="150.171429"/>
  </clipPath>
 </defs>
</svg>
