<?xml version="1.0" encoding="utf-8" standalone="no"?>
<!DOCTYPE svg PUBLIC "-//W3C//DTD SVG 1.1//EN"
  "http://www.w3.org/Graphics/SVG/1.1/DTD/svg11.dtd">
<!-- Created with matplotlib (https://matplotlib.org/) -->
<svg height="720pt" version="1.1" viewBox="0 0 720 720" width="720pt" xmlns="http://www.w3.org/2000/svg" xmlns:xlink="http://www.w3.org/1999/xlink">
 <metadata>
  <rdf:RDF xmlns:cc="http://creativecommons.org/ns#" xmlns:dc="http://purl.org/dc/elements/1.1/" xmlns:rdf="http://www.w3.org/1999/02/22-rdf-syntax-ns#">
   <cc:Work>
    <dc:type rdf:resource="http://purl.org/dc/dcmitype/StillImage"/>
    <dc:date>2020-12-27T22:40:58.800451</dc:date>
    <dc:format>image/svg+xml</dc:format>
    <dc:creator>
     <cc:Agent>
      <dc:title>Matplotlib v3.3.2, https://matplotlib.org/</dc:title>
     </cc:Agent>
    </dc:creator>
   </cc:Work>
  </rdf:RDF>
 </metadata>
 <defs>
  <style type="text/css">*{stroke-linecap:butt;stroke-linejoin:round;}</style>
 </defs>
 <g id="figure_1">
  <g id="patch_1">
   <path d="M 0 720 
L 720 720 
L 720 0 
L 0 0 
z
" style="fill:none;"/>
  </g>
  <g id="axes_1">
   <g id="patch_2">
    <path d="M 90 630 
L 648 630 
L 648 86.4 
L 90 86.4 
z
" style="fill:none;"/>
   </g>
   <g id="PathCollection_1">
    <defs>
     <path d="M 0 3 
C 0.795609 3 1.55874 2.683901 2.12132 2.12132 
C 2.683901 1.55874 3 0.795609 3 0 
C 3 -0.795609 2.683901 -1.55874 2.12132 -2.12132 
C 1.55874 -2.683901 0.795609 -3 0 -3 
C -0.795609 -3 -1.55874 -2.683901 -2.12132 -2.12132 
C -2.683901 -1.55874 -3 -0.795609 -3 0 
C -3 0.795609 -2.683901 1.55874 -2.12132 2.12132 
C -1.55874 2.683901 -0.795609 3 0 3 
z
" id="m08dab28a8f" style="stroke:#0072b2;"/>
    </defs>
    <g clip-path="url(#p7e2d3d2ae3)">
     <use style="fill:#0072b2;stroke:#0072b2;" x="314.110631" xlink:href="#m08dab28a8f" y="578.115108"/>
     <use style="fill:#0072b2;stroke:#0072b2;" x="119.395806" xlink:href="#m08dab28a8f" y="576.909694"/>
     <use style="fill:#0072b2;stroke:#0072b2;" x="128.370637" xlink:href="#m08dab28a8f" y="581.727448"/>
     <use style="fill:#0072b2;stroke:#0072b2;" x="132.66295" xlink:href="#m08dab28a8f" y="567.027526"/>
     <use style="fill:#0072b2;stroke:#0072b2;" x="153.47415" xlink:href="#m08dab28a8f" y="574.137777"/>
     <use style="fill:#0072b2;stroke:#0072b2;" x="130.972037" xlink:href="#m08dab28a8f" y="571.664188"/>
     <use style="fill:#0072b2;stroke:#0072b2;" x="143.718896" xlink:href="#m08dab28a8f" y="589.415857"/>
     <use style="fill:#0072b2;stroke:#0072b2;" x="165.960851" xlink:href="#m08dab28a8f" y="581.427835"/>
     <use style="fill:#0072b2;stroke:#0072b2;" x="127.590212" xlink:href="#m08dab28a8f" y="578.345408"/>
     <use style="fill:#0072b2;stroke:#0072b2;" x="168.172057" xlink:href="#m08dab28a8f" y="582.453381"/>
     <use style="fill:#0072b2;stroke:#0072b2;" x="132.66295" xlink:href="#m08dab28a8f" y="582.648377"/>
     <use style="fill:#0072b2;stroke:#0072b2;" x="136.044765" xlink:href="#m08dab28a8f" y="582.312332"/>
     <use style="fill:#0072b2;stroke:#0072b2;" x="144.109105" xlink:href="#m08dab28a8f" y="578.01556"/>
     <use style="fill:#0072b2;stroke:#0072b2;" x="125.769236" xlink:href="#m08dab28a8f" y="578.17602"/>
     <use style="fill:#0072b2;stroke:#0072b2;" x="165.05038" xlink:href="#m08dab28a8f" y="583.03765"/>
     <use style="fill:#0072b2;stroke:#0072b2;" x="152.823795" xlink:href="#m08dab28a8f" y="584.72634"/>
     <use style="fill:#0072b2;stroke:#0072b2;" x="214.216852" xlink:href="#m08dab28a8f" y="556.714038"/>
     <use style="fill:#0072b2;stroke:#0072b2;" x="133.963645" xlink:href="#m08dab28a8f" y="582.4859"/>
     <use style="fill:#0072b2;stroke:#0072b2;" x="132.012599" xlink:href="#m08dab28a8f" y="577.219335"/>
     <use style="fill:#0072b2;stroke:#0072b2;" x="177.537091" xlink:href="#m08dab28a8f" y="557.486676"/>
     <use style="fill:#0072b2;stroke:#0072b2;" x="142.938468" xlink:href="#m08dab28a8f" y="580.586849"/>
     <use style="fill:#0072b2;stroke:#0072b2;" x="175.455974" xlink:href="#m08dab28a8f" y="563.324527"/>
     <use style="fill:#0072b2;stroke:#0072b2;" x="120.566436" xlink:href="#m08dab28a8f" y="586.507474"/>
     <use style="fill:#0072b2;stroke:#0072b2;" x="622.636364" xlink:href="#m08dab28a8f" y="568.489862"/>
     <use style="fill:#0072b2;stroke:#0072b2;" x="242.181898" xlink:href="#m08dab28a8f" y="570.61425"/>
     <use style="fill:#0072b2;stroke:#0072b2;" x="143.198612" xlink:href="#m08dab28a8f" y="574.469973"/>
     <use style="fill:#0072b2;stroke:#0072b2;" x="125.248954" xlink:href="#m08dab28a8f" y="579.393954"/>
     <use style="fill:#0072b2;stroke:#0072b2;" x="167.651785" xlink:href="#m08dab28a8f" y="579.827447"/>
     <use style="fill:#0072b2;stroke:#0072b2;" x="135.134272" xlink:href="#m08dab28a8f" y="580.070383"/>
     <use style="fill:#0072b2;stroke:#0072b2;" x="127.590212" xlink:href="#m08dab28a8f" y="586.076101"/>
     <use style="fill:#0072b2;stroke:#0072b2;" x="139.036379" xlink:href="#m08dab28a8f" y="581.702541"/>
     <use style="fill:#0072b2;stroke:#0072b2;" x="128.240566" xlink:href="#m08dab28a8f" y="584.968963"/>
     <use style="fill:#0072b2;stroke:#0072b2;" x="220.200039" xlink:href="#m08dab28a8f" y="572.050899"/>
     <use style="fill:#0072b2;stroke:#0072b2;" x="139.946867" xlink:href="#m08dab28a8f" y="572.133195"/>
     <use style="fill:#0072b2;stroke:#0072b2;" x="392.542694" xlink:href="#m08dab28a8f" y="527.594325"/>
     <use style="fill:#0072b2;stroke:#0072b2;" x="131.102108" xlink:href="#m08dab28a8f" y="579.009799"/>
     <use style="fill:#0072b2;stroke:#0072b2;" x="131.102108" xlink:href="#m08dab28a8f" y="584.855551"/>
     <use style="fill:#0072b2;stroke:#0072b2;" x="125.769236" xlink:href="#m08dab28a8f" y="578.643381"/>
     <use style="fill:#0072b2;stroke:#0072b2;" x="368.089534" xlink:href="#m08dab28a8f" y="563.990421"/>
     <use style="fill:#0072b2;stroke:#0072b2;" x="123.037766" xlink:href="#m08dab28a8f" y="589.399082"/>
     <use style="fill:#0072b2;stroke:#0072b2;" x="129.931473" xlink:href="#m08dab28a8f" y="576.008986"/>
     <use style="fill:#0072b2;stroke:#0072b2;" x="133.833577" xlink:href="#m08dab28a8f" y="586.342236"/>
     <use style="fill:#0072b2;stroke:#0072b2;" x="129.151055" xlink:href="#m08dab28a8f" y="587.315386"/>
     <use style="fill:#0072b2;stroke:#0072b2;" x="138.51609" xlink:href="#m08dab28a8f" y="578.506478"/>
     <use style="fill:#0072b2;stroke:#0072b2;" x="150.092325" xlink:href="#m08dab28a8f" y="558.092884"/>
     <use style="fill:#0072b2;stroke:#0072b2;" x="164.40003" xlink:href="#m08dab28a8f" y="534.823261"/>
     <use style="fill:#0072b2;stroke:#0072b2;" x="131.752457" xlink:href="#m08dab28a8f" y="583.206463"/>
     <use style="fill:#0072b2;stroke:#0072b2;" x="180.268559" xlink:href="#m08dab28a8f" y="582.665003"/>
     <use style="fill:#0072b2;stroke:#0072b2;" x="137.605604" xlink:href="#m08dab28a8f" y="589.606722"/>
     <use style="fill:#0072b2;stroke:#0072b2;" x="215.517532" xlink:href="#m08dab28a8f" y="563.879709"/>
     <use style="fill:#0072b2;stroke:#0072b2;" x="150.352456" xlink:href="#m08dab28a8f" y="572.407648"/>
     <use style="fill:#0072b2;stroke:#0072b2;" x="141.637774" xlink:href="#m08dab28a8f" y="579.136737"/>
     <use style="fill:#0072b2;stroke:#0072b2;" x="128.890913" xlink:href="#m08dab28a8f" y="582.47633"/>
     <use style="fill:#0072b2;stroke:#0072b2;" x="132.012599" xlink:href="#m08dab28a8f" y="570.010559"/>
     <use style="fill:#0072b2;stroke:#0072b2;" x="130.972037" xlink:href="#m08dab28a8f" y="585.562195"/>
     <use style="fill:#0072b2;stroke:#0072b2;" x="170.383252" xlink:href="#m08dab28a8f" y="554.216812"/>
     <use style="fill:#0072b2;stroke:#0072b2;" x="127.069935" xlink:href="#m08dab28a8f" y="579.799425"/>
     <use style="fill:#0072b2;stroke:#0072b2;" x="122.517485" xlink:href="#m08dab28a8f" y="590.071811"/>
     <use style="fill:#0072b2;stroke:#0072b2;" x="131.102108" xlink:href="#m08dab28a8f" y="579.353504"/>
     <use style="fill:#0072b2;stroke:#0072b2;" x="184.170693" xlink:href="#m08dab28a8f" y="550.964913"/>
     <use style="fill:#0072b2;stroke:#0072b2;" x="130.711897" xlink:href="#m08dab28a8f" y="580.194278"/>
     <use style="fill:#0072b2;stroke:#0072b2;" x="143.45875" xlink:href="#m08dab28a8f" y="575.937903"/>
     <use style="fill:#0072b2;stroke:#0072b2;" x="134.613995" xlink:href="#m08dab28a8f" y="578.104255"/>
     <use style="fill:#0072b2;stroke:#0072b2;" x="148.921693" xlink:href="#m08dab28a8f" y="578.838938"/>
     <use style="fill:#0072b2;stroke:#0072b2;" x="151.393012" xlink:href="#m08dab28a8f" y="575.899732"/>
     <use style="fill:#0072b2;stroke:#0072b2;" x="143.588826" xlink:href="#m08dab28a8f" y="577.245446"/>
     <use style="fill:#0072b2;stroke:#0072b2;" x="148.141265" xlink:href="#m08dab28a8f" y="578.660039"/>
     <use style="fill:#0072b2;stroke:#0072b2;" x="130.841967" xlink:href="#m08dab28a8f" y="579.899932"/>
     <use style="fill:#0072b2;stroke:#0072b2;" x="129.801406" xlink:href="#m08dab28a8f" y="585.596711"/>
     <use style="fill:#0072b2;stroke:#0072b2;" x="130.451752" xlink:href="#m08dab28a8f" y="579.913581"/>
     <use style="fill:#0072b2;stroke:#0072b2;" x="138.51609" xlink:href="#m08dab28a8f" y="578.085534"/>
     <use style="fill:#0072b2;stroke:#0072b2;" x="151.783226" xlink:href="#m08dab28a8f" y="578.262386"/>
     <use style="fill:#0072b2;stroke:#0072b2;" x="202.12031" xlink:href="#m08dab28a8f" y="469.518636"/>
     <use style="fill:#0072b2;stroke:#0072b2;" x="147.881132" xlink:href="#m08dab28a8f" y="580.911982"/>
     <use style="fill:#0072b2;stroke:#0072b2;" x="133.833577" xlink:href="#m08dab28a8f" y="577.587245"/>
     <use style="fill:#0072b2;stroke:#0072b2;" x="151.913297" xlink:href="#m08dab28a8f" y="579.268288"/>
     <use style="fill:#0072b2;stroke:#0072b2;" x="136.955256" xlink:href="#m08dab28a8f" y="574.433871"/>
     <use style="fill:#0072b2;stroke:#0072b2;" x="129.671334" xlink:href="#m08dab28a8f" y="584.422114"/>
     <use style="fill:#0072b2;stroke:#0072b2;" x="240.881178" xlink:href="#m08dab28a8f" y="572.52172"/>
     <use style="fill:#0072b2;stroke:#0072b2;" x="118.225176" xlink:href="#m08dab28a8f" y="586.416874"/>
     <use style="fill:#0072b2;stroke:#0072b2;" x="133.053157" xlink:href="#m08dab28a8f" y="582.9539"/>
     <use style="fill:#0072b2;stroke:#0072b2;" x="137.995813" xlink:href="#m08dab28a8f" y="572.361128"/>
     <use style="fill:#0072b2;stroke:#0072b2;" x="134.223784" xlink:href="#m08dab28a8f" y="578.027032"/>
     <use style="fill:#0072b2;stroke:#0072b2;" x="124.858744" xlink:href="#m08dab28a8f" y="594.075398"/>
     <use style="fill:#0072b2;stroke:#0072b2;" x="163.489534" xlink:href="#m08dab28a8f" y="582.235566"/>
     <use style="fill:#0072b2;stroke:#0072b2;" x="209.274169" xlink:href="#m08dab28a8f" y="573.583929"/>
     <use style="fill:#0072b2;stroke:#0072b2;" x="133.443366" xlink:href="#m08dab28a8f" y="580.15217"/>
     <use style="fill:#0072b2;stroke:#0072b2;" x="127.069935" xlink:href="#m08dab28a8f" y="581.441478"/>
     <use style="fill:#0072b2;stroke:#0072b2;" x="123.688113" xlink:href="#m08dab28a8f" y="579.214804"/>
     <use style="fill:#0072b2;stroke:#0072b2;" x="139.556653" xlink:href="#m08dab28a8f" y="584.945284"/>
     <use style="fill:#0072b2;stroke:#0072b2;" x="181.048982" xlink:href="#m08dab28a8f" y="560.547088"/>
     <use style="fill:#0072b2;stroke:#0072b2;" x="135.264345" xlink:href="#m08dab28a8f" y="577.31989"/>
     <use style="fill:#0072b2;stroke:#0072b2;" x="220.330157" xlink:href="#m08dab28a8f" y="572.580401"/>
     <use style="fill:#0072b2;stroke:#0072b2;" x="159.977639" xlink:href="#m08dab28a8f" y="583.637008"/>
     <use style="fill:#0072b2;stroke:#0072b2;" x="164.920317" xlink:href="#m08dab28a8f" y="558.739581"/>
     <use style="fill:#0072b2;stroke:#0072b2;" x="133.833577" xlink:href="#m08dab28a8f" y="568.984018"/>
     <use style="fill:#0072b2;stroke:#0072b2;" x="189.113322" xlink:href="#m08dab28a8f" y="579.699233"/>
     <use style="fill:#0072b2;stroke:#0072b2;" x="140.076935" xlink:href="#m08dab28a8f" y="579.362038"/>
     <use style="fill:#0072b2;stroke:#0072b2;" x="230.085346" xlink:href="#m08dab28a8f" y="577.366321"/>
     <use style="fill:#0072b2;stroke:#0072b2;" x="135.004204" xlink:href="#m08dab28a8f" y="582.228545"/>
     <use style="fill:#0072b2;stroke:#0072b2;" x="139.296515" xlink:href="#m08dab28a8f" y="571.901233"/>
     <use style="fill:#0072b2;stroke:#0072b2;" x="184.170693" xlink:href="#m08dab28a8f" y="573.419159"/>
     <use style="fill:#0072b2;stroke:#0072b2;" x="184.04061" xlink:href="#m08dab28a8f" y="558.747682"/>
     <use style="fill:#0072b2;stroke:#0072b2;" x="245.953919" xlink:href="#m08dab28a8f" y="578.281191"/>
     <use style="fill:#0072b2;stroke:#0072b2;" x="161.798626" xlink:href="#m08dab28a8f" y="573.145199"/>
     <use style="fill:#0072b2;stroke:#0072b2;" x="138.125881" xlink:href="#m08dab28a8f" y="580.102497"/>
     <use style="fill:#0072b2;stroke:#0072b2;" x="156.725899" xlink:href="#m08dab28a8f" y="577.27756"/>
     <use style="fill:#0072b2;stroke:#0072b2;" x="134.874134" xlink:href="#m08dab28a8f" y="579.253194"/>
     <use style="fill:#0072b2;stroke:#0072b2;" x="157.376244" xlink:href="#m08dab28a8f" y="544.540976"/>
     <use style="fill:#0072b2;stroke:#0072b2;" x="148.79162" xlink:href="#m08dab28a8f" y="536.502666"/>
     <use style="fill:#0072b2;stroke:#0072b2;" x="129.281127" xlink:href="#m08dab28a8f" y="587.795351"/>
     <use style="fill:#0072b2;stroke:#0072b2;" x="140.987424" xlink:href="#m08dab28a8f" y="564.414784"/>
     <use style="fill:#0072b2;stroke:#0072b2;" x="126.419585" xlink:href="#m08dab28a8f" y="588.048751"/>
     <use style="fill:#0072b2;stroke:#0072b2;" x="134.353859" xlink:href="#m08dab28a8f" y="580.909452"/>
     <use style="fill:#0072b2;stroke:#0072b2;" x="162.188839" xlink:href="#m08dab28a8f" y="583.414572"/>
     <use style="fill:#0072b2;stroke:#0072b2;" x="123.558044" xlink:href="#m08dab28a8f" y="591.479675"/>
     <use style="fill:#0072b2;stroke:#0072b2;" x="128.500701" xlink:href="#m08dab28a8f" y="579.539769"/>
     <use style="fill:#0072b2;stroke:#0072b2;" x="129.801406" xlink:href="#m08dab28a8f" y="585.462617"/>
     <use style="fill:#0072b2;stroke:#0072b2;" x="153.47415" xlink:href="#m08dab28a8f" y="563.518388"/>
     <use style="fill:#0072b2;stroke:#0072b2;" x="156.465748" xlink:href="#m08dab28a8f" y="570.667715"/>
     <use style="fill:#0072b2;stroke:#0072b2;" x="149.572045" xlink:href="#m08dab28a8f" y="559.780183"/>
     <use style="fill:#0072b2;stroke:#0072b2;" x="154.774835" xlink:href="#m08dab28a8f" y="584.012747"/>
     <use style="fill:#0072b2;stroke:#0072b2;" x="127.460144" xlink:href="#m08dab28a8f" y="589.04652"/>
     <use style="fill:#0072b2;stroke:#0072b2;" x="188.723113" xlink:href="#m08dab28a8f" y="558.876057"/>
     <use style="fill:#0072b2;stroke:#0072b2;" x="137.605604" xlink:href="#m08dab28a8f" y="572.747131"/>
     <use style="fill:#0072b2;stroke:#0072b2;" x="140.987424" xlink:href="#m08dab28a8f" y="575.971379"/>
     <use style="fill:#0072b2;stroke:#0072b2;" x="173.504909" xlink:href="#m08dab28a8f" y="563.95431"/>
     <use style="fill:#0072b2;stroke:#0072b2;" x="169.86296" xlink:href="#m08dab28a8f" y="573.488084"/>
     <use style="fill:#0072b2;stroke:#0072b2;" x="156.725899" xlink:href="#m08dab28a8f" y="574.528711"/>
     <use style="fill:#0072b2;stroke:#0072b2;" x="134.874134" xlink:href="#m08dab28a8f" y="588.664013"/>
     <use style="fill:#0072b2;stroke:#0072b2;" x="153.994422" xlink:href="#m08dab28a8f" y="575.406892"/>
     <use style="fill:#0072b2;stroke:#0072b2;" x="155.555262" xlink:href="#m08dab28a8f" y="572.974692"/>
     <use style="fill:#0072b2;stroke:#0072b2;" x="123.948254" xlink:href="#m08dab28a8f" y="588.645646"/>
     <use style="fill:#0072b2;stroke:#0072b2;" x="304.095147" xlink:href="#m08dab28a8f" y="571.136038"/>
     <use style="fill:#0072b2;stroke:#0072b2;" x="137.865742" xlink:href="#m08dab28a8f" y="575.622186"/>
     <use style="fill:#0072b2;stroke:#0072b2;" x="151.393012" xlink:href="#m08dab28a8f" y="576.601127"/>
     <use style="fill:#0072b2;stroke:#0072b2;" x="152.433578" xlink:href="#m08dab28a8f" y="575.563389"/>
     <use style="fill:#0072b2;stroke:#0072b2;" x="135.394413" xlink:href="#m08dab28a8f" y="585.996486"/>
     <use style="fill:#0072b2;stroke:#0072b2;" x="131.232178" xlink:href="#m08dab28a8f" y="584.442947"/>
     <use style="fill:#0072b2;stroke:#0072b2;" x="132.012599" xlink:href="#m08dab28a8f" y="567.481564"/>
     <use style="fill:#0072b2;stroke:#0072b2;" x="345.977697" xlink:href="#m08dab28a8f" y="551.460948"/>
     <use style="fill:#0072b2;stroke:#0072b2;" x="220.980487" xlink:href="#m08dab28a8f" y="568.171573"/>
     <use style="fill:#0072b2;stroke:#0072b2;" x="172.204219" xlink:href="#m08dab28a8f" y="569.329873"/>
     <use style="fill:#0072b2;stroke:#0072b2;" x="249.595873" xlink:href="#m08dab28a8f" y="560.917657"/>
     <use style="fill:#0072b2;stroke:#0072b2;" x="164.009816" xlink:href="#m08dab28a8f" y="578.500845"/>
     <use style="fill:#0072b2;stroke:#0072b2;" x="138.776238" xlink:href="#m08dab28a8f" y="575.653683"/>
     <use style="fill:#0072b2;stroke:#0072b2;" x="125.899303" xlink:href="#m08dab28a8f" y="578.149804"/>
     <use style="fill:#0072b2;stroke:#0072b2;" x="133.183227" xlink:href="#m08dab28a8f" y="581.69535"/>
     <use style="fill:#0072b2;stroke:#0072b2;" x="128.630775" xlink:href="#m08dab28a8f" y="583.653941"/>
     <use style="fill:#0072b2;stroke:#0072b2;" x="164.920317" xlink:href="#m08dab28a8f" y="560.851891"/>
     <use style="fill:#0072b2;stroke:#0072b2;" x="126.419585" xlink:href="#m08dab28a8f" y="583.574479"/>
     <use style="fill:#0072b2;stroke:#0072b2;" x="160.367853" xlink:href="#m08dab28a8f" y="576.127922"/>
     <use style="fill:#0072b2;stroke:#0072b2;" x="145.539873" xlink:href="#m08dab28a8f" y="557.340609"/>
     <use style="fill:#0072b2;stroke:#0072b2;" x="119.395806" xlink:href="#m08dab28a8f" y="577.562123"/>
     <use style="fill:#0072b2;stroke:#0072b2;" x="124.988813" xlink:href="#m08dab28a8f" y="577.28171"/>
     <use style="fill:#0072b2;stroke:#0072b2;" x="127.590212" xlink:href="#m08dab28a8f" y="590.196136"/>
     <use style="fill:#0072b2;stroke:#0072b2;" x="170.253184" xlink:href="#m08dab28a8f" y="574.020161"/>
     <use style="fill:#0072b2;stroke:#0072b2;" x="169.082552" xlink:href="#m08dab28a8f" y="571.200618"/>
     <use style="fill:#0072b2;stroke:#0072b2;" x="127.330074" xlink:href="#m08dab28a8f" y="575.999284"/>
     <use style="fill:#0072b2;stroke:#0072b2;" x="158.156667" xlink:href="#m08dab28a8f" y="579.670237"/>
     <use style="fill:#0072b2;stroke:#0072b2;" x="132.53288" xlink:href="#m08dab28a8f" y="579.867637"/>
     <use style="fill:#0072b2;stroke:#0072b2;" x="127.069935" xlink:href="#m08dab28a8f" y="577.005806"/>
     <use style="fill:#0072b2;stroke:#0072b2;" x="120.046154" xlink:href="#m08dab28a8f" y="592.098846"/>
     <use style="fill:#0072b2;stroke:#0072b2;" x="156.075539" xlink:href="#m08dab28a8f" y="582.685668"/>
     <use style="fill:#0072b2;stroke:#0072b2;" x="115.363636" xlink:href="#m08dab28a8f" y="586.137131"/>
     <use style="fill:#0072b2;stroke:#0072b2;" x="161.798626" xlink:href="#m08dab28a8f" y="568.37381"/>
     <use style="fill:#0072b2;stroke:#0072b2;" x="164.530103" xlink:href="#m08dab28a8f" y="529.84565"/>
     <use style="fill:#0072b2;stroke:#0072b2;" x="135.524478" xlink:href="#m08dab28a8f" y="585.82977"/>
     <use style="fill:#0072b2;stroke:#0072b2;" x="123.297904" xlink:href="#m08dab28a8f" y="574.902318"/>
     <use style="fill:#0072b2;stroke:#0072b2;" x="125.118887" xlink:href="#m08dab28a8f" y="586.111281"/>
     <use style="fill:#0072b2;stroke:#0072b2;" x="136.565045" xlink:href="#m08dab28a8f" y="563.112641"/>
     <use style="fill:#0072b2;stroke:#0072b2;" x="132.66295" xlink:href="#m08dab28a8f" y="570.784556"/>
     <use style="fill:#0072b2;stroke:#0072b2;" x="132.923086" xlink:href="#m08dab28a8f" y="583.872584"/>
     <use style="fill:#0072b2;stroke:#0072b2;" x="144.75945" xlink:href="#m08dab28a8f" y="589.9225"/>
     <use style="fill:#0072b2;stroke:#0072b2;" x="154.124485" xlink:href="#m08dab28a8f" y="567.455533"/>
     <use style="fill:#0072b2;stroke:#0072b2;" x="132.272734" xlink:href="#m08dab28a8f" y="579.111387"/>
     <use style="fill:#0072b2;stroke:#0072b2;" x="148.66155" xlink:href="#m08dab28a8f" y="558.098739"/>
     <use style="fill:#0072b2;stroke:#0072b2;" x="141.377633" xlink:href="#m08dab28a8f" y="580.292903"/>
     <use style="fill:#0072b2;stroke:#0072b2;" x="144.629392" xlink:href="#m08dab28a8f" y="579.729649"/>
     <use style="fill:#0072b2;stroke:#0072b2;" x="249.335737" xlink:href="#m08dab28a8f" y="570.058081"/>
     <use style="fill:#0072b2;stroke:#0072b2;" x="139.946867" xlink:href="#m08dab28a8f" y="569.748281"/>
     <use style="fill:#0072b2;stroke:#0072b2;" x="139.686729" xlink:href="#m08dab28a8f" y="567.596133"/>
     <use style="fill:#0072b2;stroke:#0072b2;" x="259.090985" xlink:href="#m08dab28a8f" y="559.851129"/>
     <use style="fill:#0072b2;stroke:#0072b2;" x="120.046154" xlink:href="#m08dab28a8f" y="572.494915"/>
     <use style="fill:#0072b2;stroke:#0072b2;" x="147.36085" xlink:href="#m08dab28a8f" y="583.964392"/>
     <use style="fill:#0072b2;stroke:#0072b2;" x="157.376244" xlink:href="#m08dab28a8f" y="580.897843"/>
     <use style="fill:#0072b2;stroke:#0072b2;" x="128.630775" xlink:href="#m08dab28a8f" y="580.654857"/>
     <use style="fill:#0072b2;stroke:#0072b2;" x="122.907696" xlink:href="#m08dab28a8f" y="574.156268"/>
     <use style="fill:#0072b2;stroke:#0072b2;" x="138.906301" xlink:href="#m08dab28a8f" y="576.98352"/>
     <use style="fill:#0072b2;stroke:#0072b2;" x="129.541266" xlink:href="#m08dab28a8f" y="579.913666"/>
     <use style="fill:#0072b2;stroke:#0072b2;" x="136.825181" xlink:href="#m08dab28a8f" y="567.73344"/>
     <use style="fill:#0072b2;stroke:#0072b2;" x="128.630775" xlink:href="#m08dab28a8f" y="587.351932"/>
     <use style="fill:#0072b2;stroke:#0072b2;" x="126.289513" xlink:href="#m08dab28a8f" y="580.173622"/>
     <use style="fill:#0072b2;stroke:#0072b2;" x="128.760848" xlink:href="#m08dab28a8f" y="579.868702"/>
     <use style="fill:#0072b2;stroke:#0072b2;" x="125.379026" xlink:href="#m08dab28a8f" y="579.914716"/>
     <use style="fill:#0072b2;stroke:#0072b2;" x="172.334292" xlink:href="#m08dab28a8f" y="575.94796"/>
    </g>
   </g>
   <g id="matplotlib.axis_1">
    <g id="xtick_1">
     <g id="line2d_1">
      <defs>
       <path d="M 0 0 
L 0 3.5 
" id="m000c04c1d1" style="stroke:#000000;stroke-width:0.8;"/>
      </defs>
      <g>
       <use style="stroke:#000000;stroke-width:0.8;" x="111.461537" xlink:href="#m000c04c1d1" y="630"/>
      </g>
     </g>
     <g id="text_1">
      <!-- 0 -->
      <g transform="translate(108.280287 644.598438)scale(0.1 -0.1)">
       <defs>
        <path d="M 31.78125 66.40625 
Q 24.171875 66.40625 20.328125 58.90625 
Q 16.5 51.421875 16.5 36.375 
Q 16.5 21.390625 20.328125 13.890625 
Q 24.171875 6.390625 31.78125 6.390625 
Q 39.453125 6.390625 43.28125 13.890625 
Q 47.125 21.390625 47.125 36.375 
Q 47.125 51.421875 43.28125 58.90625 
Q 39.453125 66.40625 31.78125 66.40625 
z
M 31.78125 74.21875 
Q 44.046875 74.21875 50.515625 64.515625 
Q 56.984375 54.828125 56.984375 36.375 
Q 56.984375 17.96875 50.515625 8.265625 
Q 44.046875 -1.421875 31.78125 -1.421875 
Q 19.53125 -1.421875 13.0625 8.265625 
Q 6.59375 17.96875 6.59375 36.375 
Q 6.59375 54.828125 13.0625 64.515625 
Q 19.53125 74.21875 31.78125 74.21875 
z
" id="DejaVuSans-48"/>
       </defs>
       <use xlink:href="#DejaVuSans-48"/>
      </g>
     </g>
    </g>
    <g id="xtick_2">
     <g id="line2d_2">
      <g>
       <use style="stroke:#000000;stroke-width:0.8;" x="176.496527" xlink:href="#m000c04c1d1" y="630"/>
      </g>
     </g>
     <g id="text_2">
      <!-- 50 -->
      <g transform="translate(170.134027 644.598438)scale(0.1 -0.1)">
       <defs>
        <path d="M 10.796875 72.90625 
L 49.515625 72.90625 
L 49.515625 64.59375 
L 19.828125 64.59375 
L 19.828125 46.734375 
Q 21.96875 47.46875 24.109375 47.828125 
Q 26.265625 48.1875 28.421875 48.1875 
Q 40.625 48.1875 47.75 41.5 
Q 54.890625 34.8125 54.890625 23.390625 
Q 54.890625 11.625 47.5625 5.09375 
Q 40.234375 -1.421875 26.90625 -1.421875 
Q 22.3125 -1.421875 17.546875 -0.640625 
Q 12.796875 0.140625 7.71875 1.703125 
L 7.71875 11.625 
Q 12.109375 9.234375 16.796875 8.0625 
Q 21.484375 6.890625 26.703125 6.890625 
Q 35.15625 6.890625 40.078125 11.328125 
Q 45.015625 15.765625 45.015625 23.390625 
Q 45.015625 31 40.078125 35.4375 
Q 35.15625 39.890625 26.703125 39.890625 
Q 22.75 39.890625 18.8125 39.015625 
Q 14.890625 38.140625 10.796875 36.28125 
z
" id="DejaVuSans-53"/>
       </defs>
       <use xlink:href="#DejaVuSans-53"/>
       <use x="63.623047" xlink:href="#DejaVuSans-48"/>
      </g>
     </g>
    </g>
    <g id="xtick_3">
     <g id="line2d_3">
      <g>
       <use style="stroke:#000000;stroke-width:0.8;" x="241.531518" xlink:href="#m000c04c1d1" y="630"/>
      </g>
     </g>
     <g id="text_3">
      <!-- 100 -->
      <g transform="translate(231.987768 644.598438)scale(0.1 -0.1)">
       <defs>
        <path d="M 12.40625 8.296875 
L 28.515625 8.296875 
L 28.515625 63.921875 
L 10.984375 60.40625 
L 10.984375 69.390625 
L 28.421875 72.90625 
L 38.28125 72.90625 
L 38.28125 8.296875 
L 54.390625 8.296875 
L 54.390625 0 
L 12.40625 0 
z
" id="DejaVuSans-49"/>
       </defs>
       <use xlink:href="#DejaVuSans-49"/>
       <use x="63.623047" xlink:href="#DejaVuSans-48"/>
       <use x="127.246094" xlink:href="#DejaVuSans-48"/>
      </g>
     </g>
    </g>
    <g id="xtick_4">
     <g id="line2d_4">
      <g>
       <use style="stroke:#000000;stroke-width:0.8;" x="306.566508" xlink:href="#m000c04c1d1" y="630"/>
      </g>
     </g>
     <g id="text_4">
      <!-- 150 -->
      <g transform="translate(297.022758 644.598438)scale(0.1 -0.1)">
       <use xlink:href="#DejaVuSans-49"/>
       <use x="63.623047" xlink:href="#DejaVuSans-53"/>
       <use x="127.246094" xlink:href="#DejaVuSans-48"/>
      </g>
     </g>
    </g>
    <g id="xtick_5">
     <g id="line2d_5">
      <g>
       <use style="stroke:#000000;stroke-width:0.8;" x="371.601499" xlink:href="#m000c04c1d1" y="630"/>
      </g>
     </g>
     <g id="text_5">
      <!-- 200 -->
      <g transform="translate(362.057749 644.598438)scale(0.1 -0.1)">
       <defs>
        <path d="M 19.1875 8.296875 
L 53.609375 8.296875 
L 53.609375 0 
L 7.328125 0 
L 7.328125 8.296875 
Q 12.9375 14.109375 22.625 23.890625 
Q 32.328125 33.6875 34.8125 36.53125 
Q 39.546875 41.84375 41.421875 45.53125 
Q 43.3125 49.21875 43.3125 52.78125 
Q 43.3125 58.59375 39.234375 62.25 
Q 35.15625 65.921875 28.609375 65.921875 
Q 23.96875 65.921875 18.8125 64.3125 
Q 13.671875 62.703125 7.8125 59.421875 
L 7.8125 69.390625 
Q 13.765625 71.78125 18.9375 73 
Q 24.125 74.21875 28.421875 74.21875 
Q 39.75 74.21875 46.484375 68.546875 
Q 53.21875 62.890625 53.21875 53.421875 
Q 53.21875 48.921875 51.53125 44.890625 
Q 49.859375 40.875 45.40625 35.40625 
Q 44.1875 33.984375 37.640625 27.21875 
Q 31.109375 20.453125 19.1875 8.296875 
z
" id="DejaVuSans-50"/>
       </defs>
       <use xlink:href="#DejaVuSans-50"/>
       <use x="63.623047" xlink:href="#DejaVuSans-48"/>
       <use x="127.246094" xlink:href="#DejaVuSans-48"/>
      </g>
     </g>
    </g>
    <g id="xtick_6">
     <g id="line2d_6">
      <g>
       <use style="stroke:#000000;stroke-width:0.8;" x="436.636489" xlink:href="#m000c04c1d1" y="630"/>
      </g>
     </g>
     <g id="text_6">
      <!-- 250 -->
      <g transform="translate(427.092739 644.598438)scale(0.1 -0.1)">
       <use xlink:href="#DejaVuSans-50"/>
       <use x="63.623047" xlink:href="#DejaVuSans-53"/>
       <use x="127.246094" xlink:href="#DejaVuSans-48"/>
      </g>
     </g>
    </g>
    <g id="xtick_7">
     <g id="line2d_7">
      <g>
       <use style="stroke:#000000;stroke-width:0.8;" x="501.67148" xlink:href="#m000c04c1d1" y="630"/>
      </g>
     </g>
     <g id="text_7">
      <!-- 300 -->
      <g transform="translate(492.12773 644.598438)scale(0.1 -0.1)">
       <defs>
        <path d="M 40.578125 39.3125 
Q 47.65625 37.796875 51.625 33 
Q 55.609375 28.21875 55.609375 21.1875 
Q 55.609375 10.40625 48.1875 4.484375 
Q 40.765625 -1.421875 27.09375 -1.421875 
Q 22.515625 -1.421875 17.65625 -0.515625 
Q 12.796875 0.390625 7.625 2.203125 
L 7.625 11.71875 
Q 11.71875 9.328125 16.59375 8.109375 
Q 21.484375 6.890625 26.8125 6.890625 
Q 36.078125 6.890625 40.9375 10.546875 
Q 45.796875 14.203125 45.796875 21.1875 
Q 45.796875 27.640625 41.28125 31.265625 
Q 36.765625 34.90625 28.71875 34.90625 
L 20.21875 34.90625 
L 20.21875 43.015625 
L 29.109375 43.015625 
Q 36.375 43.015625 40.234375 45.921875 
Q 44.09375 48.828125 44.09375 54.296875 
Q 44.09375 59.90625 40.109375 62.90625 
Q 36.140625 65.921875 28.71875 65.921875 
Q 24.65625 65.921875 20.015625 65.03125 
Q 15.375 64.15625 9.8125 62.3125 
L 9.8125 71.09375 
Q 15.4375 72.65625 20.34375 73.4375 
Q 25.25 74.21875 29.59375 74.21875 
Q 40.828125 74.21875 47.359375 69.109375 
Q 53.90625 64.015625 53.90625 55.328125 
Q 53.90625 49.265625 50.4375 45.09375 
Q 46.96875 40.921875 40.578125 39.3125 
z
" id="DejaVuSans-51"/>
       </defs>
       <use xlink:href="#DejaVuSans-51"/>
       <use x="63.623047" xlink:href="#DejaVuSans-48"/>
       <use x="127.246094" xlink:href="#DejaVuSans-48"/>
      </g>
     </g>
    </g>
    <g id="xtick_8">
     <g id="line2d_8">
      <g>
       <use style="stroke:#000000;stroke-width:0.8;" x="566.70647" xlink:href="#m000c04c1d1" y="630"/>
      </g>
     </g>
     <g id="text_8">
      <!-- 350 -->
      <g transform="translate(557.16272 644.598438)scale(0.1 -0.1)">
       <use xlink:href="#DejaVuSans-51"/>
       <use x="63.623047" xlink:href="#DejaVuSans-53"/>
       <use x="127.246094" xlink:href="#DejaVuSans-48"/>
      </g>
     </g>
    </g>
    <g id="xtick_9">
     <g id="line2d_9">
      <g>
       <use style="stroke:#000000;stroke-width:0.8;" x="631.741461" xlink:href="#m000c04c1d1" y="630"/>
      </g>
     </g>
     <g id="text_9">
      <!-- 400 -->
      <g transform="translate(622.197711 644.598438)scale(0.1 -0.1)">
       <defs>
        <path d="M 37.796875 64.3125 
L 12.890625 25.390625 
L 37.796875 25.390625 
z
M 35.203125 72.90625 
L 47.609375 72.90625 
L 47.609375 25.390625 
L 58.015625 25.390625 
L 58.015625 17.1875 
L 47.609375 17.1875 
L 47.609375 0 
L 37.796875 0 
L 37.796875 17.1875 
L 4.890625 17.1875 
L 4.890625 26.703125 
z
" id="DejaVuSans-52"/>
       </defs>
       <use xlink:href="#DejaVuSans-52"/>
       <use x="63.623047" xlink:href="#DejaVuSans-48"/>
       <use x="127.246094" xlink:href="#DejaVuSans-48"/>
      </g>
     </g>
    </g>
    <g id="text_10">
     <!-- Actual -->
     <g transform="translate(353.335938 658.276562)scale(0.1 -0.1)">
      <defs>
       <path d="M 34.1875 63.1875 
L 20.796875 26.90625 
L 47.609375 26.90625 
z
M 28.609375 72.90625 
L 39.796875 72.90625 
L 67.578125 0 
L 57.328125 0 
L 50.6875 18.703125 
L 17.828125 18.703125 
L 11.1875 0 
L 0.78125 0 
z
" id="DejaVuSans-65"/>
       <path d="M 48.78125 52.59375 
L 48.78125 44.1875 
Q 44.96875 46.296875 41.140625 47.34375 
Q 37.3125 48.390625 33.40625 48.390625 
Q 24.65625 48.390625 19.8125 42.84375 
Q 14.984375 37.3125 14.984375 27.296875 
Q 14.984375 17.28125 19.8125 11.734375 
Q 24.65625 6.203125 33.40625 6.203125 
Q 37.3125 6.203125 41.140625 7.25 
Q 44.96875 8.296875 48.78125 10.40625 
L 48.78125 2.09375 
Q 45.015625 0.34375 40.984375 -0.53125 
Q 36.96875 -1.421875 32.421875 -1.421875 
Q 20.0625 -1.421875 12.78125 6.34375 
Q 5.515625 14.109375 5.515625 27.296875 
Q 5.515625 40.671875 12.859375 48.328125 
Q 20.21875 56 33.015625 56 
Q 37.15625 56 41.109375 55.140625 
Q 45.0625 54.296875 48.78125 52.59375 
z
" id="DejaVuSans-99"/>
       <path d="M 18.3125 70.21875 
L 18.3125 54.6875 
L 36.8125 54.6875 
L 36.8125 47.703125 
L 18.3125 47.703125 
L 18.3125 18.015625 
Q 18.3125 11.328125 20.140625 9.421875 
Q 21.96875 7.515625 27.59375 7.515625 
L 36.8125 7.515625 
L 36.8125 0 
L 27.59375 0 
Q 17.1875 0 13.234375 3.875 
Q 9.28125 7.765625 9.28125 18.015625 
L 9.28125 47.703125 
L 2.6875 47.703125 
L 2.6875 54.6875 
L 9.28125 54.6875 
L 9.28125 70.21875 
z
" id="DejaVuSans-116"/>
       <path d="M 8.5 21.578125 
L 8.5 54.6875 
L 17.484375 54.6875 
L 17.484375 21.921875 
Q 17.484375 14.15625 20.5 10.265625 
Q 23.53125 6.390625 29.59375 6.390625 
Q 36.859375 6.390625 41.078125 11.03125 
Q 45.3125 15.671875 45.3125 23.6875 
L 45.3125 54.6875 
L 54.296875 54.6875 
L 54.296875 0 
L 45.3125 0 
L 45.3125 8.40625 
Q 42.046875 3.421875 37.71875 1 
Q 33.40625 -1.421875 27.6875 -1.421875 
Q 18.265625 -1.421875 13.375 4.4375 
Q 8.5 10.296875 8.5 21.578125 
z
M 31.109375 56 
z
" id="DejaVuSans-117"/>
       <path d="M 34.28125 27.484375 
Q 23.390625 27.484375 19.1875 25 
Q 14.984375 22.515625 14.984375 16.5 
Q 14.984375 11.71875 18.140625 8.90625 
Q 21.296875 6.109375 26.703125 6.109375 
Q 34.1875 6.109375 38.703125 11.40625 
Q 43.21875 16.703125 43.21875 25.484375 
L 43.21875 27.484375 
z
M 52.203125 31.203125 
L 52.203125 0 
L 43.21875 0 
L 43.21875 8.296875 
Q 40.140625 3.328125 35.546875 0.953125 
Q 30.953125 -1.421875 24.3125 -1.421875 
Q 15.921875 -1.421875 10.953125 3.296875 
Q 6 8.015625 6 15.921875 
Q 6 25.140625 12.171875 29.828125 
Q 18.359375 34.515625 30.609375 34.515625 
L 43.21875 34.515625 
L 43.21875 35.40625 
Q 43.21875 41.609375 39.140625 45 
Q 35.0625 48.390625 27.6875 48.390625 
Q 23 48.390625 18.546875 47.265625 
Q 14.109375 46.140625 10.015625 43.890625 
L 10.015625 52.203125 
Q 14.9375 54.109375 19.578125 55.046875 
Q 24.21875 56 28.609375 56 
Q 40.484375 56 46.34375 49.84375 
Q 52.203125 43.703125 52.203125 31.203125 
z
" id="DejaVuSans-97"/>
       <path d="M 9.421875 75.984375 
L 18.40625 75.984375 
L 18.40625 0 
L 9.421875 0 
z
" id="DejaVuSans-108"/>
      </defs>
      <use xlink:href="#DejaVuSans-65"/>
      <use x="66.658203" xlink:href="#DejaVuSans-99"/>
      <use x="121.638672" xlink:href="#DejaVuSans-116"/>
      <use x="160.847656" xlink:href="#DejaVuSans-117"/>
      <use x="224.226562" xlink:href="#DejaVuSans-97"/>
      <use x="285.505859" xlink:href="#DejaVuSans-108"/>
     </g>
    </g>
   </g>
   <g id="matplotlib.axis_2">
    <g id="ytick_1">
     <g id="line2d_10">
      <defs>
       <path d="M 0 0 
L -3.5 0 
" id="m47d723cd72" style="stroke:#000000;stroke-width:0.8;"/>
      </defs>
      <g>
       <use style="stroke:#000000;stroke-width:0.8;" x="90" xlink:href="#m47d723cd72" y="609.092309"/>
      </g>
     </g>
     <g id="text_11">
      <!-- 0 -->
      <g transform="translate(76.6375 612.891528)scale(0.1 -0.1)">
       <use xlink:href="#DejaVuSans-48"/>
      </g>
     </g>
    </g>
    <g id="ytick_2">
     <g id="line2d_11">
      <g>
       <use style="stroke:#000000;stroke-width:0.8;" x="90" xlink:href="#m47d723cd72" y="545.735641"/>
      </g>
     </g>
     <g id="text_12">
      <!-- 50 -->
      <g transform="translate(70.275 549.53486)scale(0.1 -0.1)">
       <use xlink:href="#DejaVuSans-53"/>
       <use x="63.623047" xlink:href="#DejaVuSans-48"/>
      </g>
     </g>
    </g>
    <g id="ytick_3">
     <g id="line2d_12">
      <g>
       <use style="stroke:#000000;stroke-width:0.8;" x="90" xlink:href="#m47d723cd72" y="482.378973"/>
      </g>
     </g>
     <g id="text_13">
      <!-- 100 -->
      <g transform="translate(63.9125 486.178192)scale(0.1 -0.1)">
       <use xlink:href="#DejaVuSans-49"/>
       <use x="63.623047" xlink:href="#DejaVuSans-48"/>
       <use x="127.246094" xlink:href="#DejaVuSans-48"/>
      </g>
     </g>
    </g>
    <g id="ytick_4">
     <g id="line2d_13">
      <g>
       <use style="stroke:#000000;stroke-width:0.8;" x="90" xlink:href="#m47d723cd72" y="419.022305"/>
      </g>
     </g>
     <g id="text_14">
      <!-- 150 -->
      <g transform="translate(63.9125 422.821523)scale(0.1 -0.1)">
       <use xlink:href="#DejaVuSans-49"/>
       <use x="63.623047" xlink:href="#DejaVuSans-53"/>
       <use x="127.246094" xlink:href="#DejaVuSans-48"/>
      </g>
     </g>
    </g>
    <g id="ytick_5">
     <g id="line2d_14">
      <g>
       <use style="stroke:#000000;stroke-width:0.8;" x="90" xlink:href="#m47d723cd72" y="355.665637"/>
      </g>
     </g>
     <g id="text_15">
      <!-- 200 -->
      <g transform="translate(63.9125 359.464855)scale(0.1 -0.1)">
       <use xlink:href="#DejaVuSans-50"/>
       <use x="63.623047" xlink:href="#DejaVuSans-48"/>
       <use x="127.246094" xlink:href="#DejaVuSans-48"/>
      </g>
     </g>
    </g>
    <g id="ytick_6">
     <g id="line2d_15">
      <g>
       <use style="stroke:#000000;stroke-width:0.8;" x="90" xlink:href="#m47d723cd72" y="292.308968"/>
      </g>
     </g>
     <g id="text_16">
      <!-- 250 -->
      <g transform="translate(63.9125 296.108187)scale(0.1 -0.1)">
       <use xlink:href="#DejaVuSans-50"/>
       <use x="63.623047" xlink:href="#DejaVuSans-53"/>
       <use x="127.246094" xlink:href="#DejaVuSans-48"/>
      </g>
     </g>
    </g>
    <g id="ytick_7">
     <g id="line2d_16">
      <g>
       <use style="stroke:#000000;stroke-width:0.8;" x="90" xlink:href="#m47d723cd72" y="228.9523"/>
      </g>
     </g>
     <g id="text_17">
      <!-- 300 -->
      <g transform="translate(63.9125 232.751519)scale(0.1 -0.1)">
       <use xlink:href="#DejaVuSans-51"/>
       <use x="63.623047" xlink:href="#DejaVuSans-48"/>
       <use x="127.246094" xlink:href="#DejaVuSans-48"/>
      </g>
     </g>
    </g>
    <g id="ytick_8">
     <g id="line2d_17">
      <g>
       <use style="stroke:#000000;stroke-width:0.8;" x="90" xlink:href="#m47d723cd72" y="165.595632"/>
      </g>
     </g>
     <g id="text_18">
      <!-- 350 -->
      <g transform="translate(63.9125 169.394851)scale(0.1 -0.1)">
       <use xlink:href="#DejaVuSans-51"/>
       <use x="63.623047" xlink:href="#DejaVuSans-53"/>
       <use x="127.246094" xlink:href="#DejaVuSans-48"/>
      </g>
     </g>
    </g>
    <g id="ytick_9">
     <g id="line2d_18">
      <g>
       <use style="stroke:#000000;stroke-width:0.8;" x="90" xlink:href="#m47d723cd72" y="102.238964"/>
      </g>
     </g>
     <g id="text_19">
      <!-- 400 -->
      <g transform="translate(63.9125 106.038183)scale(0.1 -0.1)">
       <use xlink:href="#DejaVuSans-52"/>
       <use x="63.623047" xlink:href="#DejaVuSans-48"/>
       <use x="127.246094" xlink:href="#DejaVuSans-48"/>
      </g>
     </g>
    </g>
    <g id="text_20">
     <!-- Predicted -->
     <g transform="translate(57.832812 381.670312)rotate(-90)scale(0.1 -0.1)">
      <defs>
       <path d="M 19.671875 64.796875 
L 19.671875 37.40625 
L 32.078125 37.40625 
Q 38.96875 37.40625 42.71875 40.96875 
Q 46.484375 44.53125 46.484375 51.125 
Q 46.484375 57.671875 42.71875 61.234375 
Q 38.96875 64.796875 32.078125 64.796875 
z
M 9.8125 72.90625 
L 32.078125 72.90625 
Q 44.34375 72.90625 50.609375 67.359375 
Q 56.890625 61.8125 56.890625 51.125 
Q 56.890625 40.328125 50.609375 34.8125 
Q 44.34375 29.296875 32.078125 29.296875 
L 19.671875 29.296875 
L 19.671875 0 
L 9.8125 0 
z
" id="DejaVuSans-80"/>
       <path d="M 41.109375 46.296875 
Q 39.59375 47.171875 37.8125 47.578125 
Q 36.03125 48 33.890625 48 
Q 26.265625 48 22.1875 43.046875 
Q 18.109375 38.09375 18.109375 28.8125 
L 18.109375 0 
L 9.078125 0 
L 9.078125 54.6875 
L 18.109375 54.6875 
L 18.109375 46.1875 
Q 20.953125 51.171875 25.484375 53.578125 
Q 30.03125 56 36.53125 56 
Q 37.453125 56 38.578125 55.875 
Q 39.703125 55.765625 41.0625 55.515625 
z
" id="DejaVuSans-114"/>
       <path d="M 56.203125 29.59375 
L 56.203125 25.203125 
L 14.890625 25.203125 
Q 15.484375 15.921875 20.484375 11.0625 
Q 25.484375 6.203125 34.421875 6.203125 
Q 39.59375 6.203125 44.453125 7.46875 
Q 49.3125 8.734375 54.109375 11.28125 
L 54.109375 2.78125 
Q 49.265625 0.734375 44.1875 -0.34375 
Q 39.109375 -1.421875 33.890625 -1.421875 
Q 20.796875 -1.421875 13.15625 6.1875 
Q 5.515625 13.8125 5.515625 26.8125 
Q 5.515625 40.234375 12.765625 48.109375 
Q 20.015625 56 32.328125 56 
Q 43.359375 56 49.78125 48.890625 
Q 56.203125 41.796875 56.203125 29.59375 
z
M 47.21875 32.234375 
Q 47.125 39.59375 43.09375 43.984375 
Q 39.0625 48.390625 32.421875 48.390625 
Q 24.90625 48.390625 20.390625 44.140625 
Q 15.875 39.890625 15.1875 32.171875 
z
" id="DejaVuSans-101"/>
       <path d="M 45.40625 46.390625 
L 45.40625 75.984375 
L 54.390625 75.984375 
L 54.390625 0 
L 45.40625 0 
L 45.40625 8.203125 
Q 42.578125 3.328125 38.25 0.953125 
Q 33.9375 -1.421875 27.875 -1.421875 
Q 17.96875 -1.421875 11.734375 6.484375 
Q 5.515625 14.40625 5.515625 27.296875 
Q 5.515625 40.1875 11.734375 48.09375 
Q 17.96875 56 27.875 56 
Q 33.9375 56 38.25 53.625 
Q 42.578125 51.265625 45.40625 46.390625 
z
M 14.796875 27.296875 
Q 14.796875 17.390625 18.875 11.75 
Q 22.953125 6.109375 30.078125 6.109375 
Q 37.203125 6.109375 41.296875 11.75 
Q 45.40625 17.390625 45.40625 27.296875 
Q 45.40625 37.203125 41.296875 42.84375 
Q 37.203125 48.484375 30.078125 48.484375 
Q 22.953125 48.484375 18.875 42.84375 
Q 14.796875 37.203125 14.796875 27.296875 
z
" id="DejaVuSans-100"/>
       <path d="M 9.421875 54.6875 
L 18.40625 54.6875 
L 18.40625 0 
L 9.421875 0 
z
M 9.421875 75.984375 
L 18.40625 75.984375 
L 18.40625 64.59375 
L 9.421875 64.59375 
z
" id="DejaVuSans-105"/>
      </defs>
      <use xlink:href="#DejaVuSans-80"/>
      <use x="58.552734" xlink:href="#DejaVuSans-114"/>
      <use x="97.416016" xlink:href="#DejaVuSans-101"/>
      <use x="158.939453" xlink:href="#DejaVuSans-100"/>
      <use x="222.416016" xlink:href="#DejaVuSans-105"/>
      <use x="250.199219" xlink:href="#DejaVuSans-99"/>
      <use x="305.179688" xlink:href="#DejaVuSans-116"/>
      <use x="344.388672" xlink:href="#DejaVuSans-101"/>
      <use x="405.912109" xlink:href="#DejaVuSans-100"/>
     </g>
    </g>
   </g>
   <g id="line2d_19">
    <path clip-path="url(#p7e2d3d2ae3)" d="M 115.363636 605.290909 
L 622.636364 111.109091 
" style="fill:none;stroke:#000000;stroke-dasharray:14.8,6.4;stroke-dashoffset:0;stroke-width:4;"/>
   </g>
   <g id="line2d_20">
    <path clip-path="url(#p7e2d3d2ae3)" d="M 314.110631 560.905066 
L 115.363636 578.828578 
L 622.636364 533.081438 
L 172.334292 573.690819 
" style="fill:none;stroke:#0072b2;stroke-linecap:square;stroke-width:1.5;"/>
   </g>
   <g id="patch_3">
    <path d="M 90 630 
L 90 86.4 
" style="fill:none;stroke:#000000;stroke-linecap:square;stroke-linejoin:miter;stroke-width:0.8;"/>
   </g>
   <g id="patch_4">
    <path d="M 648 630 
L 648 86.4 
" style="fill:none;stroke:#000000;stroke-linecap:square;stroke-linejoin:miter;stroke-width:0.8;"/>
   </g>
   <g id="patch_5">
    <path d="M 90 630 
L 648 630 
" style="fill:none;stroke:#000000;stroke-linecap:square;stroke-linejoin:miter;stroke-width:0.8;"/>
   </g>
   <g id="patch_6">
    <path d="M 90 86.4 
L 648 86.4 
" style="fill:none;stroke:#000000;stroke-linecap:square;stroke-linejoin:miter;stroke-width:0.8;"/>
   </g>
   <g id="text_21">
    <!-- MSE: 1551.281   ME: -7.524   MEC: 0.089   CCC: 0.169 -->
    <g transform="translate(206.32875 80.4)scale(0.12 -0.12)">
     <defs>
      <path d="M 9.8125 72.90625 
L 24.515625 72.90625 
L 43.109375 23.296875 
L 61.8125 72.90625 
L 76.515625 72.90625 
L 76.515625 0 
L 66.890625 0 
L 66.890625 64.015625 
L 48.09375 14.015625 
L 38.1875 14.015625 
L 19.390625 64.015625 
L 19.390625 0 
L 9.8125 0 
z
" id="DejaVuSans-77"/>
      <path d="M 53.515625 70.515625 
L 53.515625 60.890625 
Q 47.90625 63.578125 42.921875 64.890625 
Q 37.9375 66.21875 33.296875 66.21875 
Q 25.25 66.21875 20.875 63.09375 
Q 16.5 59.96875 16.5 54.203125 
Q 16.5 49.359375 19.40625 46.890625 
Q 22.3125 44.4375 30.421875 42.921875 
L 36.375 41.703125 
Q 47.40625 39.59375 52.65625 34.296875 
Q 57.90625 29 57.90625 20.125 
Q 57.90625 9.515625 50.796875 4.046875 
Q 43.703125 -1.421875 29.984375 -1.421875 
Q 24.8125 -1.421875 18.96875 -0.25 
Q 13.140625 0.921875 6.890625 3.21875 
L 6.890625 13.375 
Q 12.890625 10.015625 18.65625 8.296875 
Q 24.421875 6.59375 29.984375 6.59375 
Q 38.421875 6.59375 43.015625 9.90625 
Q 47.609375 13.234375 47.609375 19.390625 
Q 47.609375 24.75 44.3125 27.78125 
Q 41.015625 30.8125 33.5 32.328125 
L 27.484375 33.5 
Q 16.453125 35.6875 11.515625 40.375 
Q 6.59375 45.0625 6.59375 53.421875 
Q 6.59375 63.09375 13.40625 68.65625 
Q 20.21875 74.21875 32.171875 74.21875 
Q 37.3125 74.21875 42.625 73.28125 
Q 47.953125 72.359375 53.515625 70.515625 
z
" id="DejaVuSans-83"/>
      <path d="M 9.8125 72.90625 
L 55.90625 72.90625 
L 55.90625 64.59375 
L 19.671875 64.59375 
L 19.671875 43.015625 
L 54.390625 43.015625 
L 54.390625 34.71875 
L 19.671875 34.71875 
L 19.671875 8.296875 
L 56.78125 8.296875 
L 56.78125 0 
L 9.8125 0 
z
" id="DejaVuSans-69"/>
      <path d="M 11.71875 12.40625 
L 22.015625 12.40625 
L 22.015625 0 
L 11.71875 0 
z
M 11.71875 51.703125 
L 22.015625 51.703125 
L 22.015625 39.3125 
L 11.71875 39.3125 
z
" id="DejaVuSans-58"/>
      <path id="DejaVuSans-32"/>
      <path d="M 10.6875 12.40625 
L 21 12.40625 
L 21 0 
L 10.6875 0 
z
" id="DejaVuSans-46"/>
      <path d="M 31.78125 34.625 
Q 24.75 34.625 20.71875 30.859375 
Q 16.703125 27.09375 16.703125 20.515625 
Q 16.703125 13.921875 20.71875 10.15625 
Q 24.75 6.390625 31.78125 6.390625 
Q 38.8125 6.390625 42.859375 10.171875 
Q 46.921875 13.96875 46.921875 20.515625 
Q 46.921875 27.09375 42.890625 30.859375 
Q 38.875 34.625 31.78125 34.625 
z
M 21.921875 38.8125 
Q 15.578125 40.375 12.03125 44.71875 
Q 8.5 49.078125 8.5 55.328125 
Q 8.5 64.0625 14.71875 69.140625 
Q 20.953125 74.21875 31.78125 74.21875 
Q 42.671875 74.21875 48.875 69.140625 
Q 55.078125 64.0625 55.078125 55.328125 
Q 55.078125 49.078125 51.53125 44.71875 
Q 48 40.375 41.703125 38.8125 
Q 48.828125 37.15625 52.796875 32.3125 
Q 56.78125 27.484375 56.78125 20.515625 
Q 56.78125 9.90625 50.3125 4.234375 
Q 43.84375 -1.421875 31.78125 -1.421875 
Q 19.734375 -1.421875 13.25 4.234375 
Q 6.78125 9.90625 6.78125 20.515625 
Q 6.78125 27.484375 10.78125 32.3125 
Q 14.796875 37.15625 21.921875 38.8125 
z
M 18.3125 54.390625 
Q 18.3125 48.734375 21.84375 45.5625 
Q 25.390625 42.390625 31.78125 42.390625 
Q 38.140625 42.390625 41.71875 45.5625 
Q 45.3125 48.734375 45.3125 54.390625 
Q 45.3125 60.0625 41.71875 63.234375 
Q 38.140625 66.40625 31.78125 66.40625 
Q 25.390625 66.40625 21.84375 63.234375 
Q 18.3125 60.0625 18.3125 54.390625 
z
" id="DejaVuSans-56"/>
      <path d="M 4.890625 31.390625 
L 31.203125 31.390625 
L 31.203125 23.390625 
L 4.890625 23.390625 
z
" id="DejaVuSans-45"/>
      <path d="M 8.203125 72.90625 
L 55.078125 72.90625 
L 55.078125 68.703125 
L 28.609375 0 
L 18.3125 0 
L 43.21875 64.59375 
L 8.203125 64.59375 
z
" id="DejaVuSans-55"/>
      <path d="M 64.40625 67.28125 
L 64.40625 56.890625 
Q 59.421875 61.53125 53.78125 63.8125 
Q 48.140625 66.109375 41.796875 66.109375 
Q 29.296875 66.109375 22.65625 58.46875 
Q 16.015625 50.828125 16.015625 36.375 
Q 16.015625 21.96875 22.65625 14.328125 
Q 29.296875 6.6875 41.796875 6.6875 
Q 48.140625 6.6875 53.78125 8.984375 
Q 59.421875 11.28125 64.40625 15.921875 
L 64.40625 5.609375 
Q 59.234375 2.09375 53.4375 0.328125 
Q 47.65625 -1.421875 41.21875 -1.421875 
Q 24.65625 -1.421875 15.125 8.703125 
Q 5.609375 18.84375 5.609375 36.375 
Q 5.609375 53.953125 15.125 64.078125 
Q 24.65625 74.21875 41.21875 74.21875 
Q 47.75 74.21875 53.53125 72.484375 
Q 59.328125 70.75 64.40625 67.28125 
z
" id="DejaVuSans-67"/>
      <path d="M 10.984375 1.515625 
L 10.984375 10.5 
Q 14.703125 8.734375 18.5 7.8125 
Q 22.3125 6.890625 25.984375 6.890625 
Q 35.75 6.890625 40.890625 13.453125 
Q 46.046875 20.015625 46.78125 33.40625 
Q 43.953125 29.203125 39.59375 26.953125 
Q 35.25 24.703125 29.984375 24.703125 
Q 19.046875 24.703125 12.671875 31.3125 
Q 6.296875 37.9375 6.296875 49.421875 
Q 6.296875 60.640625 12.9375 67.421875 
Q 19.578125 74.21875 30.609375 74.21875 
Q 43.265625 74.21875 49.921875 64.515625 
Q 56.59375 54.828125 56.59375 36.375 
Q 56.59375 19.140625 48.40625 8.859375 
Q 40.234375 -1.421875 26.421875 -1.421875 
Q 22.703125 -1.421875 18.890625 -0.6875 
Q 15.09375 0.046875 10.984375 1.515625 
z
M 30.609375 32.421875 
Q 37.25 32.421875 41.125 36.953125 
Q 45.015625 41.5 45.015625 49.421875 
Q 45.015625 57.28125 41.125 61.84375 
Q 37.25 66.40625 30.609375 66.40625 
Q 23.96875 66.40625 20.09375 61.84375 
Q 16.21875 57.28125 16.21875 49.421875 
Q 16.21875 41.5 20.09375 36.953125 
Q 23.96875 32.421875 30.609375 32.421875 
z
" id="DejaVuSans-57"/>
      <path d="M 33.015625 40.375 
Q 26.375 40.375 22.484375 35.828125 
Q 18.609375 31.296875 18.609375 23.390625 
Q 18.609375 15.53125 22.484375 10.953125 
Q 26.375 6.390625 33.015625 6.390625 
Q 39.65625 6.390625 43.53125 10.953125 
Q 47.40625 15.53125 47.40625 23.390625 
Q 47.40625 31.296875 43.53125 35.828125 
Q 39.65625 40.375 33.015625 40.375 
z
M 52.59375 71.296875 
L 52.59375 62.3125 
Q 48.875 64.0625 45.09375 64.984375 
Q 41.3125 65.921875 37.59375 65.921875 
Q 27.828125 65.921875 22.671875 59.328125 
Q 17.53125 52.734375 16.796875 39.40625 
Q 19.671875 43.65625 24.015625 45.921875 
Q 28.375 48.1875 33.59375 48.1875 
Q 44.578125 48.1875 50.953125 41.515625 
Q 57.328125 34.859375 57.328125 23.390625 
Q 57.328125 12.15625 50.6875 5.359375 
Q 44.046875 -1.421875 33.015625 -1.421875 
Q 20.359375 -1.421875 13.671875 8.265625 
Q 6.984375 17.96875 6.984375 36.375 
Q 6.984375 53.65625 15.1875 63.9375 
Q 23.390625 74.21875 37.203125 74.21875 
Q 40.921875 74.21875 44.703125 73.484375 
Q 48.484375 72.75 52.59375 71.296875 
z
" id="DejaVuSans-54"/>
     </defs>
     <use xlink:href="#DejaVuSans-77"/>
     <use x="86.279297" xlink:href="#DejaVuSans-83"/>
     <use x="149.755859" xlink:href="#DejaVuSans-69"/>
     <use x="212.939453" xlink:href="#DejaVuSans-58"/>
     <use x="246.630859" xlink:href="#DejaVuSans-32"/>
     <use x="278.417969" xlink:href="#DejaVuSans-49"/>
     <use x="342.041016" xlink:href="#DejaVuSans-53"/>
     <use x="405.664062" xlink:href="#DejaVuSans-53"/>
     <use x="469.287109" xlink:href="#DejaVuSans-49"/>
     <use x="532.910156" xlink:href="#DejaVuSans-46"/>
     <use x="564.697266" xlink:href="#DejaVuSans-50"/>
     <use x="628.320312" xlink:href="#DejaVuSans-56"/>
     <use x="691.943359" xlink:href="#DejaVuSans-49"/>
     <use x="755.566406" xlink:href="#DejaVuSans-32"/>
     <use x="787.353516" xlink:href="#DejaVuSans-32"/>
     <use x="819.140625" xlink:href="#DejaVuSans-32"/>
     <use x="850.927734" xlink:href="#DejaVuSans-77"/>
     <use x="937.207031" xlink:href="#DejaVuSans-69"/>
     <use x="1000.390625" xlink:href="#DejaVuSans-58"/>
     <use x="1034.082031" xlink:href="#DejaVuSans-32"/>
     <use x="1065.869141" xlink:href="#DejaVuSans-45"/>
     <use x="1101.953125" xlink:href="#DejaVuSans-55"/>
     <use x="1165.576172" xlink:href="#DejaVuSans-46"/>
     <use x="1197.363281" xlink:href="#DejaVuSans-53"/>
     <use x="1260.986328" xlink:href="#DejaVuSans-50"/>
     <use x="1324.609375" xlink:href="#DejaVuSans-52"/>
     <use x="1388.232422" xlink:href="#DejaVuSans-32"/>
     <use x="1420.019531" xlink:href="#DejaVuSans-32"/>
     <use x="1451.806641" xlink:href="#DejaVuSans-32"/>
     <use x="1483.59375" xlink:href="#DejaVuSans-77"/>
     <use x="1569.873047" xlink:href="#DejaVuSans-69"/>
     <use x="1633.056641" xlink:href="#DejaVuSans-67"/>
     <use x="1702.880859" xlink:href="#DejaVuSans-58"/>
     <use x="1736.572266" xlink:href="#DejaVuSans-32"/>
     <use x="1768.359375" xlink:href="#DejaVuSans-48"/>
     <use x="1831.982422" xlink:href="#DejaVuSans-46"/>
     <use x="1863.769531" xlink:href="#DejaVuSans-48"/>
     <use x="1927.392578" xlink:href="#DejaVuSans-56"/>
     <use x="1991.015625" xlink:href="#DejaVuSans-57"/>
     <use x="2054.638672" xlink:href="#DejaVuSans-32"/>
     <use x="2086.425781" xlink:href="#DejaVuSans-32"/>
     <use x="2118.212891" xlink:href="#DejaVuSans-32"/>
     <use x="2150" xlink:href="#DejaVuSans-67"/>
     <use x="2219.824219" xlink:href="#DejaVuSans-67"/>
     <use x="2289.648438" xlink:href="#DejaVuSans-67"/>
     <use x="2359.472656" xlink:href="#DejaVuSans-58"/>
     <use x="2393.164062" xlink:href="#DejaVuSans-32"/>
     <use x="2424.951172" xlink:href="#DejaVuSans-48"/>
     <use x="2488.574219" xlink:href="#DejaVuSans-46"/>
     <use x="2520.361328" xlink:href="#DejaVuSans-49"/>
     <use x="2583.984375" xlink:href="#DejaVuSans-54"/>
     <use x="2647.607422" xlink:href="#DejaVuSans-57"/>
    </g>
   </g>
  </g>
 </g>
 <defs>
  <clipPath id="p7e2d3d2ae3">
   <rect height="543.6" width="558" x="90" y="86.4"/>
  </clipPath>
 </defs>
</svg>
