<?xml version="1.0" encoding="utf-8" standalone="no"?>
<!DOCTYPE svg PUBLIC "-//W3C//DTD SVG 1.1//EN"
  "http://www.w3.org/Graphics/SVG/1.1/DTD/svg11.dtd">
<!-- Created with matplotlib (https://matplotlib.org/) -->
<svg height="345.6pt" version="1.1" viewBox="0 0 460.8 345.6" width="460.8pt" xmlns="http://www.w3.org/2000/svg" xmlns:xlink="http://www.w3.org/1999/xlink">
 <metadata>
  <rdf:RDF xmlns:cc="http://creativecommons.org/ns#" xmlns:dc="http://purl.org/dc/elements/1.1/" xmlns:rdf="http://www.w3.org/1999/02/22-rdf-syntax-ns#">
   <cc:Work>
    <dc:type rdf:resource="http://purl.org/dc/dcmitype/StillImage"/>
    <dc:date>2020-12-12T20:50:12.774473</dc:date>
    <dc:format>image/svg+xml</dc:format>
    <dc:creator>
     <cc:Agent>
      <dc:title>Matplotlib v3.3.2, https://matplotlib.org/</dc:title>
     </cc:Agent>
    </dc:creator>
   </cc:Work>
  </rdf:RDF>
 </metadata>
 <defs>
  <style type="text/css">*{stroke-linecap:butt;stroke-linejoin:round;}</style>
 </defs>
 <g id="figure_1">
  <g id="patch_1">
   <path d="M 0 345.6 
L 460.8 345.6 
L 460.8 0 
L 0 0 
z
" style="fill:none;"/>
  </g>
  <g id="axes_1">
   <g id="patch_2">
    <path d="M 57.6 307.584 
L 414.72 307.584 
L 414.72 41.472 
L 57.6 41.472 
z
" style="fill:none;"/>
   </g>
   <g id="patch_3">
    <path clip-path="url(#p5df1de2a5e)" d="M 73.832727 307.584 
L 77.079273 307.584 
L 77.079273 265.573565 
L 73.832727 265.573565 
z
" style="fill:#0072b2;"/>
   </g>
   <g id="patch_4">
    <path clip-path="url(#p5df1de2a5e)" d="M 77.079273 307.584 
L 80.325818 307.584 
L 80.325818 89.956174 
L 77.079273 89.956174 
z
" style="fill:#0072b2;"/>
   </g>
   <g id="patch_5">
    <path clip-path="url(#p5df1de2a5e)" d="M 80.325818 307.584 
L 83.572364 307.584 
L 83.572364 54.144 
L 80.325818 54.144 
z
" style="fill:#0072b2;"/>
   </g>
   <g id="patch_6">
    <path clip-path="url(#p5df1de2a5e)" d="M 83.572364 307.584 
L 86.818909 307.584 
L 86.818909 138.16487 
L 83.572364 138.16487 
z
" style="fill:#0072b2;"/>
   </g>
   <g id="patch_7">
    <path clip-path="url(#p5df1de2a5e)" d="M 86.818909 307.584 
L 90.065455 307.584 
L 90.065455 189.817043 
L 86.818909 189.817043 
z
" style="fill:#0072b2;"/>
   </g>
   <g id="patch_8">
    <path clip-path="url(#p5df1de2a5e)" d="M 90.065455 307.584 
L 93.312 307.584 
L 93.312 193.949217 
L 90.065455 193.949217 
z
" style="fill:#0072b2;"/>
   </g>
   <g id="patch_9">
    <path clip-path="url(#p5df1de2a5e)" d="M 93.312 307.584 
L 96.558545 307.584 
L 96.558545 243.535304 
L 93.312 243.535304 
z
" style="fill:#0072b2;"/>
   </g>
   <g id="patch_10">
    <path clip-path="url(#p5df1de2a5e)" d="M 96.558545 307.584 
L 99.805091 307.584 
L 99.805091 264.88487 
L 96.558545 264.88487 
z
" style="fill:#0072b2;"/>
   </g>
   <g id="patch_11">
    <path clip-path="url(#p5df1de2a5e)" d="M 99.805091 307.584 
L 103.051636 307.584 
L 103.051636 268.328348 
L 99.805091 268.328348 
z
" style="fill:#0072b2;"/>
   </g>
   <g id="patch_12">
    <path clip-path="url(#p5df1de2a5e)" d="M 103.051636 307.584 
L 106.298182 307.584 
L 106.298182 285.545739 
L 103.051636 285.545739 
z
" style="fill:#0072b2;"/>
   </g>
   <g id="patch_13">
    <path clip-path="url(#p5df1de2a5e)" d="M 106.298182 307.584 
L 109.544727 307.584 
L 109.544727 284.857043 
L 106.298182 284.857043 
z
" style="fill:#0072b2;"/>
   </g>
   <g id="patch_14">
    <path clip-path="url(#p5df1de2a5e)" d="M 109.544727 307.584 
L 112.791273 307.584 
L 112.791273 298.630957 
L 109.544727 298.630957 
z
" style="fill:#0072b2;"/>
   </g>
   <g id="patch_15">
    <path clip-path="url(#p5df1de2a5e)" d="M 112.791273 307.584 
L 116.037818 307.584 
L 116.037818 296.56487 
L 112.791273 296.56487 
z
" style="fill:#0072b2;"/>
   </g>
   <g id="patch_16">
    <path clip-path="url(#p5df1de2a5e)" d="M 116.037818 307.584 
L 119.284364 307.584 
L 119.284364 300.008348 
L 116.037818 300.008348 
z
" style="fill:#0072b2;"/>
   </g>
   <g id="patch_17">
    <path clip-path="url(#p5df1de2a5e)" d="M 119.284364 307.584 
L 122.530909 307.584 
L 122.530909 300.697043 
L 119.284364 300.697043 
z
" style="fill:#0072b2;"/>
   </g>
   <g id="patch_18">
    <path clip-path="url(#p5df1de2a5e)" d="M 122.530909 307.584 
L 125.777455 307.584 
L 125.777455 298.630957 
L 122.530909 298.630957 
z
" style="fill:#0072b2;"/>
   </g>
   <g id="patch_19">
    <path clip-path="url(#p5df1de2a5e)" d="M 125.777455 307.584 
L 129.024 307.584 
L 129.024 303.451826 
L 125.777455 303.451826 
z
" style="fill:#0072b2;"/>
   </g>
   <g id="patch_20">
    <path clip-path="url(#p5df1de2a5e)" d="M 129.024 307.584 
L 132.270545 307.584 
L 132.270545 305.517913 
L 129.024 305.517913 
z
" style="fill:#0072b2;"/>
   </g>
   <g id="patch_21">
    <path clip-path="url(#p5df1de2a5e)" d="M 132.270545 307.584 
L 135.517091 307.584 
L 135.517091 304.140522 
L 132.270545 304.140522 
z
" style="fill:#0072b2;"/>
   </g>
   <g id="patch_22">
    <path clip-path="url(#p5df1de2a5e)" d="M 135.517091 307.584 
L 138.763636 307.584 
L 138.763636 305.517913 
L 135.517091 305.517913 
z
" style="fill:#0072b2;"/>
   </g>
   <g id="patch_23">
    <path clip-path="url(#p5df1de2a5e)" d="M 138.763636 307.584 
L 142.010182 307.584 
L 142.010182 301.385739 
L 138.763636 301.385739 
z
" style="fill:#0072b2;"/>
   </g>
   <g id="patch_24">
    <path clip-path="url(#p5df1de2a5e)" d="M 142.010182 307.584 
L 145.256727 307.584 
L 145.256727 306.206609 
L 142.010182 306.206609 
z
" style="fill:#0072b2;"/>
   </g>
   <g id="patch_25">
    <path clip-path="url(#p5df1de2a5e)" d="M 145.256727 307.584 
L 148.503273 307.584 
L 148.503273 302.76313 
L 145.256727 302.76313 
z
" style="fill:#0072b2;"/>
   </g>
   <g id="patch_26">
    <path clip-path="url(#p5df1de2a5e)" d="M 148.503273 307.584 
L 151.749818 307.584 
L 151.749818 305.517913 
L 148.503273 305.517913 
z
" style="fill:#0072b2;"/>
   </g>
   <g id="patch_27">
    <path clip-path="url(#p5df1de2a5e)" d="M 151.749818 307.584 
L 154.996364 307.584 
L 154.996364 303.451826 
L 151.749818 303.451826 
z
" style="fill:#0072b2;"/>
   </g>
   <g id="patch_28">
    <path clip-path="url(#p5df1de2a5e)" d="M 154.996364 307.584 
L 158.242909 307.584 
L 158.242909 306.895304 
L 154.996364 306.895304 
z
" style="fill:#0072b2;"/>
   </g>
   <g id="patch_29">
    <path clip-path="url(#p5df1de2a5e)" d="M 158.242909 307.584 
L 161.489455 307.584 
L 161.489455 306.206609 
L 158.242909 306.206609 
z
" style="fill:#0072b2;"/>
   </g>
   <g id="patch_30">
    <path clip-path="url(#p5df1de2a5e)" d="M 161.489455 307.584 
L 164.736 307.584 
L 164.736 306.206609 
L 161.489455 306.206609 
z
" style="fill:#0072b2;"/>
   </g>
   <g id="patch_31">
    <path clip-path="url(#p5df1de2a5e)" d="M 164.736 307.584 
L 167.982545 307.584 
L 167.982545 306.206609 
L 164.736 306.206609 
z
" style="fill:#0072b2;"/>
   </g>
   <g id="patch_32">
    <path clip-path="url(#p5df1de2a5e)" d="M 167.982545 307.584 
L 171.229091 307.584 
L 171.229091 307.584 
L 167.982545 307.584 
z
" style="fill:#0072b2;"/>
   </g>
   <g id="patch_33">
    <path clip-path="url(#p5df1de2a5e)" d="M 171.229091 307.584 
L 174.475636 307.584 
L 174.475636 306.895304 
L 171.229091 306.895304 
z
" style="fill:#0072b2;"/>
   </g>
   <g id="patch_34">
    <path clip-path="url(#p5df1de2a5e)" d="M 174.475636 307.584 
L 177.722182 307.584 
L 177.722182 306.206609 
L 174.475636 306.206609 
z
" style="fill:#0072b2;"/>
   </g>
   <g id="patch_35">
    <path clip-path="url(#p5df1de2a5e)" d="M 177.722182 307.584 
L 180.968727 307.584 
L 180.968727 307.584 
L 177.722182 307.584 
z
" style="fill:#0072b2;"/>
   </g>
   <g id="patch_36">
    <path clip-path="url(#p5df1de2a5e)" d="M 180.968727 307.584 
L 184.215273 307.584 
L 184.215273 305.517913 
L 180.968727 305.517913 
z
" style="fill:#0072b2;"/>
   </g>
   <g id="patch_37">
    <path clip-path="url(#p5df1de2a5e)" d="M 184.215273 307.584 
L 187.461818 307.584 
L 187.461818 306.895304 
L 184.215273 306.895304 
z
" style="fill:#0072b2;"/>
   </g>
   <g id="patch_38">
    <path clip-path="url(#p5df1de2a5e)" d="M 187.461818 307.584 
L 190.708364 307.584 
L 190.708364 307.584 
L 187.461818 307.584 
z
" style="fill:#0072b2;"/>
   </g>
   <g id="patch_39">
    <path clip-path="url(#p5df1de2a5e)" d="M 190.708364 307.584 
L 193.954909 307.584 
L 193.954909 307.584 
L 190.708364 307.584 
z
" style="fill:#0072b2;"/>
   </g>
   <g id="patch_40">
    <path clip-path="url(#p5df1de2a5e)" d="M 193.954909 307.584 
L 197.201455 307.584 
L 197.201455 305.517913 
L 193.954909 305.517913 
z
" style="fill:#0072b2;"/>
   </g>
   <g id="patch_41">
    <path clip-path="url(#p5df1de2a5e)" d="M 197.201455 307.584 
L 200.448 307.584 
L 200.448 307.584 
L 197.201455 307.584 
z
" style="fill:#0072b2;"/>
   </g>
   <g id="patch_42">
    <path clip-path="url(#p5df1de2a5e)" d="M 200.448 307.584 
L 203.694545 307.584 
L 203.694545 306.895304 
L 200.448 306.895304 
z
" style="fill:#0072b2;"/>
   </g>
   <g id="patch_43">
    <path clip-path="url(#p5df1de2a5e)" d="M 203.694545 307.584 
L 206.941091 307.584 
L 206.941091 306.895304 
L 203.694545 306.895304 
z
" style="fill:#0072b2;"/>
   </g>
   <g id="patch_44">
    <path clip-path="url(#p5df1de2a5e)" d="M 206.941091 307.584 
L 210.187636 307.584 
L 210.187636 307.584 
L 206.941091 307.584 
z
" style="fill:#0072b2;"/>
   </g>
   <g id="patch_45">
    <path clip-path="url(#p5df1de2a5e)" d="M 210.187636 307.584 
L 213.434182 307.584 
L 213.434182 307.584 
L 210.187636 307.584 
z
" style="fill:#0072b2;"/>
   </g>
   <g id="patch_46">
    <path clip-path="url(#p5df1de2a5e)" d="M 213.434182 307.584 
L 216.680727 307.584 
L 216.680727 307.584 
L 213.434182 307.584 
z
" style="fill:#0072b2;"/>
   </g>
   <g id="patch_47">
    <path clip-path="url(#p5df1de2a5e)" d="M 216.680727 307.584 
L 219.927273 307.584 
L 219.927273 307.584 
L 216.680727 307.584 
z
" style="fill:#0072b2;"/>
   </g>
   <g id="patch_48">
    <path clip-path="url(#p5df1de2a5e)" d="M 219.927273 307.584 
L 223.173818 307.584 
L 223.173818 307.584 
L 219.927273 307.584 
z
" style="fill:#0072b2;"/>
   </g>
   <g id="patch_49">
    <path clip-path="url(#p5df1de2a5e)" d="M 223.173818 307.584 
L 226.420364 307.584 
L 226.420364 306.895304 
L 223.173818 306.895304 
z
" style="fill:#0072b2;"/>
   </g>
   <g id="patch_50">
    <path clip-path="url(#p5df1de2a5e)" d="M 226.420364 307.584 
L 229.666909 307.584 
L 229.666909 306.895304 
L 226.420364 306.895304 
z
" style="fill:#0072b2;"/>
   </g>
   <g id="patch_51">
    <path clip-path="url(#p5df1de2a5e)" d="M 229.666909 307.584 
L 232.913455 307.584 
L 232.913455 307.584 
L 229.666909 307.584 
z
" style="fill:#0072b2;"/>
   </g>
   <g id="patch_52">
    <path clip-path="url(#p5df1de2a5e)" d="M 232.913455 307.584 
L 236.16 307.584 
L 236.16 306.206609 
L 232.913455 306.206609 
z
" style="fill:#0072b2;"/>
   </g>
   <g id="patch_53">
    <path clip-path="url(#p5df1de2a5e)" d="M 236.16 307.584 
L 239.406545 307.584 
L 239.406545 306.895304 
L 236.16 306.895304 
z
" style="fill:#0072b2;"/>
   </g>
   <g id="patch_54">
    <path clip-path="url(#p5df1de2a5e)" d="M 239.406545 307.584 
L 242.653091 307.584 
L 242.653091 307.584 
L 239.406545 307.584 
z
" style="fill:#0072b2;"/>
   </g>
   <g id="patch_55">
    <path clip-path="url(#p5df1de2a5e)" d="M 242.653091 307.584 
L 245.899636 307.584 
L 245.899636 307.584 
L 242.653091 307.584 
z
" style="fill:#0072b2;"/>
   </g>
   <g id="patch_56">
    <path clip-path="url(#p5df1de2a5e)" d="M 245.899636 307.584 
L 249.146182 307.584 
L 249.146182 306.895304 
L 245.899636 306.895304 
z
" style="fill:#0072b2;"/>
   </g>
   <g id="patch_57">
    <path clip-path="url(#p5df1de2a5e)" d="M 249.146182 307.584 
L 252.392727 307.584 
L 252.392727 306.895304 
L 249.146182 306.895304 
z
" style="fill:#0072b2;"/>
   </g>
   <g id="patch_58">
    <path clip-path="url(#p5df1de2a5e)" d="M 252.392727 307.584 
L 255.639273 307.584 
L 255.639273 307.584 
L 252.392727 307.584 
z
" style="fill:#0072b2;"/>
   </g>
   <g id="patch_59">
    <path clip-path="url(#p5df1de2a5e)" d="M 255.639273 307.584 
L 258.885818 307.584 
L 258.885818 306.895304 
L 255.639273 306.895304 
z
" style="fill:#0072b2;"/>
   </g>
   <g id="patch_60">
    <path clip-path="url(#p5df1de2a5e)" d="M 258.885818 307.584 
L 262.132364 307.584 
L 262.132364 307.584 
L 258.885818 307.584 
z
" style="fill:#0072b2;"/>
   </g>
   <g id="patch_61">
    <path clip-path="url(#p5df1de2a5e)" d="M 262.132364 307.584 
L 265.378909 307.584 
L 265.378909 307.584 
L 262.132364 307.584 
z
" style="fill:#0072b2;"/>
   </g>
   <g id="patch_62">
    <path clip-path="url(#p5df1de2a5e)" d="M 265.378909 307.584 
L 268.625455 307.584 
L 268.625455 306.895304 
L 265.378909 306.895304 
z
" style="fill:#0072b2;"/>
   </g>
   <g id="patch_63">
    <path clip-path="url(#p5df1de2a5e)" d="M 268.625455 307.584 
L 271.872 307.584 
L 271.872 305.517913 
L 268.625455 305.517913 
z
" style="fill:#0072b2;"/>
   </g>
   <g id="patch_64">
    <path clip-path="url(#p5df1de2a5e)" d="M 271.872 307.584 
L 275.118545 307.584 
L 275.118545 307.584 
L 271.872 307.584 
z
" style="fill:#0072b2;"/>
   </g>
   <g id="patch_65">
    <path clip-path="url(#p5df1de2a5e)" d="M 275.118545 307.584 
L 278.365091 307.584 
L 278.365091 306.895304 
L 275.118545 306.895304 
z
" style="fill:#0072b2;"/>
   </g>
   <g id="patch_66">
    <path clip-path="url(#p5df1de2a5e)" d="M 278.365091 307.584 
L 281.611636 307.584 
L 281.611636 307.584 
L 278.365091 307.584 
z
" style="fill:#0072b2;"/>
   </g>
   <g id="patch_67">
    <path clip-path="url(#p5df1de2a5e)" d="M 281.611636 307.584 
L 284.858182 307.584 
L 284.858182 306.895304 
L 281.611636 306.895304 
z
" style="fill:#0072b2;"/>
   </g>
   <g id="patch_68">
    <path clip-path="url(#p5df1de2a5e)" d="M 284.858182 307.584 
L 288.104727 307.584 
L 288.104727 307.584 
L 284.858182 307.584 
z
" style="fill:#0072b2;"/>
   </g>
   <g id="patch_69">
    <path clip-path="url(#p5df1de2a5e)" d="M 288.104727 307.584 
L 291.351273 307.584 
L 291.351273 307.584 
L 288.104727 307.584 
z
" style="fill:#0072b2;"/>
   </g>
   <g id="patch_70">
    <path clip-path="url(#p5df1de2a5e)" d="M 291.351273 307.584 
L 294.597818 307.584 
L 294.597818 307.584 
L 291.351273 307.584 
z
" style="fill:#0072b2;"/>
   </g>
   <g id="patch_71">
    <path clip-path="url(#p5df1de2a5e)" d="M 294.597818 307.584 
L 297.844364 307.584 
L 297.844364 307.584 
L 294.597818 307.584 
z
" style="fill:#0072b2;"/>
   </g>
   <g id="patch_72">
    <path clip-path="url(#p5df1de2a5e)" d="M 297.844364 307.584 
L 301.090909 307.584 
L 301.090909 306.895304 
L 297.844364 306.895304 
z
" style="fill:#0072b2;"/>
   </g>
   <g id="patch_73">
    <path clip-path="url(#p5df1de2a5e)" d="M 301.090909 307.584 
L 304.337455 307.584 
L 304.337455 307.584 
L 301.090909 307.584 
z
" style="fill:#0072b2;"/>
   </g>
   <g id="patch_74">
    <path clip-path="url(#p5df1de2a5e)" d="M 304.337455 307.584 
L 307.584 307.584 
L 307.584 307.584 
L 304.337455 307.584 
z
" style="fill:#0072b2;"/>
   </g>
   <g id="patch_75">
    <path clip-path="url(#p5df1de2a5e)" d="M 307.584 307.584 
L 310.830545 307.584 
L 310.830545 307.584 
L 307.584 307.584 
z
" style="fill:#0072b2;"/>
   </g>
   <g id="patch_76">
    <path clip-path="url(#p5df1de2a5e)" d="M 310.830545 307.584 
L 314.077091 307.584 
L 314.077091 306.895304 
L 310.830545 306.895304 
z
" style="fill:#0072b2;"/>
   </g>
   <g id="patch_77">
    <path clip-path="url(#p5df1de2a5e)" d="M 314.077091 307.584 
L 317.323636 307.584 
L 317.323636 307.584 
L 314.077091 307.584 
z
" style="fill:#0072b2;"/>
   </g>
   <g id="patch_78">
    <path clip-path="url(#p5df1de2a5e)" d="M 317.323636 307.584 
L 320.570182 307.584 
L 320.570182 307.584 
L 317.323636 307.584 
z
" style="fill:#0072b2;"/>
   </g>
   <g id="patch_79">
    <path clip-path="url(#p5df1de2a5e)" d="M 320.570182 307.584 
L 323.816727 307.584 
L 323.816727 306.895304 
L 320.570182 306.895304 
z
" style="fill:#0072b2;"/>
   </g>
   <g id="patch_80">
    <path clip-path="url(#p5df1de2a5e)" d="M 323.816727 307.584 
L 327.063273 307.584 
L 327.063273 306.895304 
L 323.816727 306.895304 
z
" style="fill:#0072b2;"/>
   </g>
   <g id="patch_81">
    <path clip-path="url(#p5df1de2a5e)" d="M 327.063273 307.584 
L 330.309818 307.584 
L 330.309818 307.584 
L 327.063273 307.584 
z
" style="fill:#0072b2;"/>
   </g>
   <g id="patch_82">
    <path clip-path="url(#p5df1de2a5e)" d="M 330.309818 307.584 
L 333.556364 307.584 
L 333.556364 307.584 
L 330.309818 307.584 
z
" style="fill:#0072b2;"/>
   </g>
   <g id="patch_83">
    <path clip-path="url(#p5df1de2a5e)" d="M 333.556364 307.584 
L 336.802909 307.584 
L 336.802909 306.895304 
L 333.556364 306.895304 
z
" style="fill:#0072b2;"/>
   </g>
   <g id="patch_84">
    <path clip-path="url(#p5df1de2a5e)" d="M 336.802909 307.584 
L 340.049455 307.584 
L 340.049455 307.584 
L 336.802909 307.584 
z
" style="fill:#0072b2;"/>
   </g>
   <g id="patch_85">
    <path clip-path="url(#p5df1de2a5e)" d="M 340.049455 307.584 
L 343.296 307.584 
L 343.296 307.584 
L 340.049455 307.584 
z
" style="fill:#0072b2;"/>
   </g>
   <g id="patch_86">
    <path clip-path="url(#p5df1de2a5e)" d="M 343.296 307.584 
L 346.542545 307.584 
L 346.542545 306.206609 
L 343.296 306.206609 
z
" style="fill:#0072b2;"/>
   </g>
   <g id="patch_87">
    <path clip-path="url(#p5df1de2a5e)" d="M 346.542545 307.584 
L 349.789091 307.584 
L 349.789091 306.895304 
L 346.542545 306.895304 
z
" style="fill:#0072b2;"/>
   </g>
   <g id="patch_88">
    <path clip-path="url(#p5df1de2a5e)" d="M 349.789091 307.584 
L 353.035636 307.584 
L 353.035636 306.206609 
L 349.789091 306.206609 
z
" style="fill:#0072b2;"/>
   </g>
   <g id="patch_89">
    <path clip-path="url(#p5df1de2a5e)" d="M 353.035636 307.584 
L 356.282182 307.584 
L 356.282182 307.584 
L 353.035636 307.584 
z
" style="fill:#0072b2;"/>
   </g>
   <g id="patch_90">
    <path clip-path="url(#p5df1de2a5e)" d="M 356.282182 307.584 
L 359.528727 307.584 
L 359.528727 307.584 
L 356.282182 307.584 
z
" style="fill:#0072b2;"/>
   </g>
   <g id="patch_91">
    <path clip-path="url(#p5df1de2a5e)" d="M 359.528727 307.584 
L 362.775273 307.584 
L 362.775273 306.895304 
L 359.528727 306.895304 
z
" style="fill:#0072b2;"/>
   </g>
   <g id="patch_92">
    <path clip-path="url(#p5df1de2a5e)" d="M 362.775273 307.584 
L 366.021818 307.584 
L 366.021818 307.584 
L 362.775273 307.584 
z
" style="fill:#0072b2;"/>
   </g>
   <g id="patch_93">
    <path clip-path="url(#p5df1de2a5e)" d="M 366.021818 307.584 
L 369.268364 307.584 
L 369.268364 307.584 
L 366.021818 307.584 
z
" style="fill:#0072b2;"/>
   </g>
   <g id="patch_94">
    <path clip-path="url(#p5df1de2a5e)" d="M 369.268364 307.584 
L 372.514909 307.584 
L 372.514909 307.584 
L 369.268364 307.584 
z
" style="fill:#0072b2;"/>
   </g>
   <g id="patch_95">
    <path clip-path="url(#p5df1de2a5e)" d="M 372.514909 307.584 
L 375.761455 307.584 
L 375.761455 307.584 
L 372.514909 307.584 
z
" style="fill:#0072b2;"/>
   </g>
   <g id="patch_96">
    <path clip-path="url(#p5df1de2a5e)" d="M 375.761455 307.584 
L 379.008 307.584 
L 379.008 307.584 
L 375.761455 307.584 
z
" style="fill:#0072b2;"/>
   </g>
   <g id="patch_97">
    <path clip-path="url(#p5df1de2a5e)" d="M 379.008 307.584 
L 382.254545 307.584 
L 382.254545 307.584 
L 379.008 307.584 
z
" style="fill:#0072b2;"/>
   </g>
   <g id="patch_98">
    <path clip-path="url(#p5df1de2a5e)" d="M 382.254545 307.584 
L 385.501091 307.584 
L 385.501091 307.584 
L 382.254545 307.584 
z
" style="fill:#0072b2;"/>
   </g>
   <g id="patch_99">
    <path clip-path="url(#p5df1de2a5e)" d="M 385.501091 307.584 
L 388.747636 307.584 
L 388.747636 307.584 
L 385.501091 307.584 
z
" style="fill:#0072b2;"/>
   </g>
   <g id="patch_100">
    <path clip-path="url(#p5df1de2a5e)" d="M 388.747636 307.584 
L 391.994182 307.584 
L 391.994182 307.584 
L 388.747636 307.584 
z
" style="fill:#0072b2;"/>
   </g>
   <g id="patch_101">
    <path clip-path="url(#p5df1de2a5e)" d="M 391.994182 307.584 
L 395.240727 307.584 
L 395.240727 307.584 
L 391.994182 307.584 
z
" style="fill:#0072b2;"/>
   </g>
   <g id="patch_102">
    <path clip-path="url(#p5df1de2a5e)" d="M 395.240727 307.584 
L 398.487273 307.584 
L 398.487273 306.895304 
L 395.240727 306.895304 
z
" style="fill:#0072b2;"/>
   </g>
   <g id="matplotlib.axis_1">
    <g id="xtick_1">
     <g id="line2d_1">
      <defs>
       <path d="M 0 0 
L 0 3.5 
" id="m370a62ebb4" style="stroke:#000000;stroke-width:0.8;"/>
      </defs>
      <g>
       <use style="stroke:#000000;stroke-width:0.8;" x="71.742817" xlink:href="#m370a62ebb4" y="307.584"/>
      </g>
     </g>
     <g id="text_1">
      <!-- 0 -->
      <g transform="translate(68.561567 322.182437)scale(0.1 -0.1)">
       <defs>
        <path d="M 31.78125 66.40625 
Q 24.171875 66.40625 20.328125 58.90625 
Q 16.5 51.421875 16.5 36.375 
Q 16.5 21.390625 20.328125 13.890625 
Q 24.171875 6.390625 31.78125 6.390625 
Q 39.453125 6.390625 43.28125 13.890625 
Q 47.125 21.390625 47.125 36.375 
Q 47.125 51.421875 43.28125 58.90625 
Q 39.453125 66.40625 31.78125 66.40625 
z
M 31.78125 74.21875 
Q 44.046875 74.21875 50.515625 64.515625 
Q 56.984375 54.828125 56.984375 36.375 
Q 56.984375 17.96875 50.515625 8.265625 
Q 44.046875 -1.421875 31.78125 -1.421875 
Q 19.53125 -1.421875 13.0625 8.265625 
Q 6.59375 17.96875 6.59375 36.375 
Q 6.59375 54.828125 13.0625 64.515625 
Q 19.53125 74.21875 31.78125 74.21875 
z
" id="DejaVuSans-48"/>
       </defs>
       <use xlink:href="#DejaVuSans-48"/>
      </g>
     </g>
    </g>
    <g id="xtick_2">
     <g id="line2d_2">
      <g>
       <use style="stroke:#000000;stroke-width:0.8;" x="137.052522" xlink:href="#m370a62ebb4" y="307.584"/>
      </g>
     </g>
     <g id="text_2">
      <!-- 100 -->
      <g transform="translate(127.508772 322.182437)scale(0.1 -0.1)">
       <defs>
        <path d="M 12.40625 8.296875 
L 28.515625 8.296875 
L 28.515625 63.921875 
L 10.984375 60.40625 
L 10.984375 69.390625 
L 28.421875 72.90625 
L 38.28125 72.90625 
L 38.28125 8.296875 
L 54.390625 8.296875 
L 54.390625 0 
L 12.40625 0 
z
" id="DejaVuSans-49"/>
       </defs>
       <use xlink:href="#DejaVuSans-49"/>
       <use x="63.623047" xlink:href="#DejaVuSans-48"/>
       <use x="127.246094" xlink:href="#DejaVuSans-48"/>
      </g>
     </g>
    </g>
    <g id="xtick_3">
     <g id="line2d_3">
      <g>
       <use style="stroke:#000000;stroke-width:0.8;" x="202.362227" xlink:href="#m370a62ebb4" y="307.584"/>
      </g>
     </g>
     <g id="text_3">
      <!-- 200 -->
      <g transform="translate(192.818477 322.182437)scale(0.1 -0.1)">
       <defs>
        <path d="M 19.1875 8.296875 
L 53.609375 8.296875 
L 53.609375 0 
L 7.328125 0 
L 7.328125 8.296875 
Q 12.9375 14.109375 22.625 23.890625 
Q 32.328125 33.6875 34.8125 36.53125 
Q 39.546875 41.84375 41.421875 45.53125 
Q 43.3125 49.21875 43.3125 52.78125 
Q 43.3125 58.59375 39.234375 62.25 
Q 35.15625 65.921875 28.609375 65.921875 
Q 23.96875 65.921875 18.8125 64.3125 
Q 13.671875 62.703125 7.8125 59.421875 
L 7.8125 69.390625 
Q 13.765625 71.78125 18.9375 73 
Q 24.125 74.21875 28.421875 74.21875 
Q 39.75 74.21875 46.484375 68.546875 
Q 53.21875 62.890625 53.21875 53.421875 
Q 53.21875 48.921875 51.53125 44.890625 
Q 49.859375 40.875 45.40625 35.40625 
Q 44.1875 33.984375 37.640625 27.21875 
Q 31.109375 20.453125 19.1875 8.296875 
z
" id="DejaVuSans-50"/>
       </defs>
       <use xlink:href="#DejaVuSans-50"/>
       <use x="63.623047" xlink:href="#DejaVuSans-48"/>
       <use x="127.246094" xlink:href="#DejaVuSans-48"/>
      </g>
     </g>
    </g>
    <g id="xtick_4">
     <g id="line2d_4">
      <g>
       <use style="stroke:#000000;stroke-width:0.8;" x="267.671933" xlink:href="#m370a62ebb4" y="307.584"/>
      </g>
     </g>
     <g id="text_4">
      <!-- 300 -->
      <g transform="translate(258.128183 322.182437)scale(0.1 -0.1)">
       <defs>
        <path d="M 40.578125 39.3125 
Q 47.65625 37.796875 51.625 33 
Q 55.609375 28.21875 55.609375 21.1875 
Q 55.609375 10.40625 48.1875 4.484375 
Q 40.765625 -1.421875 27.09375 -1.421875 
Q 22.515625 -1.421875 17.65625 -0.515625 
Q 12.796875 0.390625 7.625 2.203125 
L 7.625 11.71875 
Q 11.71875 9.328125 16.59375 8.109375 
Q 21.484375 6.890625 26.8125 6.890625 
Q 36.078125 6.890625 40.9375 10.546875 
Q 45.796875 14.203125 45.796875 21.1875 
Q 45.796875 27.640625 41.28125 31.265625 
Q 36.765625 34.90625 28.71875 34.90625 
L 20.21875 34.90625 
L 20.21875 43.015625 
L 29.109375 43.015625 
Q 36.375 43.015625 40.234375 45.921875 
Q 44.09375 48.828125 44.09375 54.296875 
Q 44.09375 59.90625 40.109375 62.90625 
Q 36.140625 65.921875 28.71875 65.921875 
Q 24.65625 65.921875 20.015625 65.03125 
Q 15.375 64.15625 9.8125 62.3125 
L 9.8125 71.09375 
Q 15.4375 72.65625 20.34375 73.4375 
Q 25.25 74.21875 29.59375 74.21875 
Q 40.828125 74.21875 47.359375 69.109375 
Q 53.90625 64.015625 53.90625 55.328125 
Q 53.90625 49.265625 50.4375 45.09375 
Q 46.96875 40.921875 40.578125 39.3125 
z
" id="DejaVuSans-51"/>
       </defs>
       <use xlink:href="#DejaVuSans-51"/>
       <use x="63.623047" xlink:href="#DejaVuSans-48"/>
       <use x="127.246094" xlink:href="#DejaVuSans-48"/>
      </g>
     </g>
    </g>
    <g id="xtick_5">
     <g id="line2d_5">
      <g>
       <use style="stroke:#000000;stroke-width:0.8;" x="332.981638" xlink:href="#m370a62ebb4" y="307.584"/>
      </g>
     </g>
     <g id="text_5">
      <!-- 400 -->
      <g transform="translate(323.437888 322.182437)scale(0.1 -0.1)">
       <defs>
        <path d="M 37.796875 64.3125 
L 12.890625 25.390625 
L 37.796875 25.390625 
z
M 35.203125 72.90625 
L 47.609375 72.90625 
L 47.609375 25.390625 
L 58.015625 25.390625 
L 58.015625 17.1875 
L 47.609375 17.1875 
L 47.609375 0 
L 37.796875 0 
L 37.796875 17.1875 
L 4.890625 17.1875 
L 4.890625 26.703125 
z
" id="DejaVuSans-52"/>
       </defs>
       <use xlink:href="#DejaVuSans-52"/>
       <use x="63.623047" xlink:href="#DejaVuSans-48"/>
       <use x="127.246094" xlink:href="#DejaVuSans-48"/>
      </g>
     </g>
    </g>
    <g id="xtick_6">
     <g id="line2d_6">
      <g>
       <use style="stroke:#000000;stroke-width:0.8;" x="398.291344" xlink:href="#m370a62ebb4" y="307.584"/>
      </g>
     </g>
     <g id="text_6">
      <!-- 500 -->
      <g transform="translate(388.747594 322.182437)scale(0.1 -0.1)">
       <defs>
        <path d="M 10.796875 72.90625 
L 49.515625 72.90625 
L 49.515625 64.59375 
L 19.828125 64.59375 
L 19.828125 46.734375 
Q 21.96875 47.46875 24.109375 47.828125 
Q 26.265625 48.1875 28.421875 48.1875 
Q 40.625 48.1875 47.75 41.5 
Q 54.890625 34.8125 54.890625 23.390625 
Q 54.890625 11.625 47.5625 5.09375 
Q 40.234375 -1.421875 26.90625 -1.421875 
Q 22.3125 -1.421875 17.546875 -0.640625 
Q 12.796875 0.140625 7.71875 1.703125 
L 7.71875 11.625 
Q 12.109375 9.234375 16.796875 8.0625 
Q 21.484375 6.890625 26.703125 6.890625 
Q 35.15625 6.890625 40.078125 11.328125 
Q 45.015625 15.765625 45.015625 23.390625 
Q 45.015625 31 40.078125 35.4375 
Q 35.15625 39.890625 26.703125 39.890625 
Q 22.75 39.890625 18.8125 39.015625 
Q 14.890625 38.140625 10.796875 36.28125 
z
" id="DejaVuSans-53"/>
       </defs>
       <use xlink:href="#DejaVuSans-53"/>
       <use x="63.623047" xlink:href="#DejaVuSans-48"/>
       <use x="127.246094" xlink:href="#DejaVuSans-48"/>
      </g>
     </g>
    </g>
    <g id="text_7">
     <!-- SOC (g/kg) -->
     <g transform="translate(209.139687 335.860562)scale(0.1 -0.1)">
      <defs>
       <path d="M 53.515625 70.515625 
L 53.515625 60.890625 
Q 47.90625 63.578125 42.921875 64.890625 
Q 37.9375 66.21875 33.296875 66.21875 
Q 25.25 66.21875 20.875 63.09375 
Q 16.5 59.96875 16.5 54.203125 
Q 16.5 49.359375 19.40625 46.890625 
Q 22.3125 44.4375 30.421875 42.921875 
L 36.375 41.703125 
Q 47.40625 39.59375 52.65625 34.296875 
Q 57.90625 29 57.90625 20.125 
Q 57.90625 9.515625 50.796875 4.046875 
Q 43.703125 -1.421875 29.984375 -1.421875 
Q 24.8125 -1.421875 18.96875 -0.25 
Q 13.140625 0.921875 6.890625 3.21875 
L 6.890625 13.375 
Q 12.890625 10.015625 18.65625 8.296875 
Q 24.421875 6.59375 29.984375 6.59375 
Q 38.421875 6.59375 43.015625 9.90625 
Q 47.609375 13.234375 47.609375 19.390625 
Q 47.609375 24.75 44.3125 27.78125 
Q 41.015625 30.8125 33.5 32.328125 
L 27.484375 33.5 
Q 16.453125 35.6875 11.515625 40.375 
Q 6.59375 45.0625 6.59375 53.421875 
Q 6.59375 63.09375 13.40625 68.65625 
Q 20.21875 74.21875 32.171875 74.21875 
Q 37.3125 74.21875 42.625 73.28125 
Q 47.953125 72.359375 53.515625 70.515625 
z
" id="DejaVuSans-83"/>
       <path d="M 39.40625 66.21875 
Q 28.65625 66.21875 22.328125 58.203125 
Q 16.015625 50.203125 16.015625 36.375 
Q 16.015625 22.609375 22.328125 14.59375 
Q 28.65625 6.59375 39.40625 6.59375 
Q 50.140625 6.59375 56.421875 14.59375 
Q 62.703125 22.609375 62.703125 36.375 
Q 62.703125 50.203125 56.421875 58.203125 
Q 50.140625 66.21875 39.40625 66.21875 
z
M 39.40625 74.21875 
Q 54.734375 74.21875 63.90625 63.9375 
Q 73.09375 53.65625 73.09375 36.375 
Q 73.09375 19.140625 63.90625 8.859375 
Q 54.734375 -1.421875 39.40625 -1.421875 
Q 24.03125 -1.421875 14.8125 8.828125 
Q 5.609375 19.09375 5.609375 36.375 
Q 5.609375 53.65625 14.8125 63.9375 
Q 24.03125 74.21875 39.40625 74.21875 
z
" id="DejaVuSans-79"/>
       <path d="M 64.40625 67.28125 
L 64.40625 56.890625 
Q 59.421875 61.53125 53.78125 63.8125 
Q 48.140625 66.109375 41.796875 66.109375 
Q 29.296875 66.109375 22.65625 58.46875 
Q 16.015625 50.828125 16.015625 36.375 
Q 16.015625 21.96875 22.65625 14.328125 
Q 29.296875 6.6875 41.796875 6.6875 
Q 48.140625 6.6875 53.78125 8.984375 
Q 59.421875 11.28125 64.40625 15.921875 
L 64.40625 5.609375 
Q 59.234375 2.09375 53.4375 0.328125 
Q 47.65625 -1.421875 41.21875 -1.421875 
Q 24.65625 -1.421875 15.125 8.703125 
Q 5.609375 18.84375 5.609375 36.375 
Q 5.609375 53.953125 15.125 64.078125 
Q 24.65625 74.21875 41.21875 74.21875 
Q 47.75 74.21875 53.53125 72.484375 
Q 59.328125 70.75 64.40625 67.28125 
z
" id="DejaVuSans-67"/>
       <path id="DejaVuSans-32"/>
       <path d="M 31 75.875 
Q 24.46875 64.65625 21.28125 53.65625 
Q 18.109375 42.671875 18.109375 31.390625 
Q 18.109375 20.125 21.3125 9.0625 
Q 24.515625 -2 31 -13.1875 
L 23.1875 -13.1875 
Q 15.875 -1.703125 12.234375 9.375 
Q 8.59375 20.453125 8.59375 31.390625 
Q 8.59375 42.28125 12.203125 53.3125 
Q 15.828125 64.359375 23.1875 75.875 
z
" id="DejaVuSans-40"/>
       <path d="M 45.40625 27.984375 
Q 45.40625 37.75 41.375 43.109375 
Q 37.359375 48.484375 30.078125 48.484375 
Q 22.859375 48.484375 18.828125 43.109375 
Q 14.796875 37.75 14.796875 27.984375 
Q 14.796875 18.265625 18.828125 12.890625 
Q 22.859375 7.515625 30.078125 7.515625 
Q 37.359375 7.515625 41.375 12.890625 
Q 45.40625 18.265625 45.40625 27.984375 
z
M 54.390625 6.78125 
Q 54.390625 -7.171875 48.1875 -13.984375 
Q 42 -20.796875 29.203125 -20.796875 
Q 24.46875 -20.796875 20.265625 -20.09375 
Q 16.0625 -19.390625 12.109375 -17.921875 
L 12.109375 -9.1875 
Q 16.0625 -11.328125 19.921875 -12.34375 
Q 23.78125 -13.375 27.78125 -13.375 
Q 36.625 -13.375 41.015625 -8.765625 
Q 45.40625 -4.15625 45.40625 5.171875 
L 45.40625 9.625 
Q 42.625 4.78125 38.28125 2.390625 
Q 33.9375 0 27.875 0 
Q 17.828125 0 11.671875 7.65625 
Q 5.515625 15.328125 5.515625 27.984375 
Q 5.515625 40.671875 11.671875 48.328125 
Q 17.828125 56 27.875 56 
Q 33.9375 56 38.28125 53.609375 
Q 42.625 51.21875 45.40625 46.390625 
L 45.40625 54.6875 
L 54.390625 54.6875 
z
" id="DejaVuSans-103"/>
       <path d="M 25.390625 72.90625 
L 33.6875 72.90625 
L 8.296875 -9.28125 
L 0 -9.28125 
z
" id="DejaVuSans-47"/>
       <path d="M 9.078125 75.984375 
L 18.109375 75.984375 
L 18.109375 31.109375 
L 44.921875 54.6875 
L 56.390625 54.6875 
L 27.390625 29.109375 
L 57.625 0 
L 45.90625 0 
L 18.109375 26.703125 
L 18.109375 0 
L 9.078125 0 
z
" id="DejaVuSans-107"/>
       <path d="M 8.015625 75.875 
L 15.828125 75.875 
Q 23.140625 64.359375 26.78125 53.3125 
Q 30.421875 42.28125 30.421875 31.390625 
Q 30.421875 20.453125 26.78125 9.375 
Q 23.140625 -1.703125 15.828125 -13.1875 
L 8.015625 -13.1875 
Q 14.5 -2 17.703125 9.0625 
Q 20.90625 20.125 20.90625 31.390625 
Q 20.90625 42.671875 17.703125 53.65625 
Q 14.5 64.65625 8.015625 75.875 
z
" id="DejaVuSans-41"/>
      </defs>
      <use xlink:href="#DejaVuSans-83"/>
      <use x="63.476562" xlink:href="#DejaVuSans-79"/>
      <use x="142.1875" xlink:href="#DejaVuSans-67"/>
      <use x="212.011719" xlink:href="#DejaVuSans-32"/>
      <use x="243.798828" xlink:href="#DejaVuSans-40"/>
      <use x="282.8125" xlink:href="#DejaVuSans-103"/>
      <use x="346.289062" xlink:href="#DejaVuSans-47"/>
      <use x="379.980469" xlink:href="#DejaVuSans-107"/>
      <use x="437.890625" xlink:href="#DejaVuSans-103"/>
      <use x="501.367188" xlink:href="#DejaVuSans-41"/>
     </g>
    </g>
   </g>
   <g id="matplotlib.axis_2">
    <g id="ytick_1">
     <g id="line2d_7">
      <defs>
       <path d="M 0 0 
L -3.5 0 
" id="m476c73c5e5" style="stroke:#000000;stroke-width:0.8;"/>
      </defs>
      <g>
       <use style="stroke:#000000;stroke-width:0.8;" x="57.6" xlink:href="#m476c73c5e5" y="307.584"/>
      </g>
     </g>
     <g id="text_8">
      <!-- 0 -->
      <g transform="translate(44.2375 311.383219)scale(0.1 -0.1)">
       <use xlink:href="#DejaVuSans-48"/>
      </g>
     </g>
    </g>
    <g id="ytick_2">
     <g id="line2d_8">
      <g>
       <use style="stroke:#000000;stroke-width:0.8;" x="57.6" xlink:href="#m476c73c5e5" y="273.149217"/>
      </g>
     </g>
     <g id="text_9">
      <!-- 50 -->
      <g transform="translate(37.875 276.948436)scale(0.1 -0.1)">
       <use xlink:href="#DejaVuSans-53"/>
       <use x="63.623047" xlink:href="#DejaVuSans-48"/>
      </g>
     </g>
    </g>
    <g id="ytick_3">
     <g id="line2d_9">
      <g>
       <use style="stroke:#000000;stroke-width:0.8;" x="57.6" xlink:href="#m476c73c5e5" y="238.714435"/>
      </g>
     </g>
     <g id="text_10">
      <!-- 100 -->
      <g transform="translate(31.5125 242.513654)scale(0.1 -0.1)">
       <use xlink:href="#DejaVuSans-49"/>
       <use x="63.623047" xlink:href="#DejaVuSans-48"/>
       <use x="127.246094" xlink:href="#DejaVuSans-48"/>
      </g>
     </g>
    </g>
    <g id="ytick_4">
     <g id="line2d_10">
      <g>
       <use style="stroke:#000000;stroke-width:0.8;" x="57.6" xlink:href="#m476c73c5e5" y="204.279652"/>
      </g>
     </g>
     <g id="text_11">
      <!-- 150 -->
      <g transform="translate(31.5125 208.078871)scale(0.1 -0.1)">
       <use xlink:href="#DejaVuSans-49"/>
       <use x="63.623047" xlink:href="#DejaVuSans-53"/>
       <use x="127.246094" xlink:href="#DejaVuSans-48"/>
      </g>
     </g>
    </g>
    <g id="ytick_5">
     <g id="line2d_11">
      <g>
       <use style="stroke:#000000;stroke-width:0.8;" x="57.6" xlink:href="#m476c73c5e5" y="169.84487"/>
      </g>
     </g>
     <g id="text_12">
      <!-- 200 -->
      <g transform="translate(31.5125 173.644088)scale(0.1 -0.1)">
       <use xlink:href="#DejaVuSans-50"/>
       <use x="63.623047" xlink:href="#DejaVuSans-48"/>
       <use x="127.246094" xlink:href="#DejaVuSans-48"/>
      </g>
     </g>
    </g>
    <g id="ytick_6">
     <g id="line2d_12">
      <g>
       <use style="stroke:#000000;stroke-width:0.8;" x="57.6" xlink:href="#m476c73c5e5" y="135.410087"/>
      </g>
     </g>
     <g id="text_13">
      <!-- 250 -->
      <g transform="translate(31.5125 139.209306)scale(0.1 -0.1)">
       <use xlink:href="#DejaVuSans-50"/>
       <use x="63.623047" xlink:href="#DejaVuSans-53"/>
       <use x="127.246094" xlink:href="#DejaVuSans-48"/>
      </g>
     </g>
    </g>
    <g id="ytick_7">
     <g id="line2d_13">
      <g>
       <use style="stroke:#000000;stroke-width:0.8;" x="57.6" xlink:href="#m476c73c5e5" y="100.975304"/>
      </g>
     </g>
     <g id="text_14">
      <!-- 300 -->
      <g transform="translate(31.5125 104.774523)scale(0.1 -0.1)">
       <use xlink:href="#DejaVuSans-51"/>
       <use x="63.623047" xlink:href="#DejaVuSans-48"/>
       <use x="127.246094" xlink:href="#DejaVuSans-48"/>
      </g>
     </g>
    </g>
    <g id="ytick_8">
     <g id="line2d_14">
      <g>
       <use style="stroke:#000000;stroke-width:0.8;" x="57.6" xlink:href="#m476c73c5e5" y="66.540522"/>
      </g>
     </g>
     <g id="text_15">
      <!-- 350 -->
      <g transform="translate(31.5125 70.33974)scale(0.1 -0.1)">
       <use xlink:href="#DejaVuSans-51"/>
       <use x="63.623047" xlink:href="#DejaVuSans-53"/>
       <use x="127.246094" xlink:href="#DejaVuSans-48"/>
      </g>
     </g>
    </g>
    <g id="text_16">
     <!-- Count -->
     <g transform="translate(25.432812 189.376437)rotate(-90)scale(0.1 -0.1)">
      <defs>
       <path d="M 30.609375 48.390625 
Q 23.390625 48.390625 19.1875 42.75 
Q 14.984375 37.109375 14.984375 27.296875 
Q 14.984375 17.484375 19.15625 11.84375 
Q 23.34375 6.203125 30.609375 6.203125 
Q 37.796875 6.203125 41.984375 11.859375 
Q 46.1875 17.53125 46.1875 27.296875 
Q 46.1875 37.015625 41.984375 42.703125 
Q 37.796875 48.390625 30.609375 48.390625 
z
M 30.609375 56 
Q 42.328125 56 49.015625 48.375 
Q 55.71875 40.765625 55.71875 27.296875 
Q 55.71875 13.875 49.015625 6.21875 
Q 42.328125 -1.421875 30.609375 -1.421875 
Q 18.84375 -1.421875 12.171875 6.21875 
Q 5.515625 13.875 5.515625 27.296875 
Q 5.515625 40.765625 12.171875 48.375 
Q 18.84375 56 30.609375 56 
z
" id="DejaVuSans-111"/>
       <path d="M 8.5 21.578125 
L 8.5 54.6875 
L 17.484375 54.6875 
L 17.484375 21.921875 
Q 17.484375 14.15625 20.5 10.265625 
Q 23.53125 6.390625 29.59375 6.390625 
Q 36.859375 6.390625 41.078125 11.03125 
Q 45.3125 15.671875 45.3125 23.6875 
L 45.3125 54.6875 
L 54.296875 54.6875 
L 54.296875 0 
L 45.3125 0 
L 45.3125 8.40625 
Q 42.046875 3.421875 37.71875 1 
Q 33.40625 -1.421875 27.6875 -1.421875 
Q 18.265625 -1.421875 13.375 4.4375 
Q 8.5 10.296875 8.5 21.578125 
z
M 31.109375 56 
z
" id="DejaVuSans-117"/>
       <path d="M 54.890625 33.015625 
L 54.890625 0 
L 45.90625 0 
L 45.90625 32.71875 
Q 45.90625 40.484375 42.875 44.328125 
Q 39.84375 48.1875 33.796875 48.1875 
Q 26.515625 48.1875 22.3125 43.546875 
Q 18.109375 38.921875 18.109375 30.90625 
L 18.109375 0 
L 9.078125 0 
L 9.078125 54.6875 
L 18.109375 54.6875 
L 18.109375 46.1875 
Q 21.34375 51.125 25.703125 53.5625 
Q 30.078125 56 35.796875 56 
Q 45.21875 56 50.046875 50.171875 
Q 54.890625 44.34375 54.890625 33.015625 
z
" id="DejaVuSans-110"/>
       <path d="M 18.3125 70.21875 
L 18.3125 54.6875 
L 36.8125 54.6875 
L 36.8125 47.703125 
L 18.3125 47.703125 
L 18.3125 18.015625 
Q 18.3125 11.328125 20.140625 9.421875 
Q 21.96875 7.515625 27.59375 7.515625 
L 36.8125 7.515625 
L 36.8125 0 
L 27.59375 0 
Q 17.1875 0 13.234375 3.875 
Q 9.28125 7.765625 9.28125 18.015625 
L 9.28125 47.703125 
L 2.6875 47.703125 
L 2.6875 54.6875 
L 9.28125 54.6875 
L 9.28125 70.21875 
z
" id="DejaVuSans-116"/>
      </defs>
      <use xlink:href="#DejaVuSans-67"/>
      <use x="69.824219" xlink:href="#DejaVuSans-111"/>
      <use x="131.005859" xlink:href="#DejaVuSans-117"/>
      <use x="194.384766" xlink:href="#DejaVuSans-110"/>
      <use x="257.763672" xlink:href="#DejaVuSans-116"/>
     </g>
    </g>
   </g>
   <g id="line2d_15">
    <path clip-path="url(#p5df1de2a5e)" d="M 92.882073 307.584 
L 92.882073 41.472 
" style="fill:none;stroke:#000000;stroke-dasharray:3.7,1.6;stroke-dashoffset:0;"/>
   </g>
   <g id="patch_103">
    <path d="M 57.6 307.584 
L 57.6 41.472 
" style="fill:none;stroke:#000000;stroke-linecap:square;stroke-linejoin:miter;stroke-width:0.8;"/>
   </g>
   <g id="patch_104">
    <path d="M 414.72 307.584 
L 414.72 41.472 
" style="fill:none;stroke:#000000;stroke-linecap:square;stroke-linejoin:miter;stroke-width:0.8;"/>
   </g>
   <g id="patch_105">
    <path d="M 57.6 307.584 
L 414.72 307.584 
" style="fill:none;stroke:#000000;stroke-linecap:square;stroke-linejoin:miter;stroke-width:0.8;"/>
   </g>
   <g id="patch_106">
    <path d="M 57.6 41.472 
L 414.72 41.472 
" style="fill:none;stroke:#000000;stroke-linecap:square;stroke-linejoin:miter;stroke-width:0.8;"/>
   </g>
  </g>
 </g>
 <defs>
  <clipPath id="p5df1de2a5e">
   <rect height="266.112" width="357.12" x="57.6" y="41.472"/>
  </clipPath>
 </defs>
</svg>
