<?xml version="1.0" encoding="utf-8" standalone="no"?>
<!DOCTYPE svg PUBLIC "-//W3C//DTD SVG 1.1//EN"
  "http://www.w3.org/Graphics/SVG/1.1/DTD/svg11.dtd">
<!-- Created with matplotlib (https://matplotlib.org/) -->
<svg height="345.6pt" version="1.1" viewBox="0 0 460.8 345.6" width="460.8pt" xmlns="http://www.w3.org/2000/svg" xmlns:xlink="http://www.w3.org/1999/xlink">
 <metadata>
  <rdf:RDF xmlns:cc="http://creativecommons.org/ns#" xmlns:dc="http://purl.org/dc/elements/1.1/" xmlns:rdf="http://www.w3.org/1999/02/22-rdf-syntax-ns#">
   <cc:Work>
    <dc:type rdf:resource="http://purl.org/dc/dcmitype/StillImage"/>
    <dc:date>2020-12-12T20:45:04.383173</dc:date>
    <dc:format>image/svg+xml</dc:format>
    <dc:creator>
     <cc:Agent>
      <dc:title>Matplotlib v3.3.2, https://matplotlib.org/</dc:title>
     </cc:Agent>
    </dc:creator>
   </cc:Work>
  </rdf:RDF>
 </metadata>
 <defs>
  <style type="text/css">*{stroke-linecap:butt;stroke-linejoin:round;}</style>
 </defs>
 <g id="figure_1">
  <g id="patch_1">
   <path d="M 0 345.6 
L 460.8 345.6 
L 460.8 0 
L 0 0 
z
" style="fill:none;"/>
  </g>
  <g id="axes_1">
   <g id="patch_2">
    <path d="M 57.6 307.584 
L 414.72 307.584 
L 414.72 41.472 
L 57.6 41.472 
z
" style="fill:none;"/>
   </g>
   <g id="patch_3">
    <path clip-path="url(#p16de8cf774)" d="M 73.832727 307.584 
L 77.079273 307.584 
L 77.079273 303.36 
L 73.832727 303.36 
z
" style="fill:#0072b2;"/>
   </g>
   <g id="patch_4">
    <path clip-path="url(#p16de8cf774)" d="M 77.079273 307.584 
L 80.325818 307.584 
L 80.325818 307.584 
L 77.079273 307.584 
z
" style="fill:#0072b2;"/>
   </g>
   <g id="patch_5">
    <path clip-path="url(#p16de8cf774)" d="M 80.325818 307.584 
L 83.572363 307.584 
L 83.572363 307.584 
L 80.325818 307.584 
z
" style="fill:#0072b2;"/>
   </g>
   <g id="patch_6">
    <path clip-path="url(#p16de8cf774)" d="M 83.572364 307.584 
L 86.818909 307.584 
L 86.818909 303.36 
L 83.572364 303.36 
z
" style="fill:#0072b2;"/>
   </g>
   <g id="patch_7">
    <path clip-path="url(#p16de8cf774)" d="M 86.818909 307.584 
L 90.065455 307.584 
L 90.065455 294.912 
L 86.818909 294.912 
z
" style="fill:#0072b2;"/>
   </g>
   <g id="patch_8">
    <path clip-path="url(#p16de8cf774)" d="M 90.065455 307.584 
L 93.312 307.584 
L 93.312 307.584 
L 90.065455 307.584 
z
" style="fill:#0072b2;"/>
   </g>
   <g id="patch_9">
    <path clip-path="url(#p16de8cf774)" d="M 93.311998 307.584 
L 96.558543 307.584 
L 96.558543 307.584 
L 93.311998 307.584 
z
" style="fill:#0072b2;"/>
   </g>
   <g id="patch_10">
    <path clip-path="url(#p16de8cf774)" d="M 96.558548 307.584 
L 99.805093 307.584 
L 99.805093 299.136 
L 96.558548 299.136 
z
" style="fill:#0072b2;"/>
   </g>
   <g id="patch_11">
    <path clip-path="url(#p16de8cf774)" d="M 99.80509 307.584 
L 103.051638 307.584 
L 103.051638 307.584 
L 99.80509 307.584 
z
" style="fill:#0072b2;"/>
   </g>
   <g id="patch_12">
    <path clip-path="url(#p16de8cf774)" d="M 103.051638 307.584 
L 106.298182 307.584 
L 106.298182 303.36 
L 103.051638 303.36 
z
" style="fill:#0072b2;"/>
   </g>
   <g id="patch_13">
    <path clip-path="url(#p16de8cf774)" d="M 106.298185 307.584 
L 109.544729 307.584 
L 109.544729 307.584 
L 106.298185 307.584 
z
" style="fill:#0072b2;"/>
   </g>
   <g id="patch_14">
    <path clip-path="url(#p16de8cf774)" d="M 109.544727 307.584 
L 112.791272 307.584 
L 112.791272 303.36 
L 109.544727 303.36 
z
" style="fill:#0072b2;"/>
   </g>
   <g id="patch_15">
    <path clip-path="url(#p16de8cf774)" d="M 112.791274 307.584 
L 116.037817 307.584 
L 116.037817 294.912 
L 112.791274 294.912 
z
" style="fill:#0072b2;"/>
   </g>
   <g id="patch_16">
    <path clip-path="url(#p16de8cf774)" d="M 116.037817 307.584 
L 119.284364 307.584 
L 119.284364 303.36 
L 116.037817 303.36 
z
" style="fill:#0072b2;"/>
   </g>
   <g id="patch_17">
    <path clip-path="url(#p16de8cf774)" d="M 119.284369 307.584 
L 122.530916 307.584 
L 122.530916 290.688 
L 119.284369 290.688 
z
" style="fill:#0072b2;"/>
   </g>
   <g id="patch_18">
    <path clip-path="url(#p16de8cf774)" d="M 122.530911 307.584 
L 125.777453 307.584 
L 125.777453 286.464 
L 122.530911 286.464 
z
" style="fill:#0072b2;"/>
   </g>
   <g id="patch_19">
    <path clip-path="url(#p16de8cf774)" d="M 125.777453 307.584 
L 129.024001 307.584 
L 129.024001 294.912 
L 125.777453 294.912 
z
" style="fill:#0072b2;"/>
   </g>
   <g id="patch_20">
    <path clip-path="url(#p16de8cf774)" d="M 129.024005 307.584 
L 132.270553 307.584 
L 132.270553 290.688 
L 129.024005 290.688 
z
" style="fill:#0072b2;"/>
   </g>
   <g id="patch_21">
    <path clip-path="url(#p16de8cf774)" d="M 132.270548 307.584 
L 135.51709 307.584 
L 135.51709 294.912 
L 132.270548 294.912 
z
" style="fill:#0072b2;"/>
   </g>
   <g id="patch_22">
    <path clip-path="url(#p16de8cf774)" d="M 135.51709 307.584 
L 138.763637 307.584 
L 138.763637 290.688 
L 135.51709 290.688 
z
" style="fill:#0072b2;"/>
   </g>
   <g id="patch_23">
    <path clip-path="url(#p16de8cf774)" d="M 138.763637 307.584 
L 142.01018 307.584 
L 142.01018 286.464 
L 138.763637 286.464 
z
" style="fill:#0072b2;"/>
   </g>
   <g id="patch_24">
    <path clip-path="url(#p16de8cf774)" d="M 142.010185 307.584 
L 145.256732 307.584 
L 145.256732 282.24 
L 142.010185 282.24 
z
" style="fill:#0072b2;"/>
   </g>
   <g id="patch_25">
    <path clip-path="url(#p16de8cf774)" d="M 145.256727 307.584 
L 148.503274 307.584 
L 148.503274 269.568 
L 145.256727 269.568 
z
" style="fill:#0072b2;"/>
   </g>
   <g id="patch_26">
    <path clip-path="url(#p16de8cf774)" d="M 148.503274 307.584 
L 151.749816 307.584 
L 151.749816 273.792 
L 148.503274 273.792 
z
" style="fill:#0072b2;"/>
   </g>
   <g id="patch_27">
    <path clip-path="url(#p16de8cf774)" d="M 151.749821 307.584 
L 154.996364 307.584 
L 154.996364 256.896 
L 151.749821 256.896 
z
" style="fill:#0072b2;"/>
   </g>
   <g id="patch_28">
    <path clip-path="url(#p16de8cf774)" d="M 154.996364 307.584 
L 158.242906 307.584 
L 158.242906 265.344 
L 154.996364 265.344 
z
" style="fill:#0072b2;"/>
   </g>
   <g id="patch_29">
    <path clip-path="url(#p16de8cf774)" d="M 158.242906 307.584 
L 161.489458 307.584 
L 161.489458 227.328 
L 158.242906 227.328 
z
" style="fill:#0072b2;"/>
   </g>
   <g id="patch_30">
    <path clip-path="url(#p16de8cf774)" d="M 161.489458 307.584 
L 164.736 307.584 
L 164.736 218.88 
L 161.489458 218.88 
z
" style="fill:#0072b2;"/>
   </g>
   <g id="patch_31">
    <path clip-path="url(#p16de8cf774)" d="M 164.736 307.584 
L 167.982543 307.584 
L 167.982543 240 
L 164.736 240 
z
" style="fill:#0072b2;"/>
   </g>
   <g id="patch_32">
    <path clip-path="url(#p16de8cf774)" d="M 167.982552 307.584 
L 171.229104 307.584 
L 171.229104 176.64 
L 167.982552 176.64 
z
" style="fill:#0072b2;"/>
   </g>
   <g id="patch_33">
    <path clip-path="url(#p16de8cf774)" d="M 171.229095 307.584 
L 174.475637 307.584 
L 174.475637 172.416 
L 171.229095 172.416 
z
" style="fill:#0072b2;"/>
   </g>
   <g id="patch_34">
    <path clip-path="url(#p16de8cf774)" d="M 174.475637 307.584 
L 177.722179 307.584 
L 177.722179 197.76 
L 174.475637 197.76 
z
" style="fill:#0072b2;"/>
   </g>
   <g id="patch_35">
    <path clip-path="url(#p16de8cf774)" d="M 177.722179 307.584 
L 180.968732 307.584 
L 180.968732 180.864 
L 177.722179 180.864 
z
" style="fill:#0072b2;"/>
   </g>
   <g id="patch_36">
    <path clip-path="url(#p16de8cf774)" d="M 180.968732 307.584 
L 184.215274 307.584 
L 184.215274 180.864 
L 180.968732 180.864 
z
" style="fill:#0072b2;"/>
   </g>
   <g id="patch_37">
    <path clip-path="url(#p16de8cf774)" d="M 184.215274 307.584 
L 187.461816 307.584 
L 187.461816 96.384 
L 184.215274 96.384 
z
" style="fill:#0072b2;"/>
   </g>
   <g id="patch_38">
    <path clip-path="url(#p16de8cf774)" d="M 187.461826 307.584 
L 190.708378 307.584 
L 190.708378 92.16 
L 187.461826 92.16 
z
" style="fill:#0072b2;"/>
   </g>
   <g id="patch_39">
    <path clip-path="url(#p16de8cf774)" d="M 190.708368 307.584 
L 193.954911 307.584 
L 193.954911 117.504 
L 190.708368 117.504 
z
" style="fill:#0072b2;"/>
   </g>
   <g id="patch_40">
    <path clip-path="url(#p16de8cf774)" d="M 193.954911 307.584 
L 197.201453 307.584 
L 197.201453 117.504 
L 193.954911 117.504 
z
" style="fill:#0072b2;"/>
   </g>
   <g id="patch_41">
    <path clip-path="url(#p16de8cf774)" d="M 197.201453 307.584 
L 200.447995 307.584 
L 200.447995 54.144 
L 197.201453 54.144 
z
" style="fill:#0072b2;"/>
   </g>
   <g id="patch_42">
    <path clip-path="url(#p16de8cf774)" d="M 200.447995 307.584 
L 203.694547 307.584 
L 203.694547 125.952 
L 200.447995 125.952 
z
" style="fill:#0072b2;"/>
   </g>
   <g id="patch_43">
    <path clip-path="url(#p16de8cf774)" d="M 203.694547 307.584 
L 206.94109 307.584 
L 206.94109 142.848 
L 203.694547 142.848 
z
" style="fill:#0072b2;"/>
   </g>
   <g id="patch_44">
    <path clip-path="url(#p16de8cf774)" d="M 206.94109 307.584 
L 210.187632 307.584 
L 210.187632 117.504 
L 206.94109 117.504 
z
" style="fill:#0072b2;"/>
   </g>
   <g id="patch_45">
    <path clip-path="url(#p16de8cf774)" d="M 210.187642 307.584 
L 213.434194 307.584 
L 213.434194 125.952 
L 210.187642 125.952 
z
" style="fill:#0072b2;"/>
   </g>
   <g id="patch_46">
    <path clip-path="url(#p16de8cf774)" d="M 213.434184 307.584 
L 216.680726 307.584 
L 216.680726 117.504 
L 213.434184 117.504 
z
" style="fill:#0072b2;"/>
   </g>
   <g id="patch_47">
    <path clip-path="url(#p16de8cf774)" d="M 216.680726 307.584 
L 219.927269 307.584 
L 219.927269 113.28 
L 216.680726 113.28 
z
" style="fill:#0072b2;"/>
   </g>
   <g id="patch_48">
    <path clip-path="url(#p16de8cf774)" d="M 219.927269 307.584 
L 223.173821 307.584 
L 223.173821 138.624 
L 219.927269 138.624 
z
" style="fill:#0072b2;"/>
   </g>
   <g id="patch_49">
    <path clip-path="url(#p16de8cf774)" d="M 223.173821 307.584 
L 226.420363 307.584 
L 226.420363 121.728 
L 223.173821 121.728 
z
" style="fill:#0072b2;"/>
   </g>
   <g id="patch_50">
    <path clip-path="url(#p16de8cf774)" d="M 226.420363 307.584 
L 229.666906 307.584 
L 229.666906 151.296 
L 226.420363 151.296 
z
" style="fill:#0072b2;"/>
   </g>
   <g id="patch_51">
    <path clip-path="url(#p16de8cf774)" d="M 229.666915 307.584 
L 232.913467 307.584 
L 232.913467 130.176 
L 229.666915 130.176 
z
" style="fill:#0072b2;"/>
   </g>
   <g id="patch_52">
    <path clip-path="url(#p16de8cf774)" d="M 232.913458 307.584 
L 236.16 307.584 
L 236.16 180.864 
L 232.913458 180.864 
z
" style="fill:#0072b2;"/>
   </g>
   <g id="patch_53">
    <path clip-path="url(#p16de8cf774)" d="M 236.16 307.584 
L 239.406542 307.584 
L 239.406542 168.192 
L 236.16 168.192 
z
" style="fill:#0072b2;"/>
   </g>
   <g id="patch_54">
    <path clip-path="url(#p16de8cf774)" d="M 239.406542 307.584 
L 242.653085 307.584 
L 242.653085 151.296 
L 239.406542 151.296 
z
" style="fill:#0072b2;"/>
   </g>
   <g id="patch_55">
    <path clip-path="url(#p16de8cf774)" d="M 242.653085 307.584 
L 245.899627 307.584 
L 245.899627 185.088 
L 242.653085 185.088 
z
" style="fill:#0072b2;"/>
   </g>
   <g id="patch_56">
    <path clip-path="url(#p16de8cf774)" d="M 245.899627 307.584 
L 249.146189 307.584 
L 249.146189 172.416 
L 245.899627 172.416 
z
" style="fill:#0072b2;"/>
   </g>
   <g id="patch_57">
    <path clip-path="url(#p16de8cf774)" d="M 249.146189 307.584 
L 252.392731 307.584 
L 252.392731 100.608 
L 249.146189 100.608 
z
" style="fill:#0072b2;"/>
   </g>
   <g id="patch_58">
    <path clip-path="url(#p16de8cf774)" d="M 252.392731 307.584 
L 255.639274 307.584 
L 255.639274 163.968 
L 252.392731 163.968 
z
" style="fill:#0072b2;"/>
   </g>
   <g id="patch_59">
    <path clip-path="url(#p16de8cf774)" d="M 255.639274 307.584 
L 258.885816 307.584 
L 258.885816 134.4 
L 255.639274 134.4 
z
" style="fill:#0072b2;"/>
   </g>
   <g id="patch_60">
    <path clip-path="url(#p16de8cf774)" d="M 258.885816 307.584 
L 262.132358 307.584 
L 262.132358 134.4 
L 258.885816 134.4 
z
" style="fill:#0072b2;"/>
   </g>
   <g id="patch_61">
    <path clip-path="url(#p16de8cf774)" d="M 262.132358 307.584 
L 265.378901 307.584 
L 265.378901 151.296 
L 262.132358 151.296 
z
" style="fill:#0072b2;"/>
   </g>
   <g id="patch_62">
    <path clip-path="url(#p16de8cf774)" d="M 265.37892 307.584 
L 268.625482 307.584 
L 268.625482 240 
L 265.37892 240 
z
" style="fill:#0072b2;"/>
   </g>
   <g id="patch_63">
    <path clip-path="url(#p16de8cf774)" d="M 268.625462 307.584 
L 271.872005 307.584 
L 271.872005 193.536 
L 268.625462 193.536 
z
" style="fill:#0072b2;"/>
   </g>
   <g id="patch_64">
    <path clip-path="url(#p16de8cf774)" d="M 271.872005 307.584 
L 275.118547 307.584 
L 275.118547 163.968 
L 271.872005 163.968 
z
" style="fill:#0072b2;"/>
   </g>
   <g id="patch_65">
    <path clip-path="url(#p16de8cf774)" d="M 275.118547 307.584 
L 278.365089 307.584 
L 278.365089 168.192 
L 275.118547 168.192 
z
" style="fill:#0072b2;"/>
   </g>
   <g id="patch_66">
    <path clip-path="url(#p16de8cf774)" d="M 278.365089 307.584 
L 281.611632 307.584 
L 281.611632 231.552 
L 278.365089 231.552 
z
" style="fill:#0072b2;"/>
   </g>
   <g id="patch_67">
    <path clip-path="url(#p16de8cf774)" d="M 281.611632 307.584 
L 284.858174 307.584 
L 284.858174 248.448 
L 281.611632 248.448 
z
" style="fill:#0072b2;"/>
   </g>
   <g id="patch_68">
    <path clip-path="url(#p16de8cf774)" d="M 284.858174 307.584 
L 288.104736 307.584 
L 288.104736 206.208 
L 284.858174 206.208 
z
" style="fill:#0072b2;"/>
   </g>
   <g id="patch_69">
    <path clip-path="url(#p16de8cf774)" d="M 288.104736 307.584 
L 291.351278 307.584 
L 291.351278 214.656 
L 288.104736 214.656 
z
" style="fill:#0072b2;"/>
   </g>
   <g id="patch_70">
    <path clip-path="url(#p16de8cf774)" d="M 291.351278 307.584 
L 294.597821 307.584 
L 294.597821 227.328 
L 291.351278 227.328 
z
" style="fill:#0072b2;"/>
   </g>
   <g id="patch_71">
    <path clip-path="url(#p16de8cf774)" d="M 294.597821 307.584 
L 297.844363 307.584 
L 297.844363 231.552 
L 294.597821 231.552 
z
" style="fill:#0072b2;"/>
   </g>
   <g id="patch_72">
    <path clip-path="url(#p16de8cf774)" d="M 297.844363 307.584 
L 301.090905 307.584 
L 301.090905 248.448 
L 297.844363 248.448 
z
" style="fill:#0072b2;"/>
   </g>
   <g id="patch_73">
    <path clip-path="url(#p16de8cf774)" d="M 301.090905 307.584 
L 304.337448 307.584 
L 304.337448 278.016 
L 301.090905 278.016 
z
" style="fill:#0072b2;"/>
   </g>
   <g id="patch_74">
    <path clip-path="url(#p16de8cf774)" d="M 304.337467 307.584 
L 307.584029 307.584 
L 307.584029 248.448 
L 304.337467 248.448 
z
" style="fill:#0072b2;"/>
   </g>
   <g id="patch_75">
    <path clip-path="url(#p16de8cf774)" d="M 307.584009 307.584 
L 310.830552 307.584 
L 310.830552 244.224 
L 307.584009 244.224 
z
" style="fill:#0072b2;"/>
   </g>
   <g id="patch_76">
    <path clip-path="url(#p16de8cf774)" d="M 310.830552 307.584 
L 314.077094 307.584 
L 314.077094 294.912 
L 310.830552 294.912 
z
" style="fill:#0072b2;"/>
   </g>
   <g id="patch_77">
    <path clip-path="url(#p16de8cf774)" d="M 314.077094 307.584 
L 317.323636 307.584 
L 317.323636 278.016 
L 314.077094 278.016 
z
" style="fill:#0072b2;"/>
   </g>
   <g id="patch_78">
    <path clip-path="url(#p16de8cf774)" d="M 317.323636 307.584 
L 320.570179 307.584 
L 320.570179 273.792 
L 317.323636 273.792 
z
" style="fill:#0072b2;"/>
   </g>
   <g id="patch_79">
    <path clip-path="url(#p16de8cf774)" d="M 320.570179 307.584 
L 323.816721 307.584 
L 323.816721 261.12 
L 320.570179 261.12 
z
" style="fill:#0072b2;"/>
   </g>
   <g id="patch_80">
    <path clip-path="url(#p16de8cf774)" d="M 323.816721 307.584 
L 327.063263 307.584 
L 327.063263 278.016 
L 323.816721 278.016 
z
" style="fill:#0072b2;"/>
   </g>
   <g id="patch_81">
    <path clip-path="url(#p16de8cf774)" d="M 327.063263 307.584 
L 330.309825 307.584 
L 330.309825 282.24 
L 327.063263 282.24 
z
" style="fill:#0072b2;"/>
   </g>
   <g id="patch_82">
    <path clip-path="url(#p16de8cf774)" d="M 330.309825 307.584 
L 333.556368 307.584 
L 333.556368 290.688 
L 330.309825 290.688 
z
" style="fill:#0072b2;"/>
   </g>
   <g id="patch_83">
    <path clip-path="url(#p16de8cf774)" d="M 333.556368 307.584 
L 336.80291 307.584 
L 336.80291 269.568 
L 333.556368 269.568 
z
" style="fill:#0072b2;"/>
   </g>
   <g id="patch_84">
    <path clip-path="url(#p16de8cf774)" d="M 336.80291 307.584 
L 340.049452 307.584 
L 340.049452 273.792 
L 336.80291 273.792 
z
" style="fill:#0072b2;"/>
   </g>
   <g id="patch_85">
    <path clip-path="url(#p16de8cf774)" d="M 340.049452 307.584 
L 343.295995 307.584 
L 343.295995 290.688 
L 340.049452 290.688 
z
" style="fill:#0072b2;"/>
   </g>
   <g id="patch_86">
    <path clip-path="url(#p16de8cf774)" d="M 343.295995 307.584 
L 346.542537 307.584 
L 346.542537 294.912 
L 343.295995 294.912 
z
" style="fill:#0072b2;"/>
   </g>
   <g id="patch_87">
    <path clip-path="url(#p16de8cf774)" d="M 346.542556 307.584 
L 349.789118 307.584 
L 349.789118 299.136 
L 346.542556 299.136 
z
" style="fill:#0072b2;"/>
   </g>
   <g id="patch_88">
    <path clip-path="url(#p16de8cf774)" d="M 349.789099 307.584 
L 353.035641 307.584 
L 353.035641 290.688 
L 349.789099 290.688 
z
" style="fill:#0072b2;"/>
   </g>
   <g id="patch_89">
    <path clip-path="url(#p16de8cf774)" d="M 353.035641 307.584 
L 356.282183 307.584 
L 356.282183 290.688 
L 353.035641 290.688 
z
" style="fill:#0072b2;"/>
   </g>
   <g id="patch_90">
    <path clip-path="url(#p16de8cf774)" d="M 356.282183 307.584 
L 359.528726 307.584 
L 359.528726 299.136 
L 356.282183 299.136 
z
" style="fill:#0072b2;"/>
   </g>
   <g id="patch_91">
    <path clip-path="url(#p16de8cf774)" d="M 359.528726 307.584 
L 362.775268 307.584 
L 362.775268 269.568 
L 359.528726 269.568 
z
" style="fill:#0072b2;"/>
   </g>
   <g id="patch_92">
    <path clip-path="url(#p16de8cf774)" d="M 362.775268 307.584 
L 366.02181 307.584 
L 366.02181 307.584 
L 362.775268 307.584 
z
" style="fill:#0072b2;"/>
   </g>
   <g id="patch_93">
    <path clip-path="url(#p16de8cf774)" d="M 366.02181 307.584 
L 369.268372 307.584 
L 369.268372 278.016 
L 366.02181 278.016 
z
" style="fill:#0072b2;"/>
   </g>
   <g id="patch_94">
    <path clip-path="url(#p16de8cf774)" d="M 369.268372 307.584 
L 372.514915 307.584 
L 372.514915 294.912 
L 369.268372 294.912 
z
" style="fill:#0072b2;"/>
   </g>
   <g id="patch_95">
    <path clip-path="url(#p16de8cf774)" d="M 372.514915 307.584 
L 375.761457 307.584 
L 375.761457 282.24 
L 372.514915 282.24 
z
" style="fill:#0072b2;"/>
   </g>
   <g id="patch_96">
    <path clip-path="url(#p16de8cf774)" d="M 375.761457 307.584 
L 379.007999 307.584 
L 379.007999 303.36 
L 375.761457 303.36 
z
" style="fill:#0072b2;"/>
   </g>
   <g id="patch_97">
    <path clip-path="url(#p16de8cf774)" d="M 379.007999 307.584 
L 382.254542 307.584 
L 382.254542 299.136 
L 379.007999 299.136 
z
" style="fill:#0072b2;"/>
   </g>
   <g id="patch_98">
    <path clip-path="url(#p16de8cf774)" d="M 382.254542 307.584 
L 385.501084 307.584 
L 385.501084 299.136 
L 382.254542 299.136 
z
" style="fill:#0072b2;"/>
   </g>
   <g id="patch_99">
    <path clip-path="url(#p16de8cf774)" d="M 385.501103 307.584 
L 388.747665 307.584 
L 388.747665 299.136 
L 385.501103 299.136 
z
" style="fill:#0072b2;"/>
   </g>
   <g id="patch_100">
    <path clip-path="url(#p16de8cf774)" d="M 388.747646 307.584 
L 391.994188 307.584 
L 391.994188 303.36 
L 388.747646 303.36 
z
" style="fill:#0072b2;"/>
   </g>
   <g id="patch_101">
    <path clip-path="url(#p16de8cf774)" d="M 391.994188 307.584 
L 395.24073 307.584 
L 395.24073 299.136 
L 391.994188 299.136 
z
" style="fill:#0072b2;"/>
   </g>
   <g id="patch_102">
    <path clip-path="url(#p16de8cf774)" d="M 395.24073 307.584 
L 398.487273 307.584 
L 398.487273 299.136 
L 395.24073 299.136 
z
" style="fill:#0072b2;"/>
   </g>
   <g id="matplotlib.axis_1">
    <g id="xtick_1">
     <g id="line2d_1">
      <defs>
       <path d="M 0 0 
L 0 3.5 
" id="m5b6471b29d" style="stroke:#000000;stroke-width:0.8;"/>
      </defs>
      <g>
       <use style="stroke:#000000;stroke-width:0.8;" x="73.832727" xlink:href="#m5b6471b29d" y="307.584"/>
      </g>
     </g>
     <g id="text_1">
      <!-- 0.0 -->
      <g transform="translate(65.881165 322.182437)scale(0.1 -0.1)">
       <defs>
        <path d="M 31.78125 66.40625 
Q 24.171875 66.40625 20.328125 58.90625 
Q 16.5 51.421875 16.5 36.375 
Q 16.5 21.390625 20.328125 13.890625 
Q 24.171875 6.390625 31.78125 6.390625 
Q 39.453125 6.390625 43.28125 13.890625 
Q 47.125 21.390625 47.125 36.375 
Q 47.125 51.421875 43.28125 58.90625 
Q 39.453125 66.40625 31.78125 66.40625 
z
M 31.78125 74.21875 
Q 44.046875 74.21875 50.515625 64.515625 
Q 56.984375 54.828125 56.984375 36.375 
Q 56.984375 17.96875 50.515625 8.265625 
Q 44.046875 -1.421875 31.78125 -1.421875 
Q 19.53125 -1.421875 13.0625 8.265625 
Q 6.59375 17.96875 6.59375 36.375 
Q 6.59375 54.828125 13.0625 64.515625 
Q 19.53125 74.21875 31.78125 74.21875 
z
" id="DejaVuSans-48"/>
        <path d="M 10.6875 12.40625 
L 21 12.40625 
L 21 0 
L 10.6875 0 
z
" id="DejaVuSans-46"/>
       </defs>
       <use xlink:href="#DejaVuSans-48"/>
       <use x="63.623047" xlink:href="#DejaVuSans-46"/>
       <use x="95.410156" xlink:href="#DejaVuSans-48"/>
      </g>
     </g>
    </g>
    <g id="xtick_2">
     <g id="line2d_2">
      <g>
       <use style="stroke:#000000;stroke-width:0.8;" x="138.763636" xlink:href="#m5b6471b29d" y="307.584"/>
      </g>
     </g>
     <g id="text_2">
      <!-- 0.2 -->
      <g transform="translate(130.812074 322.182437)scale(0.1 -0.1)">
       <defs>
        <path d="M 19.1875 8.296875 
L 53.609375 8.296875 
L 53.609375 0 
L 7.328125 0 
L 7.328125 8.296875 
Q 12.9375 14.109375 22.625 23.890625 
Q 32.328125 33.6875 34.8125 36.53125 
Q 39.546875 41.84375 41.421875 45.53125 
Q 43.3125 49.21875 43.3125 52.78125 
Q 43.3125 58.59375 39.234375 62.25 
Q 35.15625 65.921875 28.609375 65.921875 
Q 23.96875 65.921875 18.8125 64.3125 
Q 13.671875 62.703125 7.8125 59.421875 
L 7.8125 69.390625 
Q 13.765625 71.78125 18.9375 73 
Q 24.125 74.21875 28.421875 74.21875 
Q 39.75 74.21875 46.484375 68.546875 
Q 53.21875 62.890625 53.21875 53.421875 
Q 53.21875 48.921875 51.53125 44.890625 
Q 49.859375 40.875 45.40625 35.40625 
Q 44.1875 33.984375 37.640625 27.21875 
Q 31.109375 20.453125 19.1875 8.296875 
z
" id="DejaVuSans-50"/>
       </defs>
       <use xlink:href="#DejaVuSans-48"/>
       <use x="63.623047" xlink:href="#DejaVuSans-46"/>
       <use x="95.410156" xlink:href="#DejaVuSans-50"/>
      </g>
     </g>
    </g>
    <g id="xtick_3">
     <g id="line2d_3">
      <g>
       <use style="stroke:#000000;stroke-width:0.8;" x="203.694545" xlink:href="#m5b6471b29d" y="307.584"/>
      </g>
     </g>
     <g id="text_3">
      <!-- 0.4 -->
      <g transform="translate(195.742983 322.182437)scale(0.1 -0.1)">
       <defs>
        <path d="M 37.796875 64.3125 
L 12.890625 25.390625 
L 37.796875 25.390625 
z
M 35.203125 72.90625 
L 47.609375 72.90625 
L 47.609375 25.390625 
L 58.015625 25.390625 
L 58.015625 17.1875 
L 47.609375 17.1875 
L 47.609375 0 
L 37.796875 0 
L 37.796875 17.1875 
L 4.890625 17.1875 
L 4.890625 26.703125 
z
" id="DejaVuSans-52"/>
       </defs>
       <use xlink:href="#DejaVuSans-48"/>
       <use x="63.623047" xlink:href="#DejaVuSans-46"/>
       <use x="95.410156" xlink:href="#DejaVuSans-52"/>
      </g>
     </g>
    </g>
    <g id="xtick_4">
     <g id="line2d_4">
      <g>
       <use style="stroke:#000000;stroke-width:0.8;" x="268.625455" xlink:href="#m5b6471b29d" y="307.584"/>
      </g>
     </g>
     <g id="text_4">
      <!-- 0.6 -->
      <g transform="translate(260.673892 322.182437)scale(0.1 -0.1)">
       <defs>
        <path d="M 33.015625 40.375 
Q 26.375 40.375 22.484375 35.828125 
Q 18.609375 31.296875 18.609375 23.390625 
Q 18.609375 15.53125 22.484375 10.953125 
Q 26.375 6.390625 33.015625 6.390625 
Q 39.65625 6.390625 43.53125 10.953125 
Q 47.40625 15.53125 47.40625 23.390625 
Q 47.40625 31.296875 43.53125 35.828125 
Q 39.65625 40.375 33.015625 40.375 
z
M 52.59375 71.296875 
L 52.59375 62.3125 
Q 48.875 64.0625 45.09375 64.984375 
Q 41.3125 65.921875 37.59375 65.921875 
Q 27.828125 65.921875 22.671875 59.328125 
Q 17.53125 52.734375 16.796875 39.40625 
Q 19.671875 43.65625 24.015625 45.921875 
Q 28.375 48.1875 33.59375 48.1875 
Q 44.578125 48.1875 50.953125 41.515625 
Q 57.328125 34.859375 57.328125 23.390625 
Q 57.328125 12.15625 50.6875 5.359375 
Q 44.046875 -1.421875 33.015625 -1.421875 
Q 20.359375 -1.421875 13.671875 8.265625 
Q 6.984375 17.96875 6.984375 36.375 
Q 6.984375 53.65625 15.1875 63.9375 
Q 23.390625 74.21875 37.203125 74.21875 
Q 40.921875 74.21875 44.703125 73.484375 
Q 48.484375 72.75 52.59375 71.296875 
z
" id="DejaVuSans-54"/>
       </defs>
       <use xlink:href="#DejaVuSans-48"/>
       <use x="63.623047" xlink:href="#DejaVuSans-46"/>
       <use x="95.410156" xlink:href="#DejaVuSans-54"/>
      </g>
     </g>
    </g>
    <g id="xtick_5">
     <g id="line2d_5">
      <g>
       <use style="stroke:#000000;stroke-width:0.8;" x="333.556364" xlink:href="#m5b6471b29d" y="307.584"/>
      </g>
     </g>
     <g id="text_5">
      <!-- 0.8 -->
      <g transform="translate(325.604801 322.182437)scale(0.1 -0.1)">
       <defs>
        <path d="M 31.78125 34.625 
Q 24.75 34.625 20.71875 30.859375 
Q 16.703125 27.09375 16.703125 20.515625 
Q 16.703125 13.921875 20.71875 10.15625 
Q 24.75 6.390625 31.78125 6.390625 
Q 38.8125 6.390625 42.859375 10.171875 
Q 46.921875 13.96875 46.921875 20.515625 
Q 46.921875 27.09375 42.890625 30.859375 
Q 38.875 34.625 31.78125 34.625 
z
M 21.921875 38.8125 
Q 15.578125 40.375 12.03125 44.71875 
Q 8.5 49.078125 8.5 55.328125 
Q 8.5 64.0625 14.71875 69.140625 
Q 20.953125 74.21875 31.78125 74.21875 
Q 42.671875 74.21875 48.875 69.140625 
Q 55.078125 64.0625 55.078125 55.328125 
Q 55.078125 49.078125 51.53125 44.71875 
Q 48 40.375 41.703125 38.8125 
Q 48.828125 37.15625 52.796875 32.3125 
Q 56.78125 27.484375 56.78125 20.515625 
Q 56.78125 9.90625 50.3125 4.234375 
Q 43.84375 -1.421875 31.78125 -1.421875 
Q 19.734375 -1.421875 13.25 4.234375 
Q 6.78125 9.90625 6.78125 20.515625 
Q 6.78125 27.484375 10.78125 32.3125 
Q 14.796875 37.15625 21.921875 38.8125 
z
M 18.3125 54.390625 
Q 18.3125 48.734375 21.84375 45.5625 
Q 25.390625 42.390625 31.78125 42.390625 
Q 38.140625 42.390625 41.71875 45.5625 
Q 45.3125 48.734375 45.3125 54.390625 
Q 45.3125 60.0625 41.71875 63.234375 
Q 38.140625 66.40625 31.78125 66.40625 
Q 25.390625 66.40625 21.84375 63.234375 
Q 18.3125 60.0625 18.3125 54.390625 
z
" id="DejaVuSans-56"/>
       </defs>
       <use xlink:href="#DejaVuSans-48"/>
       <use x="63.623047" xlink:href="#DejaVuSans-46"/>
       <use x="95.410156" xlink:href="#DejaVuSans-56"/>
      </g>
     </g>
    </g>
    <g id="xtick_6">
     <g id="line2d_6">
      <g>
       <use style="stroke:#000000;stroke-width:0.8;" x="398.487273" xlink:href="#m5b6471b29d" y="307.584"/>
      </g>
     </g>
     <g id="text_6">
      <!-- 1.0 -->
      <g transform="translate(390.53571 322.182437)scale(0.1 -0.1)">
       <defs>
        <path d="M 12.40625 8.296875 
L 28.515625 8.296875 
L 28.515625 63.921875 
L 10.984375 60.40625 
L 10.984375 69.390625 
L 28.421875 72.90625 
L 38.28125 72.90625 
L 38.28125 8.296875 
L 54.390625 8.296875 
L 54.390625 0 
L 12.40625 0 
z
" id="DejaVuSans-49"/>
       </defs>
       <use xlink:href="#DejaVuSans-49"/>
       <use x="63.623047" xlink:href="#DejaVuSans-46"/>
       <use x="95.410156" xlink:href="#DejaVuSans-48"/>
      </g>
     </g>
    </g>
    <g id="text_7">
     <!-- Normalized SOC (g/kg) -->
     <g transform="translate(179.195156 335.860562)scale(0.1 -0.1)">
      <defs>
       <path d="M 9.8125 72.90625 
L 23.09375 72.90625 
L 55.421875 11.921875 
L 55.421875 72.90625 
L 64.984375 72.90625 
L 64.984375 0 
L 51.703125 0 
L 19.390625 60.984375 
L 19.390625 0 
L 9.8125 0 
z
" id="DejaVuSans-78"/>
       <path d="M 30.609375 48.390625 
Q 23.390625 48.390625 19.1875 42.75 
Q 14.984375 37.109375 14.984375 27.296875 
Q 14.984375 17.484375 19.15625 11.84375 
Q 23.34375 6.203125 30.609375 6.203125 
Q 37.796875 6.203125 41.984375 11.859375 
Q 46.1875 17.53125 46.1875 27.296875 
Q 46.1875 37.015625 41.984375 42.703125 
Q 37.796875 48.390625 30.609375 48.390625 
z
M 30.609375 56 
Q 42.328125 56 49.015625 48.375 
Q 55.71875 40.765625 55.71875 27.296875 
Q 55.71875 13.875 49.015625 6.21875 
Q 42.328125 -1.421875 30.609375 -1.421875 
Q 18.84375 -1.421875 12.171875 6.21875 
Q 5.515625 13.875 5.515625 27.296875 
Q 5.515625 40.765625 12.171875 48.375 
Q 18.84375 56 30.609375 56 
z
" id="DejaVuSans-111"/>
       <path d="M 41.109375 46.296875 
Q 39.59375 47.171875 37.8125 47.578125 
Q 36.03125 48 33.890625 48 
Q 26.265625 48 22.1875 43.046875 
Q 18.109375 38.09375 18.109375 28.8125 
L 18.109375 0 
L 9.078125 0 
L 9.078125 54.6875 
L 18.109375 54.6875 
L 18.109375 46.1875 
Q 20.953125 51.171875 25.484375 53.578125 
Q 30.03125 56 36.53125 56 
Q 37.453125 56 38.578125 55.875 
Q 39.703125 55.765625 41.0625 55.515625 
z
" id="DejaVuSans-114"/>
       <path d="M 52 44.1875 
Q 55.375 50.25 60.0625 53.125 
Q 64.75 56 71.09375 56 
Q 79.640625 56 84.28125 50.015625 
Q 88.921875 44.046875 88.921875 33.015625 
L 88.921875 0 
L 79.890625 0 
L 79.890625 32.71875 
Q 79.890625 40.578125 77.09375 44.375 
Q 74.3125 48.1875 68.609375 48.1875 
Q 61.625 48.1875 57.5625 43.546875 
Q 53.515625 38.921875 53.515625 30.90625 
L 53.515625 0 
L 44.484375 0 
L 44.484375 32.71875 
Q 44.484375 40.625 41.703125 44.40625 
Q 38.921875 48.1875 33.109375 48.1875 
Q 26.21875 48.1875 22.15625 43.53125 
Q 18.109375 38.875 18.109375 30.90625 
L 18.109375 0 
L 9.078125 0 
L 9.078125 54.6875 
L 18.109375 54.6875 
L 18.109375 46.1875 
Q 21.1875 51.21875 25.484375 53.609375 
Q 29.78125 56 35.6875 56 
Q 41.65625 56 45.828125 52.96875 
Q 50 49.953125 52 44.1875 
z
" id="DejaVuSans-109"/>
       <path d="M 34.28125 27.484375 
Q 23.390625 27.484375 19.1875 25 
Q 14.984375 22.515625 14.984375 16.5 
Q 14.984375 11.71875 18.140625 8.90625 
Q 21.296875 6.109375 26.703125 6.109375 
Q 34.1875 6.109375 38.703125 11.40625 
Q 43.21875 16.703125 43.21875 25.484375 
L 43.21875 27.484375 
z
M 52.203125 31.203125 
L 52.203125 0 
L 43.21875 0 
L 43.21875 8.296875 
Q 40.140625 3.328125 35.546875 0.953125 
Q 30.953125 -1.421875 24.3125 -1.421875 
Q 15.921875 -1.421875 10.953125 3.296875 
Q 6 8.015625 6 15.921875 
Q 6 25.140625 12.171875 29.828125 
Q 18.359375 34.515625 30.609375 34.515625 
L 43.21875 34.515625 
L 43.21875 35.40625 
Q 43.21875 41.609375 39.140625 45 
Q 35.0625 48.390625 27.6875 48.390625 
Q 23 48.390625 18.546875 47.265625 
Q 14.109375 46.140625 10.015625 43.890625 
L 10.015625 52.203125 
Q 14.9375 54.109375 19.578125 55.046875 
Q 24.21875 56 28.609375 56 
Q 40.484375 56 46.34375 49.84375 
Q 52.203125 43.703125 52.203125 31.203125 
z
" id="DejaVuSans-97"/>
       <path d="M 9.421875 75.984375 
L 18.40625 75.984375 
L 18.40625 0 
L 9.421875 0 
z
" id="DejaVuSans-108"/>
       <path d="M 9.421875 54.6875 
L 18.40625 54.6875 
L 18.40625 0 
L 9.421875 0 
z
M 9.421875 75.984375 
L 18.40625 75.984375 
L 18.40625 64.59375 
L 9.421875 64.59375 
z
" id="DejaVuSans-105"/>
       <path d="M 5.515625 54.6875 
L 48.1875 54.6875 
L 48.1875 46.484375 
L 14.40625 7.171875 
L 48.1875 7.171875 
L 48.1875 0 
L 4.296875 0 
L 4.296875 8.203125 
L 38.09375 47.515625 
L 5.515625 47.515625 
z
" id="DejaVuSans-122"/>
       <path d="M 56.203125 29.59375 
L 56.203125 25.203125 
L 14.890625 25.203125 
Q 15.484375 15.921875 20.484375 11.0625 
Q 25.484375 6.203125 34.421875 6.203125 
Q 39.59375 6.203125 44.453125 7.46875 
Q 49.3125 8.734375 54.109375 11.28125 
L 54.109375 2.78125 
Q 49.265625 0.734375 44.1875 -0.34375 
Q 39.109375 -1.421875 33.890625 -1.421875 
Q 20.796875 -1.421875 13.15625 6.1875 
Q 5.515625 13.8125 5.515625 26.8125 
Q 5.515625 40.234375 12.765625 48.109375 
Q 20.015625 56 32.328125 56 
Q 43.359375 56 49.78125 48.890625 
Q 56.203125 41.796875 56.203125 29.59375 
z
M 47.21875 32.234375 
Q 47.125 39.59375 43.09375 43.984375 
Q 39.0625 48.390625 32.421875 48.390625 
Q 24.90625 48.390625 20.390625 44.140625 
Q 15.875 39.890625 15.1875 32.171875 
z
" id="DejaVuSans-101"/>
       <path d="M 45.40625 46.390625 
L 45.40625 75.984375 
L 54.390625 75.984375 
L 54.390625 0 
L 45.40625 0 
L 45.40625 8.203125 
Q 42.578125 3.328125 38.25 0.953125 
Q 33.9375 -1.421875 27.875 -1.421875 
Q 17.96875 -1.421875 11.734375 6.484375 
Q 5.515625 14.40625 5.515625 27.296875 
Q 5.515625 40.1875 11.734375 48.09375 
Q 17.96875 56 27.875 56 
Q 33.9375 56 38.25 53.625 
Q 42.578125 51.265625 45.40625 46.390625 
z
M 14.796875 27.296875 
Q 14.796875 17.390625 18.875 11.75 
Q 22.953125 6.109375 30.078125 6.109375 
Q 37.203125 6.109375 41.296875 11.75 
Q 45.40625 17.390625 45.40625 27.296875 
Q 45.40625 37.203125 41.296875 42.84375 
Q 37.203125 48.484375 30.078125 48.484375 
Q 22.953125 48.484375 18.875 42.84375 
Q 14.796875 37.203125 14.796875 27.296875 
z
" id="DejaVuSans-100"/>
       <path id="DejaVuSans-32"/>
       <path d="M 53.515625 70.515625 
L 53.515625 60.890625 
Q 47.90625 63.578125 42.921875 64.890625 
Q 37.9375 66.21875 33.296875 66.21875 
Q 25.25 66.21875 20.875 63.09375 
Q 16.5 59.96875 16.5 54.203125 
Q 16.5 49.359375 19.40625 46.890625 
Q 22.3125 44.4375 30.421875 42.921875 
L 36.375 41.703125 
Q 47.40625 39.59375 52.65625 34.296875 
Q 57.90625 29 57.90625 20.125 
Q 57.90625 9.515625 50.796875 4.046875 
Q 43.703125 -1.421875 29.984375 -1.421875 
Q 24.8125 -1.421875 18.96875 -0.25 
Q 13.140625 0.921875 6.890625 3.21875 
L 6.890625 13.375 
Q 12.890625 10.015625 18.65625 8.296875 
Q 24.421875 6.59375 29.984375 6.59375 
Q 38.421875 6.59375 43.015625 9.90625 
Q 47.609375 13.234375 47.609375 19.390625 
Q 47.609375 24.75 44.3125 27.78125 
Q 41.015625 30.8125 33.5 32.328125 
L 27.484375 33.5 
Q 16.453125 35.6875 11.515625 40.375 
Q 6.59375 45.0625 6.59375 53.421875 
Q 6.59375 63.09375 13.40625 68.65625 
Q 20.21875 74.21875 32.171875 74.21875 
Q 37.3125 74.21875 42.625 73.28125 
Q 47.953125 72.359375 53.515625 70.515625 
z
" id="DejaVuSans-83"/>
       <path d="M 39.40625 66.21875 
Q 28.65625 66.21875 22.328125 58.203125 
Q 16.015625 50.203125 16.015625 36.375 
Q 16.015625 22.609375 22.328125 14.59375 
Q 28.65625 6.59375 39.40625 6.59375 
Q 50.140625 6.59375 56.421875 14.59375 
Q 62.703125 22.609375 62.703125 36.375 
Q 62.703125 50.203125 56.421875 58.203125 
Q 50.140625 66.21875 39.40625 66.21875 
z
M 39.40625 74.21875 
Q 54.734375 74.21875 63.90625 63.9375 
Q 73.09375 53.65625 73.09375 36.375 
Q 73.09375 19.140625 63.90625 8.859375 
Q 54.734375 -1.421875 39.40625 -1.421875 
Q 24.03125 -1.421875 14.8125 8.828125 
Q 5.609375 19.09375 5.609375 36.375 
Q 5.609375 53.65625 14.8125 63.9375 
Q 24.03125 74.21875 39.40625 74.21875 
z
" id="DejaVuSans-79"/>
       <path d="M 64.40625 67.28125 
L 64.40625 56.890625 
Q 59.421875 61.53125 53.78125 63.8125 
Q 48.140625 66.109375 41.796875 66.109375 
Q 29.296875 66.109375 22.65625 58.46875 
Q 16.015625 50.828125 16.015625 36.375 
Q 16.015625 21.96875 22.65625 14.328125 
Q 29.296875 6.6875 41.796875 6.6875 
Q 48.140625 6.6875 53.78125 8.984375 
Q 59.421875 11.28125 64.40625 15.921875 
L 64.40625 5.609375 
Q 59.234375 2.09375 53.4375 0.328125 
Q 47.65625 -1.421875 41.21875 -1.421875 
Q 24.65625 -1.421875 15.125 8.703125 
Q 5.609375 18.84375 5.609375 36.375 
Q 5.609375 53.953125 15.125 64.078125 
Q 24.65625 74.21875 41.21875 74.21875 
Q 47.75 74.21875 53.53125 72.484375 
Q 59.328125 70.75 64.40625 67.28125 
z
" id="DejaVuSans-67"/>
       <path d="M 31 75.875 
Q 24.46875 64.65625 21.28125 53.65625 
Q 18.109375 42.671875 18.109375 31.390625 
Q 18.109375 20.125 21.3125 9.0625 
Q 24.515625 -2 31 -13.1875 
L 23.1875 -13.1875 
Q 15.875 -1.703125 12.234375 9.375 
Q 8.59375 20.453125 8.59375 31.390625 
Q 8.59375 42.28125 12.203125 53.3125 
Q 15.828125 64.359375 23.1875 75.875 
z
" id="DejaVuSans-40"/>
       <path d="M 45.40625 27.984375 
Q 45.40625 37.75 41.375 43.109375 
Q 37.359375 48.484375 30.078125 48.484375 
Q 22.859375 48.484375 18.828125 43.109375 
Q 14.796875 37.75 14.796875 27.984375 
Q 14.796875 18.265625 18.828125 12.890625 
Q 22.859375 7.515625 30.078125 7.515625 
Q 37.359375 7.515625 41.375 12.890625 
Q 45.40625 18.265625 45.40625 27.984375 
z
M 54.390625 6.78125 
Q 54.390625 -7.171875 48.1875 -13.984375 
Q 42 -20.796875 29.203125 -20.796875 
Q 24.46875 -20.796875 20.265625 -20.09375 
Q 16.0625 -19.390625 12.109375 -17.921875 
L 12.109375 -9.1875 
Q 16.0625 -11.328125 19.921875 -12.34375 
Q 23.78125 -13.375 27.78125 -13.375 
Q 36.625 -13.375 41.015625 -8.765625 
Q 45.40625 -4.15625 45.40625 5.171875 
L 45.40625 9.625 
Q 42.625 4.78125 38.28125 2.390625 
Q 33.9375 0 27.875 0 
Q 17.828125 0 11.671875 7.65625 
Q 5.515625 15.328125 5.515625 27.984375 
Q 5.515625 40.671875 11.671875 48.328125 
Q 17.828125 56 27.875 56 
Q 33.9375 56 38.28125 53.609375 
Q 42.625 51.21875 45.40625 46.390625 
L 45.40625 54.6875 
L 54.390625 54.6875 
z
" id="DejaVuSans-103"/>
       <path d="M 25.390625 72.90625 
L 33.6875 72.90625 
L 8.296875 -9.28125 
L 0 -9.28125 
z
" id="DejaVuSans-47"/>
       <path d="M 9.078125 75.984375 
L 18.109375 75.984375 
L 18.109375 31.109375 
L 44.921875 54.6875 
L 56.390625 54.6875 
L 27.390625 29.109375 
L 57.625 0 
L 45.90625 0 
L 18.109375 26.703125 
L 18.109375 0 
L 9.078125 0 
z
" id="DejaVuSans-107"/>
       <path d="M 8.015625 75.875 
L 15.828125 75.875 
Q 23.140625 64.359375 26.78125 53.3125 
Q 30.421875 42.28125 30.421875 31.390625 
Q 30.421875 20.453125 26.78125 9.375 
Q 23.140625 -1.703125 15.828125 -13.1875 
L 8.015625 -13.1875 
Q 14.5 -2 17.703125 9.0625 
Q 20.90625 20.125 20.90625 31.390625 
Q 20.90625 42.671875 17.703125 53.65625 
Q 14.5 64.65625 8.015625 75.875 
z
" id="DejaVuSans-41"/>
      </defs>
      <use xlink:href="#DejaVuSans-78"/>
      <use x="74.804688" xlink:href="#DejaVuSans-111"/>
      <use x="135.986328" xlink:href="#DejaVuSans-114"/>
      <use x="175.349609" xlink:href="#DejaVuSans-109"/>
      <use x="272.761719" xlink:href="#DejaVuSans-97"/>
      <use x="334.041016" xlink:href="#DejaVuSans-108"/>
      <use x="361.824219" xlink:href="#DejaVuSans-105"/>
      <use x="389.607422" xlink:href="#DejaVuSans-122"/>
      <use x="442.097656" xlink:href="#DejaVuSans-101"/>
      <use x="503.621094" xlink:href="#DejaVuSans-100"/>
      <use x="567.097656" xlink:href="#DejaVuSans-32"/>
      <use x="598.884766" xlink:href="#DejaVuSans-83"/>
      <use x="662.361328" xlink:href="#DejaVuSans-79"/>
      <use x="741.072266" xlink:href="#DejaVuSans-67"/>
      <use x="810.896484" xlink:href="#DejaVuSans-32"/>
      <use x="842.683594" xlink:href="#DejaVuSans-40"/>
      <use x="881.697266" xlink:href="#DejaVuSans-103"/>
      <use x="945.173828" xlink:href="#DejaVuSans-47"/>
      <use x="978.865234" xlink:href="#DejaVuSans-107"/>
      <use x="1036.775391" xlink:href="#DejaVuSans-103"/>
      <use x="1100.251953" xlink:href="#DejaVuSans-41"/>
     </g>
    </g>
   </g>
   <g id="matplotlib.axis_2">
    <g id="ytick_1">
     <g id="line2d_7">
      <defs>
       <path d="M 0 0 
L -3.5 0 
" id="m273d8a9912" style="stroke:#000000;stroke-width:0.8;"/>
      </defs>
      <g>
       <use style="stroke:#000000;stroke-width:0.8;" x="57.6" xlink:href="#m273d8a9912" y="307.584"/>
      </g>
     </g>
     <g id="text_8">
      <!-- 0 -->
      <g transform="translate(44.2375 311.383219)scale(0.1 -0.1)">
       <use xlink:href="#DejaVuSans-48"/>
      </g>
     </g>
    </g>
    <g id="ytick_2">
     <g id="line2d_8">
      <g>
       <use style="stroke:#000000;stroke-width:0.8;" x="57.6" xlink:href="#m273d8a9912" y="265.344"/>
      </g>
     </g>
     <g id="text_9">
      <!-- 10 -->
      <g transform="translate(37.875 269.143219)scale(0.1 -0.1)">
       <use xlink:href="#DejaVuSans-49"/>
       <use x="63.623047" xlink:href="#DejaVuSans-48"/>
      </g>
     </g>
    </g>
    <g id="ytick_3">
     <g id="line2d_9">
      <g>
       <use style="stroke:#000000;stroke-width:0.8;" x="57.6" xlink:href="#m273d8a9912" y="223.104"/>
      </g>
     </g>
     <g id="text_10">
      <!-- 20 -->
      <g transform="translate(37.875 226.903219)scale(0.1 -0.1)">
       <use xlink:href="#DejaVuSans-50"/>
       <use x="63.623047" xlink:href="#DejaVuSans-48"/>
      </g>
     </g>
    </g>
    <g id="ytick_4">
     <g id="line2d_10">
      <g>
       <use style="stroke:#000000;stroke-width:0.8;" x="57.6" xlink:href="#m273d8a9912" y="180.864"/>
      </g>
     </g>
     <g id="text_11">
      <!-- 30 -->
      <g transform="translate(37.875 184.663219)scale(0.1 -0.1)">
       <defs>
        <path d="M 40.578125 39.3125 
Q 47.65625 37.796875 51.625 33 
Q 55.609375 28.21875 55.609375 21.1875 
Q 55.609375 10.40625 48.1875 4.484375 
Q 40.765625 -1.421875 27.09375 -1.421875 
Q 22.515625 -1.421875 17.65625 -0.515625 
Q 12.796875 0.390625 7.625 2.203125 
L 7.625 11.71875 
Q 11.71875 9.328125 16.59375 8.109375 
Q 21.484375 6.890625 26.8125 6.890625 
Q 36.078125 6.890625 40.9375 10.546875 
Q 45.796875 14.203125 45.796875 21.1875 
Q 45.796875 27.640625 41.28125 31.265625 
Q 36.765625 34.90625 28.71875 34.90625 
L 20.21875 34.90625 
L 20.21875 43.015625 
L 29.109375 43.015625 
Q 36.375 43.015625 40.234375 45.921875 
Q 44.09375 48.828125 44.09375 54.296875 
Q 44.09375 59.90625 40.109375 62.90625 
Q 36.140625 65.921875 28.71875 65.921875 
Q 24.65625 65.921875 20.015625 65.03125 
Q 15.375 64.15625 9.8125 62.3125 
L 9.8125 71.09375 
Q 15.4375 72.65625 20.34375 73.4375 
Q 25.25 74.21875 29.59375 74.21875 
Q 40.828125 74.21875 47.359375 69.109375 
Q 53.90625 64.015625 53.90625 55.328125 
Q 53.90625 49.265625 50.4375 45.09375 
Q 46.96875 40.921875 40.578125 39.3125 
z
" id="DejaVuSans-51"/>
       </defs>
       <use xlink:href="#DejaVuSans-51"/>
       <use x="63.623047" xlink:href="#DejaVuSans-48"/>
      </g>
     </g>
    </g>
    <g id="ytick_5">
     <g id="line2d_11">
      <g>
       <use style="stroke:#000000;stroke-width:0.8;" x="57.6" xlink:href="#m273d8a9912" y="138.624"/>
      </g>
     </g>
     <g id="text_12">
      <!-- 40 -->
      <g transform="translate(37.875 142.423219)scale(0.1 -0.1)">
       <use xlink:href="#DejaVuSans-52"/>
       <use x="63.623047" xlink:href="#DejaVuSans-48"/>
      </g>
     </g>
    </g>
    <g id="ytick_6">
     <g id="line2d_12">
      <g>
       <use style="stroke:#000000;stroke-width:0.8;" x="57.6" xlink:href="#m273d8a9912" y="96.384"/>
      </g>
     </g>
     <g id="text_13">
      <!-- 50 -->
      <g transform="translate(37.875 100.183219)scale(0.1 -0.1)">
       <defs>
        <path d="M 10.796875 72.90625 
L 49.515625 72.90625 
L 49.515625 64.59375 
L 19.828125 64.59375 
L 19.828125 46.734375 
Q 21.96875 47.46875 24.109375 47.828125 
Q 26.265625 48.1875 28.421875 48.1875 
Q 40.625 48.1875 47.75 41.5 
Q 54.890625 34.8125 54.890625 23.390625 
Q 54.890625 11.625 47.5625 5.09375 
Q 40.234375 -1.421875 26.90625 -1.421875 
Q 22.3125 -1.421875 17.546875 -0.640625 
Q 12.796875 0.140625 7.71875 1.703125 
L 7.71875 11.625 
Q 12.109375 9.234375 16.796875 8.0625 
Q 21.484375 6.890625 26.703125 6.890625 
Q 35.15625 6.890625 40.078125 11.328125 
Q 45.015625 15.765625 45.015625 23.390625 
Q 45.015625 31 40.078125 35.4375 
Q 35.15625 39.890625 26.703125 39.890625 
Q 22.75 39.890625 18.8125 39.015625 
Q 14.890625 38.140625 10.796875 36.28125 
z
" id="DejaVuSans-53"/>
       </defs>
       <use xlink:href="#DejaVuSans-53"/>
       <use x="63.623047" xlink:href="#DejaVuSans-48"/>
      </g>
     </g>
    </g>
    <g id="ytick_7">
     <g id="line2d_13">
      <g>
       <use style="stroke:#000000;stroke-width:0.8;" x="57.6" xlink:href="#m273d8a9912" y="54.144"/>
      </g>
     </g>
     <g id="text_14">
      <!-- 60 -->
      <g transform="translate(37.875 57.943219)scale(0.1 -0.1)">
       <use xlink:href="#DejaVuSans-54"/>
       <use x="63.623047" xlink:href="#DejaVuSans-48"/>
      </g>
     </g>
    </g>
    <g id="text_15">
     <!-- Count -->
     <g transform="translate(31.795312 189.376437)rotate(-90)scale(0.1 -0.1)">
      <defs>
       <path d="M 8.5 21.578125 
L 8.5 54.6875 
L 17.484375 54.6875 
L 17.484375 21.921875 
Q 17.484375 14.15625 20.5 10.265625 
Q 23.53125 6.390625 29.59375 6.390625 
Q 36.859375 6.390625 41.078125 11.03125 
Q 45.3125 15.671875 45.3125 23.6875 
L 45.3125 54.6875 
L 54.296875 54.6875 
L 54.296875 0 
L 45.3125 0 
L 45.3125 8.40625 
Q 42.046875 3.421875 37.71875 1 
Q 33.40625 -1.421875 27.6875 -1.421875 
Q 18.265625 -1.421875 13.375 4.4375 
Q 8.5 10.296875 8.5 21.578125 
z
M 31.109375 56 
z
" id="DejaVuSans-117"/>
       <path d="M 54.890625 33.015625 
L 54.890625 0 
L 45.90625 0 
L 45.90625 32.71875 
Q 45.90625 40.484375 42.875 44.328125 
Q 39.84375 48.1875 33.796875 48.1875 
Q 26.515625 48.1875 22.3125 43.546875 
Q 18.109375 38.921875 18.109375 30.90625 
L 18.109375 0 
L 9.078125 0 
L 9.078125 54.6875 
L 18.109375 54.6875 
L 18.109375 46.1875 
Q 21.34375 51.125 25.703125 53.5625 
Q 30.078125 56 35.796875 56 
Q 45.21875 56 50.046875 50.171875 
Q 54.890625 44.34375 54.890625 33.015625 
z
" id="DejaVuSans-110"/>
       <path d="M 18.3125 70.21875 
L 18.3125 54.6875 
L 36.8125 54.6875 
L 36.8125 47.703125 
L 18.3125 47.703125 
L 18.3125 18.015625 
Q 18.3125 11.328125 20.140625 9.421875 
Q 21.96875 7.515625 27.59375 7.515625 
L 36.8125 7.515625 
L 36.8125 0 
L 27.59375 0 
Q 17.1875 0 13.234375 3.875 
Q 9.28125 7.765625 9.28125 18.015625 
L 9.28125 47.703125 
L 2.6875 47.703125 
L 2.6875 54.6875 
L 9.28125 54.6875 
L 9.28125 70.21875 
z
" id="DejaVuSans-116"/>
      </defs>
      <use xlink:href="#DejaVuSans-67"/>
      <use x="69.824219" xlink:href="#DejaVuSans-111"/>
      <use x="131.005859" xlink:href="#DejaVuSans-117"/>
      <use x="194.384766" xlink:href="#DejaVuSans-110"/>
      <use x="257.763672" xlink:href="#DejaVuSans-116"/>
     </g>
    </g>
   </g>
   <g id="line2d_14">
    <path clip-path="url(#p16de8cf774)" d="M 230.61421 307.584 
L 230.61421 41.472 
" style="fill:none;stroke:#000000;stroke-dasharray:3.7,1.6;stroke-dashoffset:0;"/>
   </g>
   <g id="patch_103">
    <path d="M 57.6 307.584 
L 57.6 41.472 
" style="fill:none;stroke:#000000;stroke-linecap:square;stroke-linejoin:miter;stroke-width:0.8;"/>
   </g>
   <g id="patch_104">
    <path d="M 414.72 307.584 
L 414.72 41.472 
" style="fill:none;stroke:#000000;stroke-linecap:square;stroke-linejoin:miter;stroke-width:0.8;"/>
   </g>
   <g id="patch_105">
    <path d="M 57.6 307.584 
L 414.72 307.584 
" style="fill:none;stroke:#000000;stroke-linecap:square;stroke-linejoin:miter;stroke-width:0.8;"/>
   </g>
   <g id="patch_106">
    <path d="M 57.6 41.472 
L 414.72 41.472 
" style="fill:none;stroke:#000000;stroke-linecap:square;stroke-linejoin:miter;stroke-width:0.8;"/>
   </g>
  </g>
 </g>
 <defs>
  <clipPath id="p16de8cf774">
   <rect height="266.112" width="357.12" x="57.6" y="41.472"/>
  </clipPath>
 </defs>
</svg>
