<?xml version="1.0" encoding="utf-8" standalone="no"?>
<!DOCTYPE svg PUBLIC "-//W3C//DTD SVG 1.1//EN"
  "http://www.w3.org/Graphics/SVG/1.1/DTD/svg11.dtd">
<!-- Created with matplotlib (https://matplotlib.org/) -->
<svg height="288pt" version="1.1" viewBox="0 0 504 288" width="504pt" xmlns="http://www.w3.org/2000/svg" xmlns:xlink="http://www.w3.org/1999/xlink">
 <metadata>
  <rdf:RDF xmlns:cc="http://creativecommons.org/ns#" xmlns:dc="http://purl.org/dc/elements/1.1/" xmlns:rdf="http://www.w3.org/1999/02/22-rdf-syntax-ns#">
   <cc:Work>
    <dc:type rdf:resource="http://purl.org/dc/dcmitype/StillImage"/>
    <dc:date>2020-12-12T22:00:33.586796</dc:date>
    <dc:format>image/svg+xml</dc:format>
    <dc:creator>
     <cc:Agent>
      <dc:title>Matplotlib v3.3.2, https://matplotlib.org/</dc:title>
     </cc:Agent>
    </dc:creator>
   </cc:Work>
  </rdf:RDF>
 </metadata>
 <defs>
  <style type="text/css">*{stroke-linecap:butt;stroke-linejoin:round;}</style>
 </defs>
 <g id="figure_1">
  <g id="patch_1">
   <path d="M 0 288 
L 504 288 
L 504 0 
L 0 0 
z
" style="fill:none;"/>
  </g>
  <g id="axes_1">
   <g id="patch_2">
    <path d="M 63 252 
L 453.6 252 
L 453.6 34.56 
L 63 34.56 
z
" style="fill:none;"/>
   </g>
   <g id="patch_3">
    <path clip-path="url(#p5cc84aeeaa)" d="M 80.754545 252 
L 84.305455 252 
L 84.305455 248.548571 
L 80.754545 248.548571 
z
" style="fill:#0072b2;"/>
   </g>
   <g id="patch_4">
    <path clip-path="url(#p5cc84aeeaa)" d="M 84.305455 252 
L 87.856364 252 
L 87.856364 252 
L 84.305455 252 
z
" style="fill:#0072b2;"/>
   </g>
   <g id="patch_5">
    <path clip-path="url(#p5cc84aeeaa)" d="M 87.856364 252 
L 91.407273 252 
L 91.407273 252 
L 87.856364 252 
z
" style="fill:#0072b2;"/>
   </g>
   <g id="patch_6">
    <path clip-path="url(#p5cc84aeeaa)" d="M 91.407273 252 
L 94.958182 252 
L 94.958182 248.548571 
L 91.407273 248.548571 
z
" style="fill:#0072b2;"/>
   </g>
   <g id="patch_7">
    <path clip-path="url(#p5cc84aeeaa)" d="M 94.958182 252 
L 98.509091 252 
L 98.509091 241.645714 
L 94.958182 241.645714 
z
" style="fill:#0072b2;"/>
   </g>
   <g id="patch_8">
    <path clip-path="url(#p5cc84aeeaa)" d="M 98.509091 252 
L 102.06 252 
L 102.06 252 
L 98.509091 252 
z
" style="fill:#0072b2;"/>
   </g>
   <g id="patch_9">
    <path clip-path="url(#p5cc84aeeaa)" d="M 102.06 252 
L 105.610909 252 
L 105.610909 252 
L 102.06 252 
z
" style="fill:#0072b2;"/>
   </g>
   <g id="patch_10">
    <path clip-path="url(#p5cc84aeeaa)" d="M 105.610909 252 
L 109.161818 252 
L 109.161818 245.097143 
L 105.610909 245.097143 
z
" style="fill:#0072b2;"/>
   </g>
   <g id="patch_11">
    <path clip-path="url(#p5cc84aeeaa)" d="M 109.161818 252 
L 112.712727 252 
L 112.712727 252 
L 109.161818 252 
z
" style="fill:#0072b2;"/>
   </g>
   <g id="patch_12">
    <path clip-path="url(#p5cc84aeeaa)" d="M 112.712727 252 
L 116.263636 252 
L 116.263636 248.548571 
L 112.712727 248.548571 
z
" style="fill:#0072b2;"/>
   </g>
   <g id="patch_13">
    <path clip-path="url(#p5cc84aeeaa)" d="M 116.263636 252 
L 119.814545 252 
L 119.814545 252 
L 116.263636 252 
z
" style="fill:#0072b2;"/>
   </g>
   <g id="patch_14">
    <path clip-path="url(#p5cc84aeeaa)" d="M 119.814545 252 
L 123.365455 252 
L 123.365455 248.548571 
L 119.814545 248.548571 
z
" style="fill:#0072b2;"/>
   </g>
   <g id="patch_15">
    <path clip-path="url(#p5cc84aeeaa)" d="M 123.365455 252 
L 126.916364 252 
L 126.916364 241.645714 
L 123.365455 241.645714 
z
" style="fill:#0072b2;"/>
   </g>
   <g id="patch_16">
    <path clip-path="url(#p5cc84aeeaa)" d="M 126.916364 252 
L 130.467273 252 
L 130.467273 248.548571 
L 126.916364 248.548571 
z
" style="fill:#0072b2;"/>
   </g>
   <g id="patch_17">
    <path clip-path="url(#p5cc84aeeaa)" d="M 130.467273 252 
L 134.018182 252 
L 134.018182 238.194286 
L 130.467273 238.194286 
z
" style="fill:#0072b2;"/>
   </g>
   <g id="patch_18">
    <path clip-path="url(#p5cc84aeeaa)" d="M 134.018182 252 
L 137.569091 252 
L 137.569091 234.742857 
L 134.018182 234.742857 
z
" style="fill:#0072b2;"/>
   </g>
   <g id="patch_19">
    <path clip-path="url(#p5cc84aeeaa)" d="M 137.569091 252 
L 141.12 252 
L 141.12 241.645714 
L 137.569091 241.645714 
z
" style="fill:#0072b2;"/>
   </g>
   <g id="patch_20">
    <path clip-path="url(#p5cc84aeeaa)" d="M 141.12 252 
L 144.670909 252 
L 144.670909 238.194286 
L 141.12 238.194286 
z
" style="fill:#0072b2;"/>
   </g>
   <g id="patch_21">
    <path clip-path="url(#p5cc84aeeaa)" d="M 144.670909 252 
L 148.221818 252 
L 148.221818 241.645714 
L 144.670909 241.645714 
z
" style="fill:#0072b2;"/>
   </g>
   <g id="patch_22">
    <path clip-path="url(#p5cc84aeeaa)" d="M 148.221818 252 
L 151.772727 252 
L 151.772727 238.194286 
L 148.221818 238.194286 
z
" style="fill:#0072b2;"/>
   </g>
   <g id="patch_23">
    <path clip-path="url(#p5cc84aeeaa)" d="M 151.772727 252 
L 155.323636 252 
L 155.323636 234.742857 
L 151.772727 234.742857 
z
" style="fill:#0072b2;"/>
   </g>
   <g id="patch_24">
    <path clip-path="url(#p5cc84aeeaa)" d="M 155.323636 252 
L 158.874545 252 
L 158.874545 231.291429 
L 155.323636 231.291429 
z
" style="fill:#0072b2;"/>
   </g>
   <g id="patch_25">
    <path clip-path="url(#p5cc84aeeaa)" d="M 158.874545 252 
L 162.425455 252 
L 162.425455 220.937143 
L 158.874545 220.937143 
z
" style="fill:#0072b2;"/>
   </g>
   <g id="patch_26">
    <path clip-path="url(#p5cc84aeeaa)" d="M 162.425455 252 
L 165.976364 252 
L 165.976364 224.388571 
L 162.425455 224.388571 
z
" style="fill:#0072b2;"/>
   </g>
   <g id="patch_27">
    <path clip-path="url(#p5cc84aeeaa)" d="M 165.976364 252 
L 169.527273 252 
L 169.527273 210.582857 
L 165.976364 210.582857 
z
" style="fill:#0072b2;"/>
   </g>
   <g id="patch_28">
    <path clip-path="url(#p5cc84aeeaa)" d="M 169.527273 252 
L 173.078182 252 
L 173.078182 217.485714 
L 169.527273 217.485714 
z
" style="fill:#0072b2;"/>
   </g>
   <g id="patch_29">
    <path clip-path="url(#p5cc84aeeaa)" d="M 173.078182 252 
L 176.629091 252 
L 176.629091 186.422857 
L 173.078182 186.422857 
z
" style="fill:#0072b2;"/>
   </g>
   <g id="patch_30">
    <path clip-path="url(#p5cc84aeeaa)" d="M 176.629091 252 
L 180.18 252 
L 180.18 179.52 
L 176.629091 179.52 
z
" style="fill:#0072b2;"/>
   </g>
   <g id="patch_31">
    <path clip-path="url(#p5cc84aeeaa)" d="M 180.18 252 
L 183.730909 252 
L 183.730909 196.777143 
L 180.18 196.777143 
z
" style="fill:#0072b2;"/>
   </g>
   <g id="patch_32">
    <path clip-path="url(#p5cc84aeeaa)" d="M 183.730909 252 
L 187.281818 252 
L 187.281818 145.005714 
L 183.730909 145.005714 
z
" style="fill:#0072b2;"/>
   </g>
   <g id="patch_33">
    <path clip-path="url(#p5cc84aeeaa)" d="M 187.281818 252 
L 190.832727 252 
L 190.832727 141.554286 
L 187.281818 141.554286 
z
" style="fill:#0072b2;"/>
   </g>
   <g id="patch_34">
    <path clip-path="url(#p5cc84aeeaa)" d="M 190.832727 252 
L 194.383636 252 
L 194.383636 162.262857 
L 190.832727 162.262857 
z
" style="fill:#0072b2;"/>
   </g>
   <g id="patch_35">
    <path clip-path="url(#p5cc84aeeaa)" d="M 194.383636 252 
L 197.934545 252 
L 197.934545 148.457143 
L 194.383636 148.457143 
z
" style="fill:#0072b2;"/>
   </g>
   <g id="patch_36">
    <path clip-path="url(#p5cc84aeeaa)" d="M 197.934545 252 
L 201.485455 252 
L 201.485455 148.457143 
L 197.934545 148.457143 
z
" style="fill:#0072b2;"/>
   </g>
   <g id="patch_37">
    <path clip-path="url(#p5cc84aeeaa)" d="M 201.485455 252 
L 205.036364 252 
L 205.036364 79.428571 
L 201.485455 79.428571 
z
" style="fill:#0072b2;"/>
   </g>
   <g id="patch_38">
    <path clip-path="url(#p5cc84aeeaa)" d="M 205.036364 252 
L 208.587273 252 
L 208.587273 75.977143 
L 205.036364 75.977143 
z
" style="fill:#0072b2;"/>
   </g>
   <g id="patch_39">
    <path clip-path="url(#p5cc84aeeaa)" d="M 208.587273 252 
L 212.138182 252 
L 212.138182 96.685714 
L 208.587273 96.685714 
z
" style="fill:#0072b2;"/>
   </g>
   <g id="patch_40">
    <path clip-path="url(#p5cc84aeeaa)" d="M 212.138182 252 
L 215.689091 252 
L 215.689091 96.685714 
L 212.138182 96.685714 
z
" style="fill:#0072b2;"/>
   </g>
   <g id="patch_41">
    <path clip-path="url(#p5cc84aeeaa)" d="M 215.689091 252 
L 219.24 252 
L 219.24 44.914286 
L 215.689091 44.914286 
z
" style="fill:#0072b2;"/>
   </g>
   <g id="patch_42">
    <path clip-path="url(#p5cc84aeeaa)" d="M 219.24 252 
L 222.790909 252 
L 222.790909 103.588571 
L 219.24 103.588571 
z
" style="fill:#0072b2;"/>
   </g>
   <g id="patch_43">
    <path clip-path="url(#p5cc84aeeaa)" d="M 222.790909 252 
L 226.341818 252 
L 226.341818 117.394286 
L 222.790909 117.394286 
z
" style="fill:#0072b2;"/>
   </g>
   <g id="patch_44">
    <path clip-path="url(#p5cc84aeeaa)" d="M 226.341818 252 
L 229.892727 252 
L 229.892727 96.685714 
L 226.341818 96.685714 
z
" style="fill:#0072b2;"/>
   </g>
   <g id="patch_45">
    <path clip-path="url(#p5cc84aeeaa)" d="M 229.892727 252 
L 233.443636 252 
L 233.443636 103.588571 
L 229.892727 103.588571 
z
" style="fill:#0072b2;"/>
   </g>
   <g id="patch_46">
    <path clip-path="url(#p5cc84aeeaa)" d="M 233.443636 252 
L 236.994545 252 
L 236.994545 96.685714 
L 233.443636 96.685714 
z
" style="fill:#0072b2;"/>
   </g>
   <g id="patch_47">
    <path clip-path="url(#p5cc84aeeaa)" d="M 236.994545 252 
L 240.545455 252 
L 240.545455 93.234286 
L 236.994545 93.234286 
z
" style="fill:#0072b2;"/>
   </g>
   <g id="patch_48">
    <path clip-path="url(#p5cc84aeeaa)" d="M 240.545455 252 
L 244.096364 252 
L 244.096364 113.942857 
L 240.545455 113.942857 
z
" style="fill:#0072b2;"/>
   </g>
   <g id="patch_49">
    <path clip-path="url(#p5cc84aeeaa)" d="M 244.096364 252 
L 247.647273 252 
L 247.647273 100.137143 
L 244.096364 100.137143 
z
" style="fill:#0072b2;"/>
   </g>
   <g id="patch_50">
    <path clip-path="url(#p5cc84aeeaa)" d="M 247.647273 252 
L 251.198182 252 
L 251.198182 124.297143 
L 247.647273 124.297143 
z
" style="fill:#0072b2;"/>
   </g>
   <g id="patch_51">
    <path clip-path="url(#p5cc84aeeaa)" d="M 251.198182 252 
L 254.749091 252 
L 254.749091 107.04 
L 251.198182 107.04 
z
" style="fill:#0072b2;"/>
   </g>
   <g id="patch_52">
    <path clip-path="url(#p5cc84aeeaa)" d="M 254.749091 252 
L 258.3 252 
L 258.3 148.457143 
L 254.749091 148.457143 
z
" style="fill:#0072b2;"/>
   </g>
   <g id="patch_53">
    <path clip-path="url(#p5cc84aeeaa)" d="M 258.3 252 
L 261.850909 252 
L 261.850909 138.102857 
L 258.3 138.102857 
z
" style="fill:#0072b2;"/>
   </g>
   <g id="patch_54">
    <path clip-path="url(#p5cc84aeeaa)" d="M 261.850909 252 
L 265.401818 252 
L 265.401818 124.297143 
L 261.850909 124.297143 
z
" style="fill:#0072b2;"/>
   </g>
   <g id="patch_55">
    <path clip-path="url(#p5cc84aeeaa)" d="M 265.401818 252 
L 268.952727 252 
L 268.952727 151.908571 
L 265.401818 151.908571 
z
" style="fill:#0072b2;"/>
   </g>
   <g id="patch_56">
    <path clip-path="url(#p5cc84aeeaa)" d="M 268.952727 252 
L 272.503636 252 
L 272.503636 141.554286 
L 268.952727 141.554286 
z
" style="fill:#0072b2;"/>
   </g>
   <g id="patch_57">
    <path clip-path="url(#p5cc84aeeaa)" d="M 272.503636 252 
L 276.054545 252 
L 276.054545 82.88 
L 272.503636 82.88 
z
" style="fill:#0072b2;"/>
   </g>
   <g id="patch_58">
    <path clip-path="url(#p5cc84aeeaa)" d="M 276.054545 252 
L 279.605455 252 
L 279.605455 134.651429 
L 276.054545 134.651429 
z
" style="fill:#0072b2;"/>
   </g>
   <g id="patch_59">
    <path clip-path="url(#p5cc84aeeaa)" d="M 279.605455 252 
L 283.156364 252 
L 283.156364 110.491429 
L 279.605455 110.491429 
z
" style="fill:#0072b2;"/>
   </g>
   <g id="patch_60">
    <path clip-path="url(#p5cc84aeeaa)" d="M 283.156364 252 
L 286.707273 252 
L 286.707273 110.491429 
L 283.156364 110.491429 
z
" style="fill:#0072b2;"/>
   </g>
   <g id="patch_61">
    <path clip-path="url(#p5cc84aeeaa)" d="M 286.707273 252 
L 290.258182 252 
L 290.258182 124.297143 
L 286.707273 124.297143 
z
" style="fill:#0072b2;"/>
   </g>
   <g id="patch_62">
    <path clip-path="url(#p5cc84aeeaa)" d="M 290.258182 252 
L 293.809091 252 
L 293.809091 196.777143 
L 290.258182 196.777143 
z
" style="fill:#0072b2;"/>
   </g>
   <g id="patch_63">
    <path clip-path="url(#p5cc84aeeaa)" d="M 293.809091 252 
L 297.36 252 
L 297.36 158.811429 
L 293.809091 158.811429 
z
" style="fill:#0072b2;"/>
   </g>
   <g id="patch_64">
    <path clip-path="url(#p5cc84aeeaa)" d="M 297.36 252 
L 300.910909 252 
L 300.910909 134.651429 
L 297.36 134.651429 
z
" style="fill:#0072b2;"/>
   </g>
   <g id="patch_65">
    <path clip-path="url(#p5cc84aeeaa)" d="M 300.910909 252 
L 304.461818 252 
L 304.461818 138.102857 
L 300.910909 138.102857 
z
" style="fill:#0072b2;"/>
   </g>
   <g id="patch_66">
    <path clip-path="url(#p5cc84aeeaa)" d="M 304.461818 252 
L 308.012727 252 
L 308.012727 189.874286 
L 304.461818 189.874286 
z
" style="fill:#0072b2;"/>
   </g>
   <g id="patch_67">
    <path clip-path="url(#p5cc84aeeaa)" d="M 308.012727 252 
L 311.563636 252 
L 311.563636 203.68 
L 308.012727 203.68 
z
" style="fill:#0072b2;"/>
   </g>
   <g id="patch_68">
    <path clip-path="url(#p5cc84aeeaa)" d="M 311.563636 252 
L 315.114545 252 
L 315.114545 169.165714 
L 311.563636 169.165714 
z
" style="fill:#0072b2;"/>
   </g>
   <g id="patch_69">
    <path clip-path="url(#p5cc84aeeaa)" d="M 315.114545 252 
L 318.665455 252 
L 318.665455 176.068571 
L 315.114545 176.068571 
z
" style="fill:#0072b2;"/>
   </g>
   <g id="patch_70">
    <path clip-path="url(#p5cc84aeeaa)" d="M 318.665455 252 
L 322.216364 252 
L 322.216364 186.422857 
L 318.665455 186.422857 
z
" style="fill:#0072b2;"/>
   </g>
   <g id="patch_71">
    <path clip-path="url(#p5cc84aeeaa)" d="M 322.216364 252 
L 325.767273 252 
L 325.767273 189.874286 
L 322.216364 189.874286 
z
" style="fill:#0072b2;"/>
   </g>
   <g id="patch_72">
    <path clip-path="url(#p5cc84aeeaa)" d="M 325.767273 252 
L 329.318182 252 
L 329.318182 203.68 
L 325.767273 203.68 
z
" style="fill:#0072b2;"/>
   </g>
   <g id="patch_73">
    <path clip-path="url(#p5cc84aeeaa)" d="M 329.318182 252 
L 332.869091 252 
L 332.869091 227.84 
L 329.318182 227.84 
z
" style="fill:#0072b2;"/>
   </g>
   <g id="patch_74">
    <path clip-path="url(#p5cc84aeeaa)" d="M 332.869091 252 
L 336.42 252 
L 336.42 203.68 
L 332.869091 203.68 
z
" style="fill:#0072b2;"/>
   </g>
   <g id="patch_75">
    <path clip-path="url(#p5cc84aeeaa)" d="M 336.42 252 
L 339.970909 252 
L 339.970909 200.228571 
L 336.42 200.228571 
z
" style="fill:#0072b2;"/>
   </g>
   <g id="patch_76">
    <path clip-path="url(#p5cc84aeeaa)" d="M 339.970909 252 
L 343.521818 252 
L 343.521818 241.645714 
L 339.970909 241.645714 
z
" style="fill:#0072b2;"/>
   </g>
   <g id="patch_77">
    <path clip-path="url(#p5cc84aeeaa)" d="M 343.521818 252 
L 347.072727 252 
L 347.072727 227.84 
L 343.521818 227.84 
z
" style="fill:#0072b2;"/>
   </g>
   <g id="patch_78">
    <path clip-path="url(#p5cc84aeeaa)" d="M 347.072727 252 
L 350.623636 252 
L 350.623636 224.388571 
L 347.072727 224.388571 
z
" style="fill:#0072b2;"/>
   </g>
   <g id="patch_79">
    <path clip-path="url(#p5cc84aeeaa)" d="M 350.623636 252 
L 354.174545 252 
L 354.174545 214.034286 
L 350.623636 214.034286 
z
" style="fill:#0072b2;"/>
   </g>
   <g id="patch_80">
    <path clip-path="url(#p5cc84aeeaa)" d="M 354.174545 252 
L 357.725455 252 
L 357.725455 227.84 
L 354.174545 227.84 
z
" style="fill:#0072b2;"/>
   </g>
   <g id="patch_81">
    <path clip-path="url(#p5cc84aeeaa)" d="M 357.725455 252 
L 361.276364 252 
L 361.276364 231.291429 
L 357.725455 231.291429 
z
" style="fill:#0072b2;"/>
   </g>
   <g id="patch_82">
    <path clip-path="url(#p5cc84aeeaa)" d="M 361.276364 252 
L 364.827273 252 
L 364.827273 238.194286 
L 361.276364 238.194286 
z
" style="fill:#0072b2;"/>
   </g>
   <g id="patch_83">
    <path clip-path="url(#p5cc84aeeaa)" d="M 364.827273 252 
L 368.378182 252 
L 368.378182 220.937143 
L 364.827273 220.937143 
z
" style="fill:#0072b2;"/>
   </g>
   <g id="patch_84">
    <path clip-path="url(#p5cc84aeeaa)" d="M 368.378182 252 
L 371.929091 252 
L 371.929091 224.388571 
L 368.378182 224.388571 
z
" style="fill:#0072b2;"/>
   </g>
   <g id="patch_85">
    <path clip-path="url(#p5cc84aeeaa)" d="M 371.929091 252 
L 375.48 252 
L 375.48 238.194286 
L 371.929091 238.194286 
z
" style="fill:#0072b2;"/>
   </g>
   <g id="patch_86">
    <path clip-path="url(#p5cc84aeeaa)" d="M 375.48 252 
L 379.030909 252 
L 379.030909 241.645714 
L 375.48 241.645714 
z
" style="fill:#0072b2;"/>
   </g>
   <g id="patch_87">
    <path clip-path="url(#p5cc84aeeaa)" d="M 379.030909 252 
L 382.581818 252 
L 382.581818 245.097143 
L 379.030909 245.097143 
z
" style="fill:#0072b2;"/>
   </g>
   <g id="patch_88">
    <path clip-path="url(#p5cc84aeeaa)" d="M 382.581818 252 
L 386.132727 252 
L 386.132727 238.194286 
L 382.581818 238.194286 
z
" style="fill:#0072b2;"/>
   </g>
   <g id="patch_89">
    <path clip-path="url(#p5cc84aeeaa)" d="M 386.132727 252 
L 389.683636 252 
L 389.683636 238.194286 
L 386.132727 238.194286 
z
" style="fill:#0072b2;"/>
   </g>
   <g id="patch_90">
    <path clip-path="url(#p5cc84aeeaa)" d="M 389.683636 252 
L 393.234545 252 
L 393.234545 245.097143 
L 389.683636 245.097143 
z
" style="fill:#0072b2;"/>
   </g>
   <g id="patch_91">
    <path clip-path="url(#p5cc84aeeaa)" d="M 393.234545 252 
L 396.785455 252 
L 396.785455 220.937143 
L 393.234545 220.937143 
z
" style="fill:#0072b2;"/>
   </g>
   <g id="patch_92">
    <path clip-path="url(#p5cc84aeeaa)" d="M 396.785455 252 
L 400.336364 252 
L 400.336364 252 
L 396.785455 252 
z
" style="fill:#0072b2;"/>
   </g>
   <g id="patch_93">
    <path clip-path="url(#p5cc84aeeaa)" d="M 400.336364 252 
L 403.887273 252 
L 403.887273 227.84 
L 400.336364 227.84 
z
" style="fill:#0072b2;"/>
   </g>
   <g id="patch_94">
    <path clip-path="url(#p5cc84aeeaa)" d="M 403.887273 252 
L 407.438182 252 
L 407.438182 241.645714 
L 403.887273 241.645714 
z
" style="fill:#0072b2;"/>
   </g>
   <g id="patch_95">
    <path clip-path="url(#p5cc84aeeaa)" d="M 407.438182 252 
L 410.989091 252 
L 410.989091 231.291429 
L 407.438182 231.291429 
z
" style="fill:#0072b2;"/>
   </g>
   <g id="patch_96">
    <path clip-path="url(#p5cc84aeeaa)" d="M 410.989091 252 
L 414.54 252 
L 414.54 248.548571 
L 410.989091 248.548571 
z
" style="fill:#0072b2;"/>
   </g>
   <g id="patch_97">
    <path clip-path="url(#p5cc84aeeaa)" d="M 414.54 252 
L 418.090909 252 
L 418.090909 245.097143 
L 414.54 245.097143 
z
" style="fill:#0072b2;"/>
   </g>
   <g id="patch_98">
    <path clip-path="url(#p5cc84aeeaa)" d="M 418.090909 252 
L 421.641818 252 
L 421.641818 245.097143 
L 418.090909 245.097143 
z
" style="fill:#0072b2;"/>
   </g>
   <g id="patch_99">
    <path clip-path="url(#p5cc84aeeaa)" d="M 421.641818 252 
L 425.192727 252 
L 425.192727 245.097143 
L 421.641818 245.097143 
z
" style="fill:#0072b2;"/>
   </g>
   <g id="patch_100">
    <path clip-path="url(#p5cc84aeeaa)" d="M 425.192727 252 
L 428.743636 252 
L 428.743636 248.548571 
L 425.192727 248.548571 
z
" style="fill:#0072b2;"/>
   </g>
   <g id="patch_101">
    <path clip-path="url(#p5cc84aeeaa)" d="M 428.743636 252 
L 432.294545 252 
L 432.294545 245.097143 
L 428.743636 245.097143 
z
" style="fill:#0072b2;"/>
   </g>
   <g id="patch_102">
    <path clip-path="url(#p5cc84aeeaa)" d="M 432.294545 252 
L 435.845455 252 
L 435.845455 245.097143 
L 432.294545 245.097143 
z
" style="fill:#0072b2;"/>
   </g>
   <g id="matplotlib.axis_1">
    <g id="xtick_1">
     <g id="line2d_1">
      <defs>
       <path d="M 0 0 
L 0 3.5 
" id="m94cb948ba9" style="stroke:#000000;stroke-width:0.8;"/>
      </defs>
      <g>
       <use style="stroke:#000000;stroke-width:0.8;" x="80.754545" xlink:href="#m94cb948ba9" y="252"/>
      </g>
     </g>
     <g id="text_1">
      <!-- 0.0 -->
      <g transform="translate(72.802983 266.598437)scale(0.1 -0.1)">
       <defs>
        <path d="M 31.78125 66.40625 
Q 24.171875 66.40625 20.328125 58.90625 
Q 16.5 51.421875 16.5 36.375 
Q 16.5 21.390625 20.328125 13.890625 
Q 24.171875 6.390625 31.78125 6.390625 
Q 39.453125 6.390625 43.28125 13.890625 
Q 47.125 21.390625 47.125 36.375 
Q 47.125 51.421875 43.28125 58.90625 
Q 39.453125 66.40625 31.78125 66.40625 
z
M 31.78125 74.21875 
Q 44.046875 74.21875 50.515625 64.515625 
Q 56.984375 54.828125 56.984375 36.375 
Q 56.984375 17.96875 50.515625 8.265625 
Q 44.046875 -1.421875 31.78125 -1.421875 
Q 19.53125 -1.421875 13.0625 8.265625 
Q 6.59375 17.96875 6.59375 36.375 
Q 6.59375 54.828125 13.0625 64.515625 
Q 19.53125 74.21875 31.78125 74.21875 
z
" id="DejaVuSans-48"/>
        <path d="M 10.6875 12.40625 
L 21 12.40625 
L 21 0 
L 10.6875 0 
z
" id="DejaVuSans-46"/>
       </defs>
       <use xlink:href="#DejaVuSans-48"/>
       <use x="63.623047" xlink:href="#DejaVuSans-46"/>
       <use x="95.410156" xlink:href="#DejaVuSans-48"/>
      </g>
     </g>
    </g>
    <g id="xtick_2">
     <g id="line2d_2">
      <g>
       <use style="stroke:#000000;stroke-width:0.8;" x="151.772727" xlink:href="#m94cb948ba9" y="252"/>
      </g>
     </g>
     <g id="text_2">
      <!-- 0.2 -->
      <g transform="translate(143.821165 266.598437)scale(0.1 -0.1)">
       <defs>
        <path d="M 19.1875 8.296875 
L 53.609375 8.296875 
L 53.609375 0 
L 7.328125 0 
L 7.328125 8.296875 
Q 12.9375 14.109375 22.625 23.890625 
Q 32.328125 33.6875 34.8125 36.53125 
Q 39.546875 41.84375 41.421875 45.53125 
Q 43.3125 49.21875 43.3125 52.78125 
Q 43.3125 58.59375 39.234375 62.25 
Q 35.15625 65.921875 28.609375 65.921875 
Q 23.96875 65.921875 18.8125 64.3125 
Q 13.671875 62.703125 7.8125 59.421875 
L 7.8125 69.390625 
Q 13.765625 71.78125 18.9375 73 
Q 24.125 74.21875 28.421875 74.21875 
Q 39.75 74.21875 46.484375 68.546875 
Q 53.21875 62.890625 53.21875 53.421875 
Q 53.21875 48.921875 51.53125 44.890625 
Q 49.859375 40.875 45.40625 35.40625 
Q 44.1875 33.984375 37.640625 27.21875 
Q 31.109375 20.453125 19.1875 8.296875 
z
" id="DejaVuSans-50"/>
       </defs>
       <use xlink:href="#DejaVuSans-48"/>
       <use x="63.623047" xlink:href="#DejaVuSans-46"/>
       <use x="95.410156" xlink:href="#DejaVuSans-50"/>
      </g>
     </g>
    </g>
    <g id="xtick_3">
     <g id="line2d_3">
      <g>
       <use style="stroke:#000000;stroke-width:0.8;" x="222.790909" xlink:href="#m94cb948ba9" y="252"/>
      </g>
     </g>
     <g id="text_3">
      <!-- 0.4 -->
      <g transform="translate(214.839347 266.598437)scale(0.1 -0.1)">
       <defs>
        <path d="M 37.796875 64.3125 
L 12.890625 25.390625 
L 37.796875 25.390625 
z
M 35.203125 72.90625 
L 47.609375 72.90625 
L 47.609375 25.390625 
L 58.015625 25.390625 
L 58.015625 17.1875 
L 47.609375 17.1875 
L 47.609375 0 
L 37.796875 0 
L 37.796875 17.1875 
L 4.890625 17.1875 
L 4.890625 26.703125 
z
" id="DejaVuSans-52"/>
       </defs>
       <use xlink:href="#DejaVuSans-48"/>
       <use x="63.623047" xlink:href="#DejaVuSans-46"/>
       <use x="95.410156" xlink:href="#DejaVuSans-52"/>
      </g>
     </g>
    </g>
    <g id="xtick_4">
     <g id="line2d_4">
      <g>
       <use style="stroke:#000000;stroke-width:0.8;" x="293.809091" xlink:href="#m94cb948ba9" y="252"/>
      </g>
     </g>
     <g id="text_4">
      <!-- 0.6 -->
      <g transform="translate(285.857528 266.598437)scale(0.1 -0.1)">
       <defs>
        <path d="M 33.015625 40.375 
Q 26.375 40.375 22.484375 35.828125 
Q 18.609375 31.296875 18.609375 23.390625 
Q 18.609375 15.53125 22.484375 10.953125 
Q 26.375 6.390625 33.015625 6.390625 
Q 39.65625 6.390625 43.53125 10.953125 
Q 47.40625 15.53125 47.40625 23.390625 
Q 47.40625 31.296875 43.53125 35.828125 
Q 39.65625 40.375 33.015625 40.375 
z
M 52.59375 71.296875 
L 52.59375 62.3125 
Q 48.875 64.0625 45.09375 64.984375 
Q 41.3125 65.921875 37.59375 65.921875 
Q 27.828125 65.921875 22.671875 59.328125 
Q 17.53125 52.734375 16.796875 39.40625 
Q 19.671875 43.65625 24.015625 45.921875 
Q 28.375 48.1875 33.59375 48.1875 
Q 44.578125 48.1875 50.953125 41.515625 
Q 57.328125 34.859375 57.328125 23.390625 
Q 57.328125 12.15625 50.6875 5.359375 
Q 44.046875 -1.421875 33.015625 -1.421875 
Q 20.359375 -1.421875 13.671875 8.265625 
Q 6.984375 17.96875 6.984375 36.375 
Q 6.984375 53.65625 15.1875 63.9375 
Q 23.390625 74.21875 37.203125 74.21875 
Q 40.921875 74.21875 44.703125 73.484375 
Q 48.484375 72.75 52.59375 71.296875 
z
" id="DejaVuSans-54"/>
       </defs>
       <use xlink:href="#DejaVuSans-48"/>
       <use x="63.623047" xlink:href="#DejaVuSans-46"/>
       <use x="95.410156" xlink:href="#DejaVuSans-54"/>
      </g>
     </g>
    </g>
    <g id="xtick_5">
     <g id="line2d_5">
      <g>
       <use style="stroke:#000000;stroke-width:0.8;" x="364.827273" xlink:href="#m94cb948ba9" y="252"/>
      </g>
     </g>
     <g id="text_5">
      <!-- 0.8 -->
      <g transform="translate(356.87571 266.598437)scale(0.1 -0.1)">
       <defs>
        <path d="M 31.78125 34.625 
Q 24.75 34.625 20.71875 30.859375 
Q 16.703125 27.09375 16.703125 20.515625 
Q 16.703125 13.921875 20.71875 10.15625 
Q 24.75 6.390625 31.78125 6.390625 
Q 38.8125 6.390625 42.859375 10.171875 
Q 46.921875 13.96875 46.921875 20.515625 
Q 46.921875 27.09375 42.890625 30.859375 
Q 38.875 34.625 31.78125 34.625 
z
M 21.921875 38.8125 
Q 15.578125 40.375 12.03125 44.71875 
Q 8.5 49.078125 8.5 55.328125 
Q 8.5 64.0625 14.71875 69.140625 
Q 20.953125 74.21875 31.78125 74.21875 
Q 42.671875 74.21875 48.875 69.140625 
Q 55.078125 64.0625 55.078125 55.328125 
Q 55.078125 49.078125 51.53125 44.71875 
Q 48 40.375 41.703125 38.8125 
Q 48.828125 37.15625 52.796875 32.3125 
Q 56.78125 27.484375 56.78125 20.515625 
Q 56.78125 9.90625 50.3125 4.234375 
Q 43.84375 -1.421875 31.78125 -1.421875 
Q 19.734375 -1.421875 13.25 4.234375 
Q 6.78125 9.90625 6.78125 20.515625 
Q 6.78125 27.484375 10.78125 32.3125 
Q 14.796875 37.15625 21.921875 38.8125 
z
M 18.3125 54.390625 
Q 18.3125 48.734375 21.84375 45.5625 
Q 25.390625 42.390625 31.78125 42.390625 
Q 38.140625 42.390625 41.71875 45.5625 
Q 45.3125 48.734375 45.3125 54.390625 
Q 45.3125 60.0625 41.71875 63.234375 
Q 38.140625 66.40625 31.78125 66.40625 
Q 25.390625 66.40625 21.84375 63.234375 
Q 18.3125 60.0625 18.3125 54.390625 
z
" id="DejaVuSans-56"/>
       </defs>
       <use xlink:href="#DejaVuSans-48"/>
       <use x="63.623047" xlink:href="#DejaVuSans-46"/>
       <use x="95.410156" xlink:href="#DejaVuSans-56"/>
      </g>
     </g>
    </g>
    <g id="xtick_6">
     <g id="line2d_6">
      <g>
       <use style="stroke:#000000;stroke-width:0.8;" x="435.845455" xlink:href="#m94cb948ba9" y="252"/>
      </g>
     </g>
     <g id="text_6">
      <!-- 1.0 -->
      <g transform="translate(427.893892 266.598437)scale(0.1 -0.1)">
       <defs>
        <path d="M 12.40625 8.296875 
L 28.515625 8.296875 
L 28.515625 63.921875 
L 10.984375 60.40625 
L 10.984375 69.390625 
L 28.421875 72.90625 
L 38.28125 72.90625 
L 38.28125 8.296875 
L 54.390625 8.296875 
L 54.390625 0 
L 12.40625 0 
z
" id="DejaVuSans-49"/>
       </defs>
       <use xlink:href="#DejaVuSans-49"/>
       <use x="63.623047" xlink:href="#DejaVuSans-46"/>
       <use x="95.410156" xlink:href="#DejaVuSans-48"/>
      </g>
     </g>
    </g>
    <g id="text_7">
     <!-- SOC (g/kg) -->
     <g transform="translate(231.279688 280.276563)scale(0.1 -0.1)">
      <defs>
       <path d="M 53.515625 70.515625 
L 53.515625 60.890625 
Q 47.90625 63.578125 42.921875 64.890625 
Q 37.9375 66.21875 33.296875 66.21875 
Q 25.25 66.21875 20.875 63.09375 
Q 16.5 59.96875 16.5 54.203125 
Q 16.5 49.359375 19.40625 46.890625 
Q 22.3125 44.4375 30.421875 42.921875 
L 36.375 41.703125 
Q 47.40625 39.59375 52.65625 34.296875 
Q 57.90625 29 57.90625 20.125 
Q 57.90625 9.515625 50.796875 4.046875 
Q 43.703125 -1.421875 29.984375 -1.421875 
Q 24.8125 -1.421875 18.96875 -0.25 
Q 13.140625 0.921875 6.890625 3.21875 
L 6.890625 13.375 
Q 12.890625 10.015625 18.65625 8.296875 
Q 24.421875 6.59375 29.984375 6.59375 
Q 38.421875 6.59375 43.015625 9.90625 
Q 47.609375 13.234375 47.609375 19.390625 
Q 47.609375 24.75 44.3125 27.78125 
Q 41.015625 30.8125 33.5 32.328125 
L 27.484375 33.5 
Q 16.453125 35.6875 11.515625 40.375 
Q 6.59375 45.0625 6.59375 53.421875 
Q 6.59375 63.09375 13.40625 68.65625 
Q 20.21875 74.21875 32.171875 74.21875 
Q 37.3125 74.21875 42.625 73.28125 
Q 47.953125 72.359375 53.515625 70.515625 
z
" id="DejaVuSans-83"/>
       <path d="M 39.40625 66.21875 
Q 28.65625 66.21875 22.328125 58.203125 
Q 16.015625 50.203125 16.015625 36.375 
Q 16.015625 22.609375 22.328125 14.59375 
Q 28.65625 6.59375 39.40625 6.59375 
Q 50.140625 6.59375 56.421875 14.59375 
Q 62.703125 22.609375 62.703125 36.375 
Q 62.703125 50.203125 56.421875 58.203125 
Q 50.140625 66.21875 39.40625 66.21875 
z
M 39.40625 74.21875 
Q 54.734375 74.21875 63.90625 63.9375 
Q 73.09375 53.65625 73.09375 36.375 
Q 73.09375 19.140625 63.90625 8.859375 
Q 54.734375 -1.421875 39.40625 -1.421875 
Q 24.03125 -1.421875 14.8125 8.828125 
Q 5.609375 19.09375 5.609375 36.375 
Q 5.609375 53.65625 14.8125 63.9375 
Q 24.03125 74.21875 39.40625 74.21875 
z
" id="DejaVuSans-79"/>
       <path d="M 64.40625 67.28125 
L 64.40625 56.890625 
Q 59.421875 61.53125 53.78125 63.8125 
Q 48.140625 66.109375 41.796875 66.109375 
Q 29.296875 66.109375 22.65625 58.46875 
Q 16.015625 50.828125 16.015625 36.375 
Q 16.015625 21.96875 22.65625 14.328125 
Q 29.296875 6.6875 41.796875 6.6875 
Q 48.140625 6.6875 53.78125 8.984375 
Q 59.421875 11.28125 64.40625 15.921875 
L 64.40625 5.609375 
Q 59.234375 2.09375 53.4375 0.328125 
Q 47.65625 -1.421875 41.21875 -1.421875 
Q 24.65625 -1.421875 15.125 8.703125 
Q 5.609375 18.84375 5.609375 36.375 
Q 5.609375 53.953125 15.125 64.078125 
Q 24.65625 74.21875 41.21875 74.21875 
Q 47.75 74.21875 53.53125 72.484375 
Q 59.328125 70.75 64.40625 67.28125 
z
" id="DejaVuSans-67"/>
       <path id="DejaVuSans-32"/>
       <path d="M 31 75.875 
Q 24.46875 64.65625 21.28125 53.65625 
Q 18.109375 42.671875 18.109375 31.390625 
Q 18.109375 20.125 21.3125 9.0625 
Q 24.515625 -2 31 -13.1875 
L 23.1875 -13.1875 
Q 15.875 -1.703125 12.234375 9.375 
Q 8.59375 20.453125 8.59375 31.390625 
Q 8.59375 42.28125 12.203125 53.3125 
Q 15.828125 64.359375 23.1875 75.875 
z
" id="DejaVuSans-40"/>
       <path d="M 45.40625 27.984375 
Q 45.40625 37.75 41.375 43.109375 
Q 37.359375 48.484375 30.078125 48.484375 
Q 22.859375 48.484375 18.828125 43.109375 
Q 14.796875 37.75 14.796875 27.984375 
Q 14.796875 18.265625 18.828125 12.890625 
Q 22.859375 7.515625 30.078125 7.515625 
Q 37.359375 7.515625 41.375 12.890625 
Q 45.40625 18.265625 45.40625 27.984375 
z
M 54.390625 6.78125 
Q 54.390625 -7.171875 48.1875 -13.984375 
Q 42 -20.796875 29.203125 -20.796875 
Q 24.46875 -20.796875 20.265625 -20.09375 
Q 16.0625 -19.390625 12.109375 -17.921875 
L 12.109375 -9.1875 
Q 16.0625 -11.328125 19.921875 -12.34375 
Q 23.78125 -13.375 27.78125 -13.375 
Q 36.625 -13.375 41.015625 -8.765625 
Q 45.40625 -4.15625 45.40625 5.171875 
L 45.40625 9.625 
Q 42.625 4.78125 38.28125 2.390625 
Q 33.9375 0 27.875 0 
Q 17.828125 0 11.671875 7.65625 
Q 5.515625 15.328125 5.515625 27.984375 
Q 5.515625 40.671875 11.671875 48.328125 
Q 17.828125 56 27.875 56 
Q 33.9375 56 38.28125 53.609375 
Q 42.625 51.21875 45.40625 46.390625 
L 45.40625 54.6875 
L 54.390625 54.6875 
z
" id="DejaVuSans-103"/>
       <path d="M 25.390625 72.90625 
L 33.6875 72.90625 
L 8.296875 -9.28125 
L 0 -9.28125 
z
" id="DejaVuSans-47"/>
       <path d="M 9.078125 75.984375 
L 18.109375 75.984375 
L 18.109375 31.109375 
L 44.921875 54.6875 
L 56.390625 54.6875 
L 27.390625 29.109375 
L 57.625 0 
L 45.90625 0 
L 18.109375 26.703125 
L 18.109375 0 
L 9.078125 0 
z
" id="DejaVuSans-107"/>
       <path d="M 8.015625 75.875 
L 15.828125 75.875 
Q 23.140625 64.359375 26.78125 53.3125 
Q 30.421875 42.28125 30.421875 31.390625 
Q 30.421875 20.453125 26.78125 9.375 
Q 23.140625 -1.703125 15.828125 -13.1875 
L 8.015625 -13.1875 
Q 14.5 -2 17.703125 9.0625 
Q 20.90625 20.125 20.90625 31.390625 
Q 20.90625 42.671875 17.703125 53.65625 
Q 14.5 64.65625 8.015625 75.875 
z
" id="DejaVuSans-41"/>
      </defs>
      <use xlink:href="#DejaVuSans-83"/>
      <use x="63.476562" xlink:href="#DejaVuSans-79"/>
      <use x="142.1875" xlink:href="#DejaVuSans-67"/>
      <use x="212.011719" xlink:href="#DejaVuSans-32"/>
      <use x="243.798828" xlink:href="#DejaVuSans-40"/>
      <use x="282.8125" xlink:href="#DejaVuSans-103"/>
      <use x="346.289062" xlink:href="#DejaVuSans-47"/>
      <use x="379.980469" xlink:href="#DejaVuSans-107"/>
      <use x="437.890625" xlink:href="#DejaVuSans-103"/>
      <use x="501.367188" xlink:href="#DejaVuSans-41"/>
     </g>
    </g>
   </g>
   <g id="matplotlib.axis_2">
    <g id="ytick_1">
     <g id="line2d_7">
      <defs>
       <path d="M 0 0 
L -3.5 0 
" id="mc98458c333" style="stroke:#000000;stroke-width:0.8;"/>
      </defs>
      <g>
       <use style="stroke:#000000;stroke-width:0.8;" x="63" xlink:href="#mc98458c333" y="252"/>
      </g>
     </g>
     <g id="text_8">
      <!-- 0 -->
      <g transform="translate(49.6375 255.799219)scale(0.1 -0.1)">
       <use xlink:href="#DejaVuSans-48"/>
      </g>
     </g>
    </g>
    <g id="ytick_2">
     <g id="line2d_8">
      <g>
       <use style="stroke:#000000;stroke-width:0.8;" x="63" xlink:href="#mc98458c333" y="217.485714"/>
      </g>
     </g>
     <g id="text_9">
      <!-- 10 -->
      <g transform="translate(43.275 221.284933)scale(0.1 -0.1)">
       <use xlink:href="#DejaVuSans-49"/>
       <use x="63.623047" xlink:href="#DejaVuSans-48"/>
      </g>
     </g>
    </g>
    <g id="ytick_3">
     <g id="line2d_9">
      <g>
       <use style="stroke:#000000;stroke-width:0.8;" x="63" xlink:href="#mc98458c333" y="182.971429"/>
      </g>
     </g>
     <g id="text_10">
      <!-- 20 -->
      <g transform="translate(43.275 186.770647)scale(0.1 -0.1)">
       <use xlink:href="#DejaVuSans-50"/>
       <use x="63.623047" xlink:href="#DejaVuSans-48"/>
      </g>
     </g>
    </g>
    <g id="ytick_4">
     <g id="line2d_10">
      <g>
       <use style="stroke:#000000;stroke-width:0.8;" x="63" xlink:href="#mc98458c333" y="148.457143"/>
      </g>
     </g>
     <g id="text_11">
      <!-- 30 -->
      <g transform="translate(43.275 152.256362)scale(0.1 -0.1)">
       <defs>
        <path d="M 40.578125 39.3125 
Q 47.65625 37.796875 51.625 33 
Q 55.609375 28.21875 55.609375 21.1875 
Q 55.609375 10.40625 48.1875 4.484375 
Q 40.765625 -1.421875 27.09375 -1.421875 
Q 22.515625 -1.421875 17.65625 -0.515625 
Q 12.796875 0.390625 7.625 2.203125 
L 7.625 11.71875 
Q 11.71875 9.328125 16.59375 8.109375 
Q 21.484375 6.890625 26.8125 6.890625 
Q 36.078125 6.890625 40.9375 10.546875 
Q 45.796875 14.203125 45.796875 21.1875 
Q 45.796875 27.640625 41.28125 31.265625 
Q 36.765625 34.90625 28.71875 34.90625 
L 20.21875 34.90625 
L 20.21875 43.015625 
L 29.109375 43.015625 
Q 36.375 43.015625 40.234375 45.921875 
Q 44.09375 48.828125 44.09375 54.296875 
Q 44.09375 59.90625 40.109375 62.90625 
Q 36.140625 65.921875 28.71875 65.921875 
Q 24.65625 65.921875 20.015625 65.03125 
Q 15.375 64.15625 9.8125 62.3125 
L 9.8125 71.09375 
Q 15.4375 72.65625 20.34375 73.4375 
Q 25.25 74.21875 29.59375 74.21875 
Q 40.828125 74.21875 47.359375 69.109375 
Q 53.90625 64.015625 53.90625 55.328125 
Q 53.90625 49.265625 50.4375 45.09375 
Q 46.96875 40.921875 40.578125 39.3125 
z
" id="DejaVuSans-51"/>
       </defs>
       <use xlink:href="#DejaVuSans-51"/>
       <use x="63.623047" xlink:href="#DejaVuSans-48"/>
      </g>
     </g>
    </g>
    <g id="ytick_5">
     <g id="line2d_11">
      <g>
       <use style="stroke:#000000;stroke-width:0.8;" x="63" xlink:href="#mc98458c333" y="113.942857"/>
      </g>
     </g>
     <g id="text_12">
      <!-- 40 -->
      <g transform="translate(43.275 117.742076)scale(0.1 -0.1)">
       <use xlink:href="#DejaVuSans-52"/>
       <use x="63.623047" xlink:href="#DejaVuSans-48"/>
      </g>
     </g>
    </g>
    <g id="ytick_6">
     <g id="line2d_12">
      <g>
       <use style="stroke:#000000;stroke-width:0.8;" x="63" xlink:href="#mc98458c333" y="79.428571"/>
      </g>
     </g>
     <g id="text_13">
      <!-- 50 -->
      <g transform="translate(43.275 83.22779)scale(0.1 -0.1)">
       <defs>
        <path d="M 10.796875 72.90625 
L 49.515625 72.90625 
L 49.515625 64.59375 
L 19.828125 64.59375 
L 19.828125 46.734375 
Q 21.96875 47.46875 24.109375 47.828125 
Q 26.265625 48.1875 28.421875 48.1875 
Q 40.625 48.1875 47.75 41.5 
Q 54.890625 34.8125 54.890625 23.390625 
Q 54.890625 11.625 47.5625 5.09375 
Q 40.234375 -1.421875 26.90625 -1.421875 
Q 22.3125 -1.421875 17.546875 -0.640625 
Q 12.796875 0.140625 7.71875 1.703125 
L 7.71875 11.625 
Q 12.109375 9.234375 16.796875 8.0625 
Q 21.484375 6.890625 26.703125 6.890625 
Q 35.15625 6.890625 40.078125 11.328125 
Q 45.015625 15.765625 45.015625 23.390625 
Q 45.015625 31 40.078125 35.4375 
Q 35.15625 39.890625 26.703125 39.890625 
Q 22.75 39.890625 18.8125 39.015625 
Q 14.890625 38.140625 10.796875 36.28125 
z
" id="DejaVuSans-53"/>
       </defs>
       <use xlink:href="#DejaVuSans-53"/>
       <use x="63.623047" xlink:href="#DejaVuSans-48"/>
      </g>
     </g>
    </g>
    <g id="ytick_7">
     <g id="line2d_13">
      <g>
       <use style="stroke:#000000;stroke-width:0.8;" x="63" xlink:href="#mc98458c333" y="44.914286"/>
      </g>
     </g>
     <g id="text_14">
      <!-- 60 -->
      <g transform="translate(43.275 48.713504)scale(0.1 -0.1)">
       <use xlink:href="#DejaVuSans-54"/>
       <use x="63.623047" xlink:href="#DejaVuSans-48"/>
      </g>
     </g>
    </g>
    <g id="text_15">
     <!-- Count -->
     <g transform="translate(37.195312 158.128437)rotate(-90)scale(0.1 -0.1)">
      <defs>
       <path d="M 30.609375 48.390625 
Q 23.390625 48.390625 19.1875 42.75 
Q 14.984375 37.109375 14.984375 27.296875 
Q 14.984375 17.484375 19.15625 11.84375 
Q 23.34375 6.203125 30.609375 6.203125 
Q 37.796875 6.203125 41.984375 11.859375 
Q 46.1875 17.53125 46.1875 27.296875 
Q 46.1875 37.015625 41.984375 42.703125 
Q 37.796875 48.390625 30.609375 48.390625 
z
M 30.609375 56 
Q 42.328125 56 49.015625 48.375 
Q 55.71875 40.765625 55.71875 27.296875 
Q 55.71875 13.875 49.015625 6.21875 
Q 42.328125 -1.421875 30.609375 -1.421875 
Q 18.84375 -1.421875 12.171875 6.21875 
Q 5.515625 13.875 5.515625 27.296875 
Q 5.515625 40.765625 12.171875 48.375 
Q 18.84375 56 30.609375 56 
z
" id="DejaVuSans-111"/>
       <path d="M 8.5 21.578125 
L 8.5 54.6875 
L 17.484375 54.6875 
L 17.484375 21.921875 
Q 17.484375 14.15625 20.5 10.265625 
Q 23.53125 6.390625 29.59375 6.390625 
Q 36.859375 6.390625 41.078125 11.03125 
Q 45.3125 15.671875 45.3125 23.6875 
L 45.3125 54.6875 
L 54.296875 54.6875 
L 54.296875 0 
L 45.3125 0 
L 45.3125 8.40625 
Q 42.046875 3.421875 37.71875 1 
Q 33.40625 -1.421875 27.6875 -1.421875 
Q 18.265625 -1.421875 13.375 4.4375 
Q 8.5 10.296875 8.5 21.578125 
z
M 31.109375 56 
z
" id="DejaVuSans-117"/>
       <path d="M 54.890625 33.015625 
L 54.890625 0 
L 45.90625 0 
L 45.90625 32.71875 
Q 45.90625 40.484375 42.875 44.328125 
Q 39.84375 48.1875 33.796875 48.1875 
Q 26.515625 48.1875 22.3125 43.546875 
Q 18.109375 38.921875 18.109375 30.90625 
L 18.109375 0 
L 9.078125 0 
L 9.078125 54.6875 
L 18.109375 54.6875 
L 18.109375 46.1875 
Q 21.34375 51.125 25.703125 53.5625 
Q 30.078125 56 35.796875 56 
Q 45.21875 56 50.046875 50.171875 
Q 54.890625 44.34375 54.890625 33.015625 
z
" id="DejaVuSans-110"/>
       <path d="M 18.3125 70.21875 
L 18.3125 54.6875 
L 36.8125 54.6875 
L 36.8125 47.703125 
L 18.3125 47.703125 
L 18.3125 18.015625 
Q 18.3125 11.328125 20.140625 9.421875 
Q 21.96875 7.515625 27.59375 7.515625 
L 36.8125 7.515625 
L 36.8125 0 
L 27.59375 0 
Q 17.1875 0 13.234375 3.875 
Q 9.28125 7.765625 9.28125 18.015625 
L 9.28125 47.703125 
L 2.6875 47.703125 
L 2.6875 54.6875 
L 9.28125 54.6875 
L 9.28125 70.21875 
z
" id="DejaVuSans-116"/>
      </defs>
      <use xlink:href="#DejaVuSans-67"/>
      <use x="69.824219" xlink:href="#DejaVuSans-111"/>
      <use x="131.005859" xlink:href="#DejaVuSans-117"/>
      <use x="194.384766" xlink:href="#DejaVuSans-110"/>
      <use x="257.763672" xlink:href="#DejaVuSans-116"/>
     </g>
    </g>
   </g>
   <g id="line2d_14">
    <path clip-path="url(#p5cc84aeeaa)" d="M 252.234303 252 
L 252.234303 34.56 
" style="fill:none;stroke:#000000;stroke-dasharray:3.7,1.6;stroke-dashoffset:0;"/>
   </g>
   <g id="patch_103">
    <path d="M 63 252 
L 63 34.56 
" style="fill:none;stroke:#000000;stroke-linecap:square;stroke-linejoin:miter;stroke-width:0.8;"/>
   </g>
   <g id="patch_104">
    <path d="M 453.6 252 
L 453.6 34.56 
" style="fill:none;stroke:#000000;stroke-linecap:square;stroke-linejoin:miter;stroke-width:0.8;"/>
   </g>
   <g id="patch_105">
    <path d="M 63 252 
L 453.6 252 
" style="fill:none;stroke:#000000;stroke-linecap:square;stroke-linejoin:miter;stroke-width:0.8;"/>
   </g>
   <g id="patch_106">
    <path d="M 63 34.56 
L 453.6 34.56 
" style="fill:none;stroke:#000000;stroke-linecap:square;stroke-linejoin:miter;stroke-width:0.8;"/>
   </g>
  </g>
 </g>
 <defs>
  <clipPath id="p5cc84aeeaa">
   <rect height="217.44" width="390.6" x="63" y="34.56"/>
  </clipPath>
 </defs>
</svg>
